<svg xmlns="http://www.w3.org/2000/svg" xmlns:xlink="http://www.w3.org/1999/xlink" viewBox="0 0 595.28 149.7"><defs><style>.cls-1{fill:#bcc1bf;opacity:0.57;}.cls-13,.cls-2,.cls-20,.cls-29,.cls-30,.cls-49{fill:none;}.cls-2{stroke:#bcc1bf;stroke-linejoin:round;}.cls-2,.cls-20,.cls-49{stroke-linecap:round;}.cls-3{fill:#788380;}.cls-4{fill:#05160b;}.cls-5{fill:#000600;}.cls-6{fill:#31393d;}.cls-7{fill:#080710;}.cls-8{fill:#546168;}.cls-9{fill:url(#radial-gradient);}.cls-10{fill:url(#linear-gradient);}.cls-11{fill:url(#linear-gradient-2);}.cls-12{fill:url(#linear-gradient-3);}.cls-13{stroke:#12151b;}.cls-13,.cls-29,.cls-30,.cls-49{stroke-miterlimit:10;}.cls-14{fill:url(#linear-gradient-4);}.cls-15,.cls-17,.cls-26,.cls-28{opacity:0.5;}.cls-15{fill:url(#radial-gradient-2);}.cls-16{fill:url(#linear-gradient-5);}.cls-17{fill:url(#radial-gradient-3);}.cls-18{fill:#001d0c;}.cls-19{fill:url(#linear-gradient-6);}.cls-20{stroke:#232323;stroke-linejoin:bevel;}.cls-21{fill:url(#radial-gradient-4);}.cls-22{fill:url(#linear-gradient-7);}.cls-23{fill:url(#linear-gradient-8);}.cls-24{fill:url(#linear-gradient-9);}.cls-25{fill:url(#linear-gradient-10);}.cls-26{fill:url(#radial-gradient-5);}.cls-27{fill:url(#linear-gradient-11);}.cls-28{fill:url(#radial-gradient-6);}.cls-29{stroke:#5e5e5e;}.cls-30{stroke:#aaa;}.cls-31{fill:url(#linear-gradient-12);}.cls-32{fill:url(#linear-gradient-13);}.cls-33{fill:#0f1012;}.cls-34{fill:#030605;}.cls-35{fill:url(#linear-gradient-14);}.cls-36{fill:#678c6c;}.cls-37{fill:url(#linear-gradient-15);}.cls-38{fill:#040000;}.cls-39{fill:#0a2b0c;}.cls-40{fill:url(#linear-gradient-16);}.cls-41{fill:url(#linear-gradient-17);}.cls-42{fill:#446651;}.cls-43{fill:#0f2312;}.cls-44{fill:url(#linear-gradient-18);}.cls-45{fill:url(#linear-gradient-19);}.cls-46{fill:url(#linear-gradient-20);}.cls-47{fill:url(#linear-gradient-21);}.cls-48{fill:#000b00;}.cls-49{stroke:#414443;stroke-width:2px;}.cls-50{fill:#7f9490;}.cls-51{fill:url(#linear-gradient-22);}.cls-52{fill:url(#linear-gradient-23);}.cls-53{fill:url(#linear-gradient-24);}.cls-54{fill:#7ab47e;}.cls-55{fill:url(#linear-gradient-25);}.cls-56{fill:url(#linear-gradient-26);}.cls-57{fill:url(#linear-gradient-27);}.cls-58{fill:url(#linear-gradient-28);}.cls-59{fill:url(#linear-gradient-29);}.cls-60{fill:url(#linear-gradient-30);}.cls-61{fill:url(#linear-gradient-31);}.cls-62{fill:url(#linear-gradient-32);}.cls-63{fill:url(#linear-gradient-33);}.cls-64{fill:url(#linear-gradient-34);}.cls-65{fill:url(#linear-gradient-35);}.cls-66{fill:url(#linear-gradient-36);}.cls-67{fill:url(#linear-gradient-37);}.cls-68{fill:url(#linear-gradient-38);}.cls-69{fill:url(#linear-gradient-39);}.cls-70{fill:url(#linear-gradient-40);}.cls-71{fill:url(#linear-gradient-41);}.cls-72{fill:url(#linear-gradient-42);}.cls-73{fill:url(#linear-gradient-43);}.cls-74{fill:url(#linear-gradient-44);}.cls-75{fill:url(#linear-gradient-45);}.cls-76{fill:url(#linear-gradient-46);}.cls-77{fill:url(#linear-gradient-47);}.cls-78{fill:url(#linear-gradient-48);}.cls-79{fill:url(#linear-gradient-49);}.cls-80{fill:url(#linear-gradient-50);}.cls-81{fill:url(#linear-gradient-51);}.cls-82{fill:url(#linear-gradient-52);}.cls-83{fill:url(#linear-gradient-53);}.cls-84{fill:url(#linear-gradient-54);}.cls-85{fill:url(#linear-gradient-55);}.cls-86{fill:url(#linear-gradient-56);}.cls-87{fill:url(#linear-gradient-57);}.cls-88{fill:url(#linear-gradient-58);}.cls-89{fill:url(#linear-gradient-59);}.cls-90{fill:url(#linear-gradient-60);}.cls-91{fill:url(#linear-gradient-61);}.cls-92{fill:url(#linear-gradient-62);}.cls-93{fill:url(#linear-gradient-63);}.cls-94{fill:url(#linear-gradient-64);}.cls-95{fill:url(#linear-gradient-65);}.cls-96{fill:url(#linear-gradient-66);}.cls-97{fill:url(#linear-gradient-67);}.cls-98{fill:url(#linear-gradient-68);}.cls-99{fill:url(#linear-gradient-69);}.cls-100{fill:url(#linear-gradient-70);}.cls-101{fill:url(#linear-gradient-71);}.cls-102{fill:url(#linear-gradient-72);}.cls-103{fill:url(#linear-gradient-73);}.cls-104{fill:url(#linear-gradient-74);}.cls-105{fill:url(#linear-gradient-75);}.cls-106{fill:url(#linear-gradient-76);}.cls-107{fill:url(#linear-gradient-77);}.cls-108{fill:url(#linear-gradient-78);}.cls-109{fill:url(#linear-gradient-79);}.cls-110{fill:url(#linear-gradient-80);}.cls-111{fill:url(#linear-gradient-81);}.cls-112{fill:url(#linear-gradient-82);}.cls-113{fill:url(#linear-gradient-83);}.cls-114{fill:url(#linear-gradient-84);}.cls-115{fill:url(#linear-gradient-85);}.cls-116{fill:url(#linear-gradient-86);}.cls-117{fill:url(#linear-gradient-87);}.cls-118{fill:url(#linear-gradient-88);}.cls-119{fill:url(#linear-gradient-89);}.cls-120{fill:url(#linear-gradient-90);}.cls-121{fill:url(#linear-gradient-91);}.cls-122{fill:url(#linear-gradient-92);}.cls-123{fill:url(#linear-gradient-93);}.cls-124{fill:url(#linear-gradient-94);}.cls-125{fill:url(#linear-gradient-95);}.cls-126{fill:#5f8d61;}.cls-127{fill:#274e2c;}.cls-128{fill:url(#linear-gradient-96);}.cls-129{fill:#6b9069;}.cls-130{fill:#b1d4af;}.cls-131{fill:#b8e7b6;}.cls-132{fill:#97c68c;}.cls-133{fill:#94d195;}.cls-134{fill:#a4e1a5;}.cls-135{fill:#90d198;}.cls-136{fill:#ebfff1;}.cls-137{fill:#bcc8b8;}.cls-138{fill:#6e9771;}.cls-139{fill:#325f38;}</style><radialGradient id="radial-gradient" cx="390.46" cy="122.86" fy="115.08899319668848" r="16.19" gradientUnits="userSpaceOnUse"><stop offset="0" stop-color="#75777d"/><stop offset="0.64" stop-color="#36393f"/><stop offset="1" stop-color="#171a20"/></radialGradient><linearGradient id="linear-gradient" x1="382.04" y1="123.61" x2="386.32" y2="123.61" gradientUnits="userSpaceOnUse"><stop offset="0" stop-color="#75777d"/><stop offset="0.01" stop-color="#717379"/><stop offset="0.05" stop-color="#55575d"/><stop offset="0.09" stop-color="#3e4147"/><stop offset="0.14" stop-color="#2d2f35"/><stop offset="0.21" stop-color="#202329"/><stop offset="0.29" stop-color="#191c22"/><stop offset="0.5" stop-color="#171a20"/><stop offset="0.7" stop-color="#191c22"/><stop offset="0.77" stop-color="#202329"/><stop offset="0.82" stop-color="#2c2e35"/><stop offset="0.87" stop-color="#3d3f46"/><stop offset="0.9" stop-color="#53555c"/><stop offset="0.94" stop-color="#6e7077"/><stop offset="0.97" stop-color="#8f9197"/><stop offset="0.99" stop-color="#b4b5bc"/><stop offset="1" stop-color="#bebfc6"/></linearGradient><linearGradient id="linear-gradient-2" x1="394.61" y1="123.61" x2="398.89" y2="123.61" xlink:href="#linear-gradient"/><linearGradient id="linear-gradient-3" x1="388.32" y1="123.77" x2="392.61" y2="123.77" xlink:href="#linear-gradient"/><linearGradient id="linear-gradient-4" x1="363.36" y1="113.13" x2="363.15" y2="138.77" gradientUnits="userSpaceOnUse"><stop offset="0" stop-color="#fff"/><stop offset="0.01" stop-color="#f4f4f4"/><stop offset="0.07" stop-color="#c5c6c7"/><stop offset="0.12" stop-color="#9a9b9e"/><stop offset="0.19" stop-color="#75777b"/><stop offset="0.25" stop-color="#56595d"/><stop offset="0.33" stop-color="#3d4045"/><stop offset="0.41" stop-color="#2a2d32"/><stop offset="0.5" stop-color="#1c1f25"/><stop offset="0.62" stop-color="#14171d"/><stop offset="0.83" stop-color="#12151b"/></linearGradient><radialGradient id="radial-gradient-2" cx="363.26" cy="124.62" r="5.95" xlink:href="#linear-gradient-4"/><linearGradient id="linear-gradient-5" x1="415.1" y1="113.13" x2="414.89" y2="138.77" xlink:href="#linear-gradient-4"/><radialGradient id="radial-gradient-3" cx="415" cy="124.62" r="5.95" xlink:href="#linear-gradient-4"/><linearGradient id="linear-gradient-6" x1="456.14" y1="95.38" x2="456.86" y2="121.38" gradientTransform="matrix(-1, 0, 0, 1, 896.64, 0)" gradientUnits="userSpaceOnUse"><stop offset="0.27" stop-color="#75777d"/><stop offset="0.35" stop-color="#6a6c72"/><stop offset="0.5" stop-color="#4d5056"/><stop offset="0.68" stop-color="#1f2228"/><stop offset="0.71" stop-color="#171a20"/></linearGradient><radialGradient id="radial-gradient-4" cx="137.19" cy="122.86" fy="115.0889931966882" r="16.19" xlink:href="#radial-gradient"/><linearGradient id="linear-gradient-7" x1="128.76" y1="123.61" x2="133.05" y2="123.61" xlink:href="#linear-gradient"/><linearGradient id="linear-gradient-8" x1="141.33" y1="123.61" x2="145.62" y2="123.61" xlink:href="#linear-gradient"/><linearGradient id="linear-gradient-9" x1="135.05" y1="123.77" x2="139.33" y2="123.77" xlink:href="#linear-gradient"/><linearGradient id="linear-gradient-10" x1="110.09" y1="113.13" x2="109.88" y2="138.77" xlink:href="#linear-gradient-4"/><radialGradient id="radial-gradient-5" cx="109.99" cy="124.62" r="5.95" xlink:href="#linear-gradient-4"/><linearGradient id="linear-gradient-11" x1="161.83" y1="113.13" x2="161.62" y2="138.77" xlink:href="#linear-gradient-4"/><radialGradient id="radial-gradient-6" cx="161.73" cy="124.62" r="5.95" xlink:href="#linear-gradient-4"/><linearGradient id="linear-gradient-12" x1="297.56" y1="132.35" x2="297.71" y2="155.63" gradientUnits="userSpaceOnUse"><stop offset="0.33" stop-color="#171a20"/><stop offset="0.39" stop-color="#1a1d23"/><stop offset="0.43" stop-color="#23262b"/><stop offset="0.47" stop-color="#32353a"/><stop offset="0.51" stop-color="#484a4e"/><stop offset="0.54" stop-color="#646669"/><stop offset="0.57" stop-color="#86878a"/><stop offset="0.6" stop-color="#aeafb0"/><stop offset="0.62" stop-color="#cecece"/></linearGradient><linearGradient id="linear-gradient-13" x1="84.3" y1="95.38" x2="85.02" y2="121.38" gradientTransform="matrix(1, 0, 0, 1, 0, 0)" xlink:href="#linear-gradient-6"/><linearGradient id="linear-gradient-14" x1="262.86" y1="101.48" x2="262.86" y2="106.77" gradientUnits="userSpaceOnUse"><stop offset="0" stop-color="#001208"/><stop offset="1" stop-color="#000108"/></linearGradient><linearGradient id="linear-gradient-15" x1="262" y1="99.66" x2="262" y2="117.45" xlink:href="#linear-gradient-14"/><linearGradient id="linear-gradient-16" x1="215.78" y1="106.08" x2="215.78" y2="108.94" gradientUnits="userSpaceOnUse"><stop offset="0" stop-color="#7f9490"/><stop offset="0.31" stop-color="#546c66"/><stop offset="0.6" stop-color="#354e47"/><stop offset="0.83" stop-color="#223c35"/><stop offset="1" stop-color="#1b362e"/></linearGradient><linearGradient id="linear-gradient-17" x1="309.14" y1="106.08" x2="309.14" y2="108.94" gradientTransform="matrix(-1, 0, 0, 1, 618.86, 0)" xlink:href="#linear-gradient-16"/><linearGradient id="linear-gradient-18" x1="140.29" y1="86.44" x2="165.44" y2="86.44" xlink:href="#linear-gradient-16"/><linearGradient id="linear-gradient-19" x1="131.11" y1="64.27" x2="163.71" y2="64.27" xlink:href="#linear-gradient-16"/><linearGradient id="linear-gradient-20" x1="164.96" y1="24.62" x2="166.24" y2="98.34" gradientUnits="userSpaceOnUse"><stop offset="0" stop-color="#5a8f5a"/><stop offset="0.35" stop-color="#73a575"/><stop offset="1" stop-color="#9dcba4"/></linearGradient><linearGradient id="linear-gradient-21" x1="147.1" y1="46.95" x2="165.29" y2="55.57" gradientUnits="userSpaceOnUse"><stop offset="0" stop-color="#123617"/><stop offset="0.18" stop-color="#18401d"/><stop offset="0.47" stop-color="#275b2f"/><stop offset="0.86" stop-color="#3f864a"/><stop offset="1" stop-color="#499856"/></linearGradient><linearGradient id="linear-gradient-22" x1="378.77" y1="24.86" x2="380.06" y2="99.06" gradientTransform="matrix(-1, 0, 0, 1, 739.14, 0)" xlink:href="#linear-gradient-20"/><linearGradient id="linear-gradient-23" x1="360.66" y1="47.27" x2="379.03" y2="55.98" gradientTransform="matrix(-1, 0, 0, 1, 739.14, 0)" xlink:href="#linear-gradient-21"/><linearGradient id="linear-gradient-24" x1="344.91" y1="65.77" x2="377.52" y2="65.77" gradientTransform="matrix(-1, 0, 0, 1, 739.14, 0)" xlink:href="#linear-gradient-16"/><linearGradient id="linear-gradient-25" x1="181.63" y1="29.3" x2="180.74" y2="95.98" gradientUnits="userSpaceOnUse"><stop offset="0" stop-color="#559d5a"/><stop offset="0.98" stop-color="#426c47"/></linearGradient><linearGradient id="linear-gradient-26" x1="181.22" y1="27.78" x2="181.15" y2="33.08" gradientUnits="userSpaceOnUse"><stop offset="0" stop-color="#0e330e"/><stop offset="0.98" stop-color="#2d6b31"/></linearGradient><linearGradient id="linear-gradient-27" x1="180.36" y1="42.47" x2="180.32" y2="45.58" gradientUnits="userSpaceOnUse"><stop offset="0" stop-color="#5e995f"/><stop offset="0.25" stop-color="#417f47"/><stop offset="0.52" stop-color="#2a6b34"/><stop offset="0.77" stop-color="#1c5e28"/><stop offset="0.98" stop-color="#175a24"/></linearGradient><linearGradient id="linear-gradient-28" x1="180.36" y1="49.58" x2="180.32" y2="52.69" xlink:href="#linear-gradient-27"/><linearGradient id="linear-gradient-29" x1="180.36" y1="56.68" x2="180.32" y2="59.79" xlink:href="#linear-gradient-27"/><linearGradient id="linear-gradient-30" x1="180.36" y1="63.79" x2="180.32" y2="66.9" xlink:href="#linear-gradient-27"/><linearGradient id="linear-gradient-31" x1="180.36" y1="78" x2="180.32" y2="81.11" xlink:href="#linear-gradient-27"/><linearGradient id="linear-gradient-32" x1="180.36" y1="35.36" x2="180.32" y2="38.47" xlink:href="#linear-gradient-27"/><linearGradient id="linear-gradient-33" x1="180.36" y1="70.9" x2="180.32" y2="74.01" xlink:href="#linear-gradient-27"/><linearGradient id="linear-gradient-34" x1="180.36" y1="93.09" x2="180.32" y2="96.17" xlink:href="#linear-gradient-27"/><linearGradient id="linear-gradient-35" x1="207.95" y1="29.3" x2="207.07" y2="95.98" xlink:href="#linear-gradient-25"/><linearGradient id="linear-gradient-36" x1="207.54" y1="27.78" x2="207.47" y2="33.08" xlink:href="#linear-gradient-26"/><linearGradient id="linear-gradient-37" x1="206.68" y1="42.47" x2="206.64" y2="45.58" xlink:href="#linear-gradient-27"/><linearGradient id="linear-gradient-38" x1="206.68" y1="49.58" x2="206.64" y2="52.69" xlink:href="#linear-gradient-27"/><linearGradient id="linear-gradient-39" x1="206.68" y1="56.68" x2="206.64" y2="59.79" xlink:href="#linear-gradient-27"/><linearGradient id="linear-gradient-40" x1="206.68" y1="63.79" x2="206.64" y2="66.9" xlink:href="#linear-gradient-27"/><linearGradient id="linear-gradient-41" x1="206.68" y1="78" x2="206.64" y2="81.11" xlink:href="#linear-gradient-27"/><linearGradient id="linear-gradient-42" x1="206.68" y1="35.36" x2="206.64" y2="38.47" xlink:href="#linear-gradient-27"/><linearGradient id="linear-gradient-43" x1="206.68" y1="70.9" x2="206.64" y2="74.01" xlink:href="#linear-gradient-27"/><linearGradient id="linear-gradient-44" x1="206.68" y1="93.09" x2="206.64" y2="96.17" xlink:href="#linear-gradient-27"/><linearGradient id="linear-gradient-45" x1="234.27" y1="29.3" x2="233.39" y2="95.98" xlink:href="#linear-gradient-25"/><linearGradient id="linear-gradient-46" x1="233.86" y1="27.78" x2="233.79" y2="33.08" xlink:href="#linear-gradient-26"/><linearGradient id="linear-gradient-47" x1="233" y1="42.47" x2="232.96" y2="45.58" xlink:href="#linear-gradient-27"/><linearGradient id="linear-gradient-48" x1="233" y1="49.58" x2="232.96" y2="52.69" xlink:href="#linear-gradient-27"/><linearGradient id="linear-gradient-49" x1="233" y1="56.68" x2="232.96" y2="59.79" xlink:href="#linear-gradient-27"/><linearGradient id="linear-gradient-50" x1="233" y1="63.79" x2="232.96" y2="66.9" xlink:href="#linear-gradient-27"/><linearGradient id="linear-gradient-51" x1="233" y1="78" x2="232.96" y2="81.11" xlink:href="#linear-gradient-27"/><linearGradient id="linear-gradient-52" x1="233" y1="35.36" x2="232.96" y2="38.47" xlink:href="#linear-gradient-27"/><linearGradient id="linear-gradient-53" x1="233" y1="70.9" x2="232.96" y2="74.01" xlink:href="#linear-gradient-27"/><linearGradient id="linear-gradient-54" x1="233" y1="93.09" x2="232.96" y2="96.17" xlink:href="#linear-gradient-27"/><linearGradient id="linear-gradient-55" x1="260.59" y1="29.3" x2="259.71" y2="95.98" xlink:href="#linear-gradient-25"/><linearGradient id="linear-gradient-56" x1="260.19" y1="27.78" x2="260.12" y2="33.08" xlink:href="#linear-gradient-26"/><linearGradient id="linear-gradient-57" x1="259.32" y1="42.47" x2="259.28" y2="45.58" xlink:href="#linear-gradient-27"/><linearGradient id="linear-gradient-58" x1="259.32" y1="49.58" x2="259.28" y2="52.69" xlink:href="#linear-gradient-27"/><linearGradient id="linear-gradient-59" x1="259.32" y1="56.68" x2="259.28" y2="59.79" xlink:href="#linear-gradient-27"/><linearGradient id="linear-gradient-60" x1="259.32" y1="63.79" x2="259.28" y2="66.9" xlink:href="#linear-gradient-27"/><linearGradient id="linear-gradient-61" x1="259.32" y1="78" x2="259.28" y2="81.11" xlink:href="#linear-gradient-27"/><linearGradient id="linear-gradient-62" x1="259.32" y1="35.36" x2="259.28" y2="38.47" xlink:href="#linear-gradient-27"/><linearGradient id="linear-gradient-63" x1="259.32" y1="70.9" x2="259.28" y2="74.01" xlink:href="#linear-gradient-27"/><linearGradient id="linear-gradient-64" x1="259.32" y1="93.09" x2="259.28" y2="96.17" xlink:href="#linear-gradient-27"/><linearGradient id="linear-gradient-65" x1="286.91" y1="29.3" x2="286.03" y2="95.98" xlink:href="#linear-gradient-25"/><linearGradient id="linear-gradient-66" x1="286.51" y1="27.78" x2="286.44" y2="33.08" xlink:href="#linear-gradient-26"/><linearGradient id="linear-gradient-67" x1="285.65" y1="42.47" x2="285.6" y2="45.58" xlink:href="#linear-gradient-27"/><linearGradient id="linear-gradient-68" x1="285.65" y1="49.58" x2="285.6" y2="52.69" xlink:href="#linear-gradient-27"/><linearGradient id="linear-gradient-69" x1="285.65" y1="56.68" x2="285.6" y2="59.79" xlink:href="#linear-gradient-27"/><linearGradient id="linear-gradient-70" x1="285.65" y1="63.79" x2="285.6" y2="66.9" xlink:href="#linear-gradient-27"/><linearGradient id="linear-gradient-71" x1="285.65" y1="78" x2="285.6" y2="81.11" xlink:href="#linear-gradient-27"/><linearGradient id="linear-gradient-72" x1="285.65" y1="35.36" x2="285.6" y2="38.47" xlink:href="#linear-gradient-27"/><linearGradient id="linear-gradient-73" x1="285.65" y1="70.9" x2="285.6" y2="74.01" xlink:href="#linear-gradient-27"/><linearGradient id="linear-gradient-74" x1="285.65" y1="93.09" x2="285.6" y2="96.17" xlink:href="#linear-gradient-27"/><linearGradient id="linear-gradient-75" x1="313.23" y1="29.3" x2="312.35" y2="95.98" xlink:href="#linear-gradient-25"/><linearGradient id="linear-gradient-76" x1="312.83" y1="27.78" x2="312.76" y2="33.08" xlink:href="#linear-gradient-26"/><linearGradient id="linear-gradient-77" x1="311.97" y1="42.47" x2="311.93" y2="45.58" xlink:href="#linear-gradient-27"/><linearGradient id="linear-gradient-78" x1="311.97" y1="49.58" x2="311.93" y2="52.69" xlink:href="#linear-gradient-27"/><linearGradient id="linear-gradient-79" x1="311.97" y1="56.68" x2="311.93" y2="59.79" xlink:href="#linear-gradient-27"/><linearGradient id="linear-gradient-80" x1="311.97" y1="63.79" x2="311.93" y2="66.9" xlink:href="#linear-gradient-27"/><linearGradient id="linear-gradient-81" x1="311.97" y1="78" x2="311.93" y2="81.11" xlink:href="#linear-gradient-27"/><linearGradient id="linear-gradient-82" x1="311.97" y1="35.36" x2="311.93" y2="38.47" xlink:href="#linear-gradient-27"/><linearGradient id="linear-gradient-83" x1="311.97" y1="70.9" x2="311.93" y2="74.01" xlink:href="#linear-gradient-27"/><linearGradient id="linear-gradient-84" x1="311.97" y1="93.09" x2="311.93" y2="96.17" xlink:href="#linear-gradient-27"/><linearGradient id="linear-gradient-85" x1="341.21" y1="29.28" x2="340.33" y2="96" xlink:href="#linear-gradient-25"/><linearGradient id="linear-gradient-86" x1="340.81" y1="27.76" x2="340.73" y2="33.1" xlink:href="#linear-gradient-26"/><linearGradient id="linear-gradient-87" x1="339.83" y1="42.45" x2="339.79" y2="45.59" xlink:href="#linear-gradient-27"/><linearGradient id="linear-gradient-88" x1="339.83" y1="49.56" x2="339.79" y2="52.7" xlink:href="#linear-gradient-27"/><linearGradient id="linear-gradient-89" x1="339.83" y1="56.67" x2="339.79" y2="59.81" xlink:href="#linear-gradient-27"/><linearGradient id="linear-gradient-90" x1="339.83" y1="63.78" x2="339.79" y2="66.91" xlink:href="#linear-gradient-27"/><linearGradient id="linear-gradient-91" x1="339.83" y1="77.99" x2="339.79" y2="81.13" xlink:href="#linear-gradient-27"/><linearGradient id="linear-gradient-92" x1="339.83" y1="35.35" x2="339.79" y2="38.49" xlink:href="#linear-gradient-27"/><linearGradient id="linear-gradient-93" x1="339.83" y1="70.88" x2="339.79" y2="74.02" xlink:href="#linear-gradient-27"/><linearGradient id="linear-gradient-94" x1="339.83" y1="93.08" x2="339.79" y2="96.18" xlink:href="#linear-gradient-27"/><linearGradient id="linear-gradient-95" x1="380.64" y1="89.94" x2="380.74" y2="100.22" gradientUnits="userSpaceOnUse"><stop offset="0.46" stop-color="#1b362e"/><stop offset="0.55" stop-color="#223c35"/><stop offset="0.68" stop-color="#354e47"/><stop offset="0.83" stop-color="#546c66"/><stop offset="1" stop-color="#7f9490"/></linearGradient><linearGradient id="linear-gradient-96" x1="261.76" y1="-0.37" x2="261.76" y2="14.2" gradientUnits="userSpaceOnUse"><stop offset="0" stop-color="#499856"/><stop offset="0.54" stop-color="#6bb374"/><stop offset="1" stop-color="#84c78a"/></linearGradient></defs><title>Asset 7</title><g id="Layer_2" data-name="Layer 2"><g id="хлопер"><rect class="cls-1" x="405.17" y="76.55" width="3.88" height="24.43"/><path class="cls-2" d="M409.05,91.87s16.38,15.75,17.45,14.79"/><rect class="cls-3" x="131.43" y="112.34" width="1.62" height="1.14"/><rect class="cls-4" x="133.05" y="112.34" width="3.2" height="1.14"/><rect class="cls-3" x="139.46" y="112.34" width="1.61" height="1.14"/><rect class="cls-5" x="136.25" y="112.34" width="1.6" height="1.14"/><rect class="cls-6" x="137.85" y="112.34" width="1.61" height="1.14"/><rect class="cls-6" x="152.21" y="112.34" width="4.85" height="1.14"/><rect class="cls-7" x="116.96" y="112.34" width="1.66" height="1.14"/><rect class="cls-3" x="384.38" y="112.34" width="1.62" height="1.14"/><rect class="cls-4" x="386" y="112.34" width="3.2" height="1.14"/><rect class="cls-3" x="392.41" y="112.34" width="1.61" height="1.14"/><rect class="cls-5" x="389.2" y="112.34" width="1.6" height="1.14"/><rect class="cls-6" x="390.8" y="112.34" width="1.61" height="1.14"/><rect class="cls-6" x="405.17" y="112.34" width="4.85" height="1.14"/><rect class="cls-7" x="369.92" y="112.34" width="1.66" height="1.14"/><g id="колеса"><rect class="cls-8" x="375.25" y="132.23" width="28.07" height="1.61"/><polygon class="cls-9" points="374.93 132.23 403.64 132.23 411.36 113.48 369.57 113.48 374.93 132.23"/><rect class="cls-10" x="382.04" y="116.8" width="4.29" height="13.61"/><rect class="cls-11" x="394.61" y="116.8" width="4.29" height="13.61"/><rect class="cls-12" x="388.32" y="117.45" width="4.29" height="12.64"/><circle class="cls-13" cx="363.26" cy="125.62" r="13.69"/><circle class="cls-14" cx="363.26" cy="125.62" r="10.55"/><circle class="cls-15" cx="363.26" cy="124.62" r="5.95"/><circle class="cls-13" cx="415" cy="125.62" r="13.69"/><circle class="cls-16" cx="415" cy="125.62" r="10.55"/><circle class="cls-17" cx="415" cy="124.62" r="5.95"/><polygon class="cls-18" points="433.8 111.95 429.84 111.95 429.84 115.8 430.88 115.8 430.88 115.09 432.7 115.09 432.7 113.05 433.8 113.05 433.8 111.95"/><polygon class="cls-19" points="448.8 103.7 448.8 110.94 447.91 110.94 447.91 113.88 437.8 113.88 437.8 112.98 436.84 112.98 436.84 112.02 435.88 112.02 435.88 109.91 431.48 109.91 431.48 105.77 435.77 105.77 435.77 102.77 447.8 102.77 448.8 103.7"/><path class="cls-20" d="M431.87,113.66s8.36,17.46,13.08,14.07"/><rect class="cls-8" x="121.98" y="132.23" width="28.07" height="1.61"/><polygon class="cls-21" points="121.66 132.23 150.37 132.23 158.08 113.48 116.3 113.48 121.66 132.23"/><rect class="cls-22" x="128.76" y="116.8" width="4.29" height="13.61"/><rect class="cls-23" x="141.33" y="116.8" width="4.29" height="13.61"/><rect class="cls-24" x="135.05" y="117.45" width="4.29" height="12.64"/><circle class="cls-13" cx="109.99" cy="125.62" r="13.69"/><circle class="cls-25" cx="109.99" cy="125.62" r="10.55"/><circle class="cls-26" cx="109.99" cy="124.62" r="5.95"/><circle class="cls-13" cx="161.73" cy="125.62" r="13.69"/><circle class="cls-27" cx="161.73" cy="125.62" r="10.55"/><circle class="cls-28" cx="161.73" cy="124.62" r="5.95"/><g id="put"><line class="cls-29" y1="149.2" x2="595.28" y2="149.2"/><line class="cls-30" y1="140.48" x2="595.28" y2="140.48"/><rect class="cls-31" y="140.95" width="595.28" height="6.86"/></g><polygon class="cls-18" points="91 111.95 94.96 111.95 94.96 115.8 93.93 115.8 93.93 115.09 92.11 115.09 92.11 113.05 91 113.05 91 111.95"/><polygon class="cls-32" points="76 103.7 76 110.94 76.89 110.94 76.89 113.88 87 113.88 87 112.98 87.96 112.98 87.96 112.02 88.93 112.02 88.93 109.91 93.32 109.91 93.32 105.77 89.04 105.77 89.04 102.77 77 102.77 76 103.7"/><path class="cls-20" d="M92.93,113.66s-8.36,17.46-13.07,14.07"/><rect class="cls-33" x="92" y="100.98" width="339.86" height="11.36"/></g><polygon class="cls-34" points="184.57 111.94 184.57 118.67 179.14 118.67 179.14 121.91 184.57 121.91 184.57 127.91 251.57 127.91 251.57 121.91 254.57 121.91 254.57 118.67 251.57 118.67 251.57 111.94 184.57 111.94"/><polygon class="cls-34" points="341.71 110.94 341.71 117.67 347.14 117.67 347.14 120.91 341.71 120.91 341.71 126.91 274.71 126.91 274.71 120.91 271.71 120.91 271.71 117.67 274.71 117.67 274.71 110.94 341.71 110.94"/><rect class="cls-35" x="253.14" y="102.48" width="19.43" height="5"/><rect class="cls-36" x="252.71" y="101.05" width="20.25" height="1.43"/><rect class="cls-37" x="261.43" y="101.05" width="1.14" height="16.14"/><rect class="cls-38" x="251.71" y="110.48" width="20.79" height="1.86"/><polygon class="cls-39" points="173 101.05 184.78 111.94 253.14 112.34 253.14 101.05 173 101.05"/><polygon class="cls-40" points="253.14 109.13 181.74 109.13 178.41 106.05 253.14 106.05 253.14 109.13"/><polygon class="cls-39" points="352.5 101.05 340.72 111.94 272.36 112.34 272.36 101.05 352.5 101.05"/><polygon class="cls-41" points="272.36 109.13 343.76 109.13 347.09 106.05 272.36 106.05 272.36 109.13"/><rect class="cls-42" x="192.34" y="102.7" width="3.21" height="4.71"/><rect class="cls-42" x="237.34" y="102.7" width="3.21" height="4.71"/><rect class="cls-42" x="285.55" y="102.7" width="3.21" height="4.71"/><rect class="cls-42" x="329.27" y="102.7" width="3.21" height="4.71"/><polygon class="cls-43" points="113.43 94.34 113.43 92.95 115.25 92.95 115.25 91.23 116.86 91.23 116.86 89.73 128.43 89.73 128.43 94.34 131.11 94.34 131.11 97.77 126.5 97.77 126.5 100.88 124.79 100.88 124.79 99.59 118.25 99.59 118.25 100.88 116.96 100.88 116.96 98.3 115.36 98.3 115.36 96.27 110.64 96.27 110.64 99.05 113.75 99.05 113.75 100.34 115.89 100.34 115.89 102.16 115.89 111.48 95.75 111.48 91.2 106.93 91.2 102.38 99.07 102.38 99.07 96.27 105.71 96.27 113.43 94.34"/><path class="cls-44" d="M165.44,81.11l-23.3,16.66h-1.85l15-10.93.48-2s-9.19-3-3.77-8.37,6.86,6.81,6.86,6.81l5.93-3.47Z"/><polygon class="cls-45" points="131.11 96.63 161.29 33.89 163.71 31.9 132.86 94.64 131.11 96.63"/><polygon class="cls-46" points="161.71 27.18 161.71 34.89 166.29 35 166.29 97.48 168.43 97.48 168.43 27.18 161.71 27.18"/><polygon class="cls-47" points="138 27.18 162.11 27.18 162.11 34 166.39 34 166.39 82.97 138 27.18"/><polygon class="cls-48" points="138 27.18 167 84.85 167 81.99 138.93 27.18 138 27.18"/><line class="cls-49" x1="360.27" y1="79.55" x2="383.14" y2="95.48"/><polygon class="cls-50" points="387.62 27.16 391.14 27.16 390.93 80.09 392.75 80.09 392.75 83.59 394.23 83.59 394.23 86.41 392.75 86.41 392.39 94.63 387.34 94.63 387.62 27.16"/><polygon class="cls-51" points="363.63 27.45 363.63 34.2 359.05 34.3 359.05 98.2 356.91 98.2 356.91 27.45 363.63 27.45"/><polygon class="cls-52" points="387.62 27.16 363.23 27.45 363.23 34.3 358.95 34.3 358.95 83.59 387.62 27.16"/><polygon class="cls-48" points="387.7 28.16 358.34 87.48 358.34 84.6 387.62 27.16 387.7 28.16"/><polygon class="cls-53" points="394.23 97.34 364.05 34.2 361.63 34.2 392.48 97.34 394.23 97.34"/><rect class="cls-54" x="193.95" y="27.27" width="1.61" height="70.5"/><rect class="cls-55" x="168.43" y="27.27" width="25.52" height="70.5"/><rect class="cls-56" x="168.43" y="27.27" width="25.52" height="6.21"/><rect class="cls-57" x="171.39" y="42.46" width="17.89" height="3.11" rx="1.55"/><rect class="cls-58" x="171.39" y="49.57" width="17.89" height="3.11" rx="1.55"/><rect class="cls-59" x="171.39" y="56.68" width="17.89" height="3.11" rx="1.55"/><rect class="cls-60" x="171.39" y="63.79" width="17.89" height="3.11" rx="1.55"/><rect class="cls-61" x="171.39" y="78" width="17.89" height="3.11" rx="1.55"/><rect class="cls-62" x="171.39" y="35.36" width="17.89" height="3.11" rx="1.55"/><rect class="cls-63" x="171.39" y="70.89" width="17.89" height="3.11" rx="1.55"/><rect class="cls-64" x="174.18" y="93.05" width="12.32" height="3.14" rx="1.57"/><rect class="cls-54" x="220.27" y="27.27" width="1.61" height="70.5"/><rect class="cls-65" x="194.75" y="27.27" width="25.52" height="70.5"/><rect class="cls-66" x="194.75" y="27.27" width="25.52" height="6.21"/><rect class="cls-67" x="197.71" y="42.46" width="17.89" height="3.11" rx="1.55"/><rect class="cls-68" x="197.71" y="49.57" width="17.89" height="3.11" rx="1.55"/><rect class="cls-69" x="197.71" y="56.68" width="17.89" height="3.11" rx="1.55"/><rect class="cls-70" x="197.71" y="63.79" width="17.89" height="3.11" rx="1.55"/><rect class="cls-71" x="197.71" y="78" width="17.89" height="3.11" rx="1.55"/><rect class="cls-72" x="197.71" y="35.36" width="17.89" height="3.11" rx="1.55"/><rect class="cls-73" x="197.71" y="70.89" width="17.89" height="3.11" rx="1.55"/><rect class="cls-74" x="200.5" y="93.05" width="12.32" height="3.14" rx="1.57"/><rect class="cls-54" x="246.59" y="27.27" width="1.61" height="70.5"/><rect class="cls-75" x="221.07" y="27.27" width="25.52" height="70.5"/><rect class="cls-76" x="221.07" y="27.27" width="25.52" height="6.21"/><rect class="cls-77" x="224.04" y="42.46" width="17.89" height="3.11" rx="1.55"/><rect class="cls-78" x="224.04" y="49.57" width="17.89" height="3.11" rx="1.55"/><rect class="cls-79" x="224.04" y="56.68" width="17.89" height="3.11" rx="1.55"/><rect class="cls-80" x="224.04" y="63.79" width="17.89" height="3.11" rx="1.55"/><rect class="cls-81" x="224.04" y="78" width="17.89" height="3.11" rx="1.55"/><rect class="cls-82" x="224.04" y="35.36" width="17.89" height="3.11" rx="1.55"/><rect class="cls-83" x="224.04" y="70.89" width="17.89" height="3.11" rx="1.55"/><rect class="cls-84" x="226.82" y="93.05" width="12.32" height="3.14" rx="1.57"/><rect class="cls-54" x="272.91" y="27.27" width="1.61" height="70.5"/><rect class="cls-85" x="247.39" y="27.27" width="25.52" height="70.5"/><rect class="cls-86" x="247.39" y="27.27" width="25.52" height="6.21"/><rect class="cls-87" x="250.36" y="42.46" width="17.89" height="3.11" rx="1.55"/><rect class="cls-88" x="250.36" y="49.57" width="17.89" height="3.11" rx="1.55"/><rect class="cls-89" x="250.36" y="56.68" width="17.89" height="3.11" rx="1.55"/><rect class="cls-90" x="250.36" y="63.79" width="17.89" height="3.11" rx="1.55"/><rect class="cls-91" x="250.36" y="78" width="17.89" height="3.11" rx="1.55"/><rect class="cls-92" x="250.36" y="35.36" width="17.89" height="3.11" rx="1.55"/><rect class="cls-93" x="250.36" y="70.89" width="17.89" height="3.11" rx="1.55"/><rect class="cls-94" x="253.14" y="93.05" width="12.32" height="3.14" rx="1.57"/><rect class="cls-54" x="299.23" y="27.27" width="1.61" height="70.5"/><rect class="cls-95" x="273.71" y="27.27" width="25.52" height="70.5"/><rect class="cls-96" x="273.71" y="27.27" width="25.52" height="6.21"/><rect class="cls-97" x="276.68" y="42.46" width="17.89" height="3.11" rx="1.55"/><rect class="cls-98" x="276.68" y="49.57" width="17.89" height="3.11" rx="1.55"/><rect class="cls-99" x="276.68" y="56.68" width="17.89" height="3.11" rx="1.55"/><rect class="cls-100" x="276.68" y="63.79" width="17.89" height="3.11" rx="1.55"/><rect class="cls-101" x="276.68" y="78" width="17.89" height="3.11" rx="1.55"/><rect class="cls-102" x="276.68" y="35.36" width="17.89" height="3.11" rx="1.55"/><rect class="cls-103" x="276.68" y="70.89" width="17.89" height="3.11" rx="1.55"/><rect class="cls-104" x="279.46" y="93.05" width="12.32" height="3.14" rx="1.57"/><rect class="cls-54" x="325.55" y="27.27" width="1.61" height="70.5"/><rect class="cls-105" x="300.04" y="27.27" width="25.52" height="70.5"/><rect class="cls-106" x="300.04" y="27.27" width="25.52" height="6.21"/><rect class="cls-107" x="303" y="42.46" width="17.89" height="3.11" rx="1.55"/><rect class="cls-108" x="303" y="49.57" width="17.89" height="3.11" rx="1.55"/><rect class="cls-109" x="303" y="56.68" width="17.89" height="3.11" rx="1.55"/><rect class="cls-110" x="303" y="63.79" width="17.89" height="3.11" rx="1.55"/><rect class="cls-111" x="303" y="78" width="17.89" height="3.11" rx="1.55"/><rect class="cls-112" x="303" y="35.36" width="17.89" height="3.11" rx="1.55"/><rect class="cls-113" x="303" y="70.89" width="17.89" height="3.11" rx="1.55"/><rect class="cls-114" x="305.79" y="93.05" width="12.32" height="3.14" rx="1.57"/><rect class="cls-54" x="355.18" y="27.27" width="1.82" height="70.5"/><rect class="cls-115" x="326.36" y="27.27" width="28.83" height="70.5"/><rect class="cls-116" x="326.36" y="27.27" width="28.83" height="6.21"/><rect class="cls-117" x="329.71" y="42.46" width="20.21" height="3.11" rx="1.55"/><rect class="cls-118" x="329.71" y="49.57" width="20.21" height="3.11" rx="1.55"/><rect class="cls-119" x="329.71" y="56.68" width="20.21" height="3.11" rx="1.55"/><rect class="cls-120" x="329.71" y="63.79" width="20.21" height="3.11" rx="1.55"/><rect class="cls-121" x="329.71" y="78" width="20.21" height="3.11" rx="1.55"/><rect class="cls-122" x="329.71" y="35.36" width="20.21" height="3.11" rx="1.55"/><rect class="cls-123" x="329.71" y="70.89" width="20.21" height="3.11" rx="1.55"/><rect class="cls-124" x="332.85" y="93.05" width="13.92" height="3.14" rx="1.56"/><polygon class="cls-125" points="370.25 97.77 370.25 94.63 375.18 94.63 375.18 96.2 376.57 96.2 376.57 97.77 383.14 97.77 383.14 94.63 386.21 94.63 386.21 91.34 389.55 91.34 389.55 94.63 391.16 94.63 391.16 97.77 370.25 97.77"/><rect class="cls-126" x="126.5" y="97.77" width="268.07" height="1.61"/><rect class="cls-127" x="126.5" y="99.37" width="268.07" height="1.68"/><path class="cls-128" d="M142.17,4.48H381.34a2.83,2.83,0,0,1,2.83,2.83v7.17a0,0,0,0,1,0,0H139.33a0,0,0,0,1,0,0V7.32A2.83,2.83,0,0,1,142.17,4.48Z"/><rect class="cls-129" x="134.62" y="23.91" width="254.67" height="1.93"/><rect class="cls-130" x="134.62" y="22.52" width="254.67" height="1.93"/><rect class="cls-131" x="134.62" y="20.86" width="254.67" height="1.93"/><rect class="cls-132" x="139.33" y="19.36" width="244.84" height="1.93"/><rect class="cls-133" x="139.33" y="17.75" width="244.84" height="1.93"/><rect class="cls-134" x="139.33" y="16.09" width="244.84" height="1.93"/><rect class="cls-135" x="139.33" y="14.48" width="244.84" height="1.93"/><rect class="cls-127" x="133.14" y="25.63" width="258.61" height="1.93" rx="0.96"/><rect class="cls-136" x="153.93" width="41.62" height="1.48" rx="0.74"/><rect class="cls-137" x="150.79" y="1.48" width="48.07" height="1.79" rx="0.89"/><rect class="cls-138" x="161.91" width="1.61" height="3.88" rx="0.8"/><rect class="cls-138" x="187.46" width="1.61" height="3.88" rx="0.8"/><rect class="cls-139" x="145.57" y="3.27" width="56.36" height="1.21" rx="0.61"/><rect class="cls-136" x="213.16" width="41.62" height="1.48" rx="0.74"/><rect class="cls-137" x="210.02" y="1.48" width="48.07" height="1.79" rx="0.89"/><rect class="cls-138" x="221.14" width="1.61" height="3.88" rx="0.8"/><rect class="cls-138" x="246.7" width="1.61" height="3.88" rx="0.8"/><rect class="cls-139" x="204.8" y="3.27" width="56.36" height="1.21" rx="0.61"/><rect class="cls-136" x="272.39" width="41.62" height="1.48" rx="0.74"/><rect class="cls-137" x="269.25" y="1.48" width="48.07" height="1.79" rx="0.89"/><rect class="cls-138" x="280.37" width="1.61" height="3.88" rx="0.8"/><rect class="cls-138" x="305.93" width="1.61" height="3.88" rx="0.8"/><rect class="cls-139" x="264.04" y="3.27" width="56.36" height="1.21" rx="0.61"/><rect class="cls-136" x="330.1" width="41.62" height="1.48" rx="0.74"/><rect class="cls-137" x="326.95" y="1.48" width="48.07" height="1.79" rx="0.89"/><rect class="cls-138" x="338.08" width="1.61" height="3.88" rx="0.8"/><rect class="cls-138" x="363.63" width="1.61" height="3.88" rx="0.8"/><rect class="cls-139" x="321.74" y="3.27" width="56.36" height="1.21" rx="0.61"/></g></g></svg>