<svg xmlns="http://www.w3.org/2000/svg" xmlns:xlink="http://www.w3.org/1999/xlink" viewBox="0 0 595.28 130.49"><defs><style>.cls-1{fill:#0c090a;}.cls-2{fill:url(#linear-gradient);}.cls-3{fill:#00864d;}.cls-4{fill:url(#linear-gradient-2);}.cls-5{fill:url(#linear-gradient-3);}.cls-6{fill:url(#linear-gradient-4);}.cls-7{fill:url(#linear-gradient-5);}.cls-8{fill:url(#linear-gradient-6);}.cls-9{fill:url(#linear-gradient-7);}.cls-10{fill:url(#linear-gradient-8);}.cls-11{fill:url(#linear-gradient-9);}.cls-12{fill:#005d1a;}.cls-13{fill:url(#linear-gradient-10);}.cls-14{fill:url(#linear-gradient-11);}.cls-15{fill:url(#linear-gradient-12);}.cls-16{fill:url(#linear-gradient-13);}.cls-17{fill:url(#linear-gradient-14);}.cls-18{fill:url(#linear-gradient-15);}.cls-19{fill:url(#linear-gradient-16);}.cls-20{fill:url(#linear-gradient-17);}.cls-21{fill:url(#linear-gradient-18);}.cls-22{fill:url(#linear-gradient-19);}.cls-23{fill:url(#linear-gradient-20);}.cls-24{fill:url(#linear-gradient-21);}.cls-25{fill:url(#linear-gradient-22);}.cls-26{fill:url(#linear-gradient-23);}.cls-27{fill:url(#linear-gradient-24);}.cls-28{fill:url(#linear-gradient-25);}.cls-29{fill:url(#linear-gradient-26);}.cls-30{fill:url(#linear-gradient-27);}.cls-31{fill:url(#linear-gradient-28);}.cls-32{fill:url(#linear-gradient-29);}.cls-33{fill:url(#linear-gradient-30);}.cls-34{fill:url(#linear-gradient-31);}.cls-35{fill:url(#linear-gradient-32);}.cls-36{fill:url(#linear-gradient-33);}.cls-37{fill:url(#linear-gradient-34);}.cls-38{fill:url(#linear-gradient-35);}.cls-39{fill:url(#linear-gradient-36);}.cls-40{fill:url(#linear-gradient-37);}.cls-41{fill:url(#linear-gradient-38);}.cls-42{fill:url(#linear-gradient-39);}.cls-43{fill:url(#linear-gradient-40);}.cls-44{fill:url(#linear-gradient-41);}.cls-45{fill:url(#linear-gradient-42);}.cls-46{fill:url(#linear-gradient-43);}.cls-47{fill:url(#linear-gradient-44);}.cls-48{fill:url(#linear-gradient-45);}.cls-49,.cls-57,.cls-70,.cls-74,.cls-75{fill:none;}.cls-49{stroke:#232323;stroke-linecap:round;stroke-linejoin:bevel;}.cls-50{fill:#001d0c;}.cls-51{fill:#bebfc6;}.cls-52{fill:#546168;}.cls-53{fill:url(#radial-gradient);}.cls-54{fill:url(#linear-gradient-46);}.cls-55{fill:url(#linear-gradient-47);}.cls-56{fill:url(#linear-gradient-48);}.cls-57{stroke:#12151b;}.cls-57,.cls-70,.cls-71,.cls-74,.cls-75{stroke-miterlimit:10;}.cls-58{fill:url(#linear-gradient-49);}.cls-59,.cls-61,.cls-67,.cls-69{opacity:0.5;}.cls-59{fill:url(#radial-gradient-2);}.cls-60{fill:url(#linear-gradient-50);}.cls-61{fill:url(#radial-gradient-3);}.cls-62{fill:url(#radial-gradient-4);}.cls-63{fill:url(#linear-gradient-51);}.cls-64{fill:url(#linear-gradient-52);}.cls-65{fill:url(#linear-gradient-53);}.cls-66{fill:url(#linear-gradient-54);}.cls-67{fill:url(#radial-gradient-5);}.cls-68{fill:url(#linear-gradient-55);}.cls-69{fill:url(#radial-gradient-6);}.cls-70,.cls-71{stroke:#171a20;}.cls-71{fill:#171a20;stroke-width:2px;}.cls-72{fill:url(#linear-gradient-56);}.cls-73{fill:#232323;}.cls-74{stroke:#5e5e5e;}.cls-75{stroke:#aaa;}.cls-76{fill:url(#linear-gradient-57);}.cls-77{fill:#009253;}.cls-78{fill:url(#linear-gradient-58);}.cls-79{fill:#87b698;}</style><linearGradient id="linear-gradient" x1="107.79" y1="7.06" x2="107.79" y2="83.5" gradientUnits="userSpaceOnUse"><stop offset="0" stop-color="#00a258"/><stop offset="0.19" stop-color="#009c55"/><stop offset="0.42" stop-color="#008d4e"/><stop offset="0.69" stop-color="#007341"/><stop offset="0.97" stop-color="#004e2f"/><stop offset="1" stop-color="#004a2d"/></linearGradient><linearGradient id="linear-gradient-2" x1="113.32" y1="35.98" x2="113.32" y2="39" gradientUnits="userSpaceOnUse"><stop offset="0" stop-color="#00e3a2"/><stop offset="0.11" stop-color="#00d999"/><stop offset="0.31" stop-color="#00be81"/><stop offset="0.56" stop-color="#00925b"/><stop offset="0.86" stop-color="#005626"/><stop offset="1" stop-color="#00370b"/></linearGradient><linearGradient id="linear-gradient-3" x1="113.32" y1="18.1" x2="113.32" y2="21.12" xlink:href="#linear-gradient-2"/><linearGradient id="linear-gradient-4" x1="113.32" y1="57.44" x2="113.32" y2="60.45" xlink:href="#linear-gradient-2"/><linearGradient id="linear-gradient-5" x1="468.39" y1="7.06" x2="468.39" y2="83.5" gradientTransform="matrix(-1, 0, 0, 1, 960.21, 0)" xlink:href="#linear-gradient"/><linearGradient id="linear-gradient-6" x1="473.93" y1="35.98" x2="473.93" y2="39" gradientTransform="matrix(1, 0, 0, -1, 12.36, 74.01)" xlink:href="#linear-gradient-2"/><linearGradient id="linear-gradient-7" x1="473.93" y1="18.1" x2="473.93" y2="21.12" gradientTransform="matrix(1, 0, 0, -1, 12.36, 38.25)" xlink:href="#linear-gradient-2"/><linearGradient id="linear-gradient-8" x1="473.93" y1="57.44" x2="473.93" y2="60.45" gradientTransform="matrix(1, 0, 0, -1, 12.36, 116.93)" xlink:href="#linear-gradient-2"/><linearGradient id="linear-gradient-9" x1="204.66" y1="11.18" x2="204.66" y2="79.42" xlink:href="#linear-gradient"/><linearGradient id="linear-gradient-10" x1="225.94" y1="45.22" x2="229.49" y2="45.22" gradientUnits="userSpaceOnUse"><stop offset="0" stop-color="#00a258"/><stop offset="0.24" stop-color="#00a057"/><stop offset="0.33" stop-color="#009954"/><stop offset="0.39" stop-color="#008e4e"/><stop offset="0.44" stop-color="#007d46"/><stop offset="0.48" stop-color="#00673b"/><stop offset="0.52" stop-color="#004c2e"/><stop offset="0.53" stop-color="#004a2d"/></linearGradient><linearGradient id="linear-gradient-11" x1="204.5" y1="16.89" x2="204.5" y2="21.38" gradientUnits="userSpaceOnUse"><stop offset="0" stop-color="#00e3a2"/><stop offset="0.16" stop-color="#00bf82"/><stop offset="0.45" stop-color="#00854f"/><stop offset="0.69" stop-color="#005b2a"/><stop offset="0.89" stop-color="#004113"/><stop offset="1" stop-color="#00370b"/></linearGradient><linearGradient id="linear-gradient-12" x1="204.5" y1="35.28" x2="204.5" y2="39.77" xlink:href="#linear-gradient-11"/><linearGradient id="linear-gradient-13" x1="204.5" y1="56.56" x2="204.5" y2="61.05" xlink:href="#linear-gradient-11"/><linearGradient id="linear-gradient-14" x1="251.25" y1="11.18" x2="251.25" y2="79.42" xlink:href="#linear-gradient"/><linearGradient id="linear-gradient-15" x1="272.52" y1="45.22" x2="276.08" y2="45.22" xlink:href="#linear-gradient-10"/><linearGradient id="linear-gradient-16" x1="251.09" y1="16.89" x2="251.09" y2="21.38" xlink:href="#linear-gradient-11"/><linearGradient id="linear-gradient-17" x1="251.09" y1="35.28" x2="251.09" y2="39.77" xlink:href="#linear-gradient-11"/><linearGradient id="linear-gradient-18" x1="251.09" y1="56.56" x2="251.09" y2="61.05" xlink:href="#linear-gradient-11"/><linearGradient id="linear-gradient-19" x1="298.25" y1="11.18" x2="298.25" y2="79.42" xlink:href="#linear-gradient"/><linearGradient id="linear-gradient-20" x1="319.52" y1="45.22" x2="323.08" y2="45.22" xlink:href="#linear-gradient-10"/><linearGradient id="linear-gradient-21" x1="298.09" y1="16.89" x2="298.09" y2="21.38" xlink:href="#linear-gradient-11"/><linearGradient id="linear-gradient-22" x1="298.09" y1="35.28" x2="298.09" y2="39.77" xlink:href="#linear-gradient-11"/><linearGradient id="linear-gradient-23" x1="298.09" y1="56.56" x2="298.09" y2="61.05" xlink:href="#linear-gradient-11"/><linearGradient id="linear-gradient-24" x1="344.25" y1="11.18" x2="344.25" y2="79.42" xlink:href="#linear-gradient"/><linearGradient id="linear-gradient-25" x1="365.52" y1="45.22" x2="369.08" y2="45.22" xlink:href="#linear-gradient-10"/><linearGradient id="linear-gradient-26" x1="344.09" y1="16.89" x2="344.09" y2="21.38" xlink:href="#linear-gradient-11"/><linearGradient id="linear-gradient-27" x1="344.09" y1="35.28" x2="344.09" y2="39.77" xlink:href="#linear-gradient-11"/><linearGradient id="linear-gradient-28" x1="344.09" y1="56.56" x2="344.09" y2="61.05" xlink:href="#linear-gradient-11"/><linearGradient id="linear-gradient-29" x1="390.37" y1="11.18" x2="390.37" y2="79.42" xlink:href="#linear-gradient"/><linearGradient id="linear-gradient-30" x1="411.64" y1="45.22" x2="415.2" y2="45.22" xlink:href="#linear-gradient-10"/><linearGradient id="linear-gradient-31" x1="390.21" y1="16.89" x2="390.21" y2="21.38" xlink:href="#linear-gradient-11"/><linearGradient id="linear-gradient-32" x1="390.21" y1="35.28" x2="390.21" y2="39.77" xlink:href="#linear-gradient-11"/><linearGradient id="linear-gradient-33" x1="390.21" y1="56.56" x2="390.21" y2="61.05" xlink:href="#linear-gradient-11"/><linearGradient id="linear-gradient-34" x1="437.41" y1="11.18" x2="437.41" y2="79.42" xlink:href="#linear-gradient"/><linearGradient id="linear-gradient-35" x1="458.69" y1="45.22" x2="462.24" y2="45.22" xlink:href="#linear-gradient-10"/><linearGradient id="linear-gradient-36" x1="437.25" y1="16.89" x2="437.25" y2="21.38" xlink:href="#linear-gradient-11"/><linearGradient id="linear-gradient-37" x1="437.25" y1="35.28" x2="437.25" y2="39.77" xlink:href="#linear-gradient-11"/><linearGradient id="linear-gradient-38" x1="437.25" y1="56.56" x2="437.25" y2="61.05" xlink:href="#linear-gradient-11"/><linearGradient id="linear-gradient-39" x1="158.66" y1="11.18" x2="158.66" y2="79.42" xlink:href="#linear-gradient"/><linearGradient id="linear-gradient-40" x1="179.94" y1="45.22" x2="183.49" y2="45.22" xlink:href="#linear-gradient-10"/><linearGradient id="linear-gradient-41" x1="158.5" y1="16.89" x2="158.5" y2="21.38" xlink:href="#linear-gradient-11"/><linearGradient id="linear-gradient-42" x1="158.5" y1="35.28" x2="158.5" y2="39.77" xlink:href="#linear-gradient-11"/><linearGradient id="linear-gradient-43" x1="158.5" y1="56.56" x2="158.5" y2="61.05" xlink:href="#linear-gradient-11"/><linearGradient id="linear-gradient-44" x1="135.67" y1="51.81" x2="139.22" y2="51.81" xlink:href="#linear-gradient-10"/><linearGradient id="linear-gradient-45" x1="499.59" y1="78.15" x2="500.3" y2="104.15" gradientTransform="matrix(-1, 0, 0, 1, 1030.18, 0)" gradientUnits="userSpaceOnUse"><stop offset="0.27" stop-color="#75777d"/><stop offset="0.35" stop-color="#6a6c72"/><stop offset="0.5" stop-color="#4d5056"/><stop offset="0.68" stop-color="#1f2228"/><stop offset="0.71" stop-color="#171a20"/></linearGradient><radialGradient id="radial-gradient" cx="137.32" cy="104.65" fy="96.88365210554711" r="16.19" gradientUnits="userSpaceOnUse"><stop offset="0" stop-color="#75777d"/><stop offset="0.64" stop-color="#36393f"/><stop offset="1" stop-color="#171a20"/></radialGradient><linearGradient id="linear-gradient-46" x1="128.89" y1="105.4" x2="133.18" y2="105.4" gradientUnits="userSpaceOnUse"><stop offset="0" stop-color="#75777d"/><stop offset="0.01" stop-color="#717379"/><stop offset="0.05" stop-color="#55575d"/><stop offset="0.09" stop-color="#3e4147"/><stop offset="0.14" stop-color="#2d2f35"/><stop offset="0.21" stop-color="#202329"/><stop offset="0.29" stop-color="#191c22"/><stop offset="0.5" stop-color="#171a20"/><stop offset="0.7" stop-color="#191c22"/><stop offset="0.77" stop-color="#202329"/><stop offset="0.82" stop-color="#2c2e35"/><stop offset="0.87" stop-color="#3d3f46"/><stop offset="0.9" stop-color="#53555c"/><stop offset="0.94" stop-color="#6e7077"/><stop offset="0.97" stop-color="#8f9197"/><stop offset="0.99" stop-color="#b4b5bc"/><stop offset="1" stop-color="#bebfc6"/></linearGradient><linearGradient id="linear-gradient-47" x1="141.46" y1="105.4" x2="145.75" y2="105.4" xlink:href="#linear-gradient-46"/><linearGradient id="linear-gradient-48" x1="135.18" y1="105.56" x2="139.46" y2="105.56" xlink:href="#linear-gradient-46"/><linearGradient id="linear-gradient-49" x1="110.22" y1="94.92" x2="110.01" y2="120.57" gradientUnits="userSpaceOnUse"><stop offset="0" stop-color="#fff"/><stop offset="0.01" stop-color="#f4f4f4"/><stop offset="0.07" stop-color="#c5c6c7"/><stop offset="0.12" stop-color="#9a9b9e"/><stop offset="0.19" stop-color="#75777b"/><stop offset="0.25" stop-color="#56595d"/><stop offset="0.33" stop-color="#3d4045"/><stop offset="0.41" stop-color="#2a2d32"/><stop offset="0.5" stop-color="#1c1f25"/><stop offset="0.62" stop-color="#14171d"/><stop offset="0.83" stop-color="#12151b"/></linearGradient><radialGradient id="radial-gradient-2" cx="110.12" cy="106.42" r="5.95" xlink:href="#linear-gradient-49"/><linearGradient id="linear-gradient-50" x1="161.96" y1="94.92" x2="161.75" y2="120.57" xlink:href="#linear-gradient-49"/><radialGradient id="radial-gradient-3" cx="161.86" cy="106.42" r="5.95" xlink:href="#linear-gradient-49"/><radialGradient id="radial-gradient-4" cx="452.46" cy="104.65" r="16.19" xlink:href="#radial-gradient"/><linearGradient id="linear-gradient-51" x1="444.04" y1="105.4" x2="448.32" y2="105.4" xlink:href="#linear-gradient-46"/><linearGradient id="linear-gradient-52" x1="456.61" y1="105.4" x2="460.89" y2="105.4" xlink:href="#linear-gradient-46"/><linearGradient id="linear-gradient-53" x1="450.32" y1="105.56" x2="454.61" y2="105.56" xlink:href="#linear-gradient-46"/><linearGradient id="linear-gradient-54" x1="425.36" y1="94.92" x2="425.15" y2="120.57" xlink:href="#linear-gradient-49"/><radialGradient id="radial-gradient-5" cx="425.26" cy="106.42" r="5.95" xlink:href="#linear-gradient-49"/><linearGradient id="linear-gradient-55" x1="477.1" y1="94.92" x2="476.89" y2="120.57" xlink:href="#linear-gradient-49"/><radialGradient id="radial-gradient-6" cx="477" cy="106.42" r="5.95" xlink:href="#linear-gradient-49"/><linearGradient id="linear-gradient-56" x1="76.3" y1="78.17" x2="77.02" y2="104.17" gradientTransform="matrix(1, 0, 0, 1, 0, 0)" xlink:href="#linear-gradient-45"/><linearGradient id="linear-gradient-57" x1="297.56" y1="113.14" x2="297.71" y2="136.43" gradientUnits="userSpaceOnUse"><stop offset="0.33" stop-color="#171a20"/><stop offset="0.39" stop-color="#1a1d23"/><stop offset="0.43" stop-color="#23262b"/><stop offset="0.47" stop-color="#32353a"/><stop offset="0.51" stop-color="#484a4e"/><stop offset="0.54" stop-color="#646669"/><stop offset="0.57" stop-color="#86878a"/><stop offset="0.6" stop-color="#aeafb0"/><stop offset="0.62" stop-color="#cecece"/></linearGradient><linearGradient id="linear-gradient-58" x1="299.27" y1="3.5" x2="299.28" y2="6.03" gradientUnits="userSpaceOnUse"><stop offset="0.18" stop-color="#1d3514"/><stop offset="0.48" stop-color="#1b3815"/><stop offset="0.66" stop-color="#14401a"/><stop offset="0.81" stop-color="#074e22"/><stop offset="0.87" stop-color="#005727"/></linearGradient></defs><title>Layer 8 (2)</title><g id="Layer_2" data-name="Layer 2"><g id="полувагон"><g id="Layer_8" data-name="Layer 8"><rect class="cls-1" x="76.79" y="84.99" width="444.54" height="8.57"/><polygon class="cls-2" points="137.29 85.96 89.86 85.96 78.29 85.96 78.29 4.74 137.29 4.74 137.29 85.96"/><rect class="cls-3" x="77.71" y="4.74" width="1.29" height="81.4"/><rect class="cls-4" x="98" y="34.32" width="30.64" height="5.36" rx="0.62"/><rect class="cls-5" x="98" y="16.44" width="30.64" height="5.36" rx="0.62"/><rect class="cls-6" x="98" y="55.78" width="30.64" height="5.36" rx="0.62"/><polygon class="cls-7" points="462.32 85.96 509.75 85.96 521.32 85.96 521.32 4.74 462.32 4.74 462.32 85.96"/><rect class="cls-3" x="520.61" y="4.74" width="1.29" height="81.4" transform="translate(1042.5 90.87) rotate(-180)"/><rect class="cls-8" x="470.96" y="34.32" width="30.64" height="5.36" rx="0.62" transform="translate(972.57 74.01) rotate(-180)"/><rect class="cls-9" x="470.96" y="16.44" width="30.64" height="5.36" rx="0.62" transform="translate(972.57 38.25) rotate(-180)"/><rect class="cls-10" x="470.96" y="55.78" width="30.64" height="5.36" rx="0.62" transform="translate(972.57 116.93) rotate(-180)"/><rect class="cls-11" x="183.82" y="4.48" width="41.68" height="81.48"/><rect class="cls-12" x="183" y="4.48" width="1.04" height="81.48"/><rect class="cls-13" x="225.18" y="4.48" width="4.82" height="81.48"/><rect class="cls-14" x="189.29" y="16.44" width="30.43" height="5.36"/><rect class="cls-15" x="189.29" y="34.84" width="30.43" height="5.36"/><rect class="cls-16" x="189.29" y="56.12" width="30.43" height="5.36"/><rect class="cls-17" x="230.41" y="4.48" width="41.68" height="81.48"/><rect class="cls-12" x="229.59" y="4.48" width="1.04" height="81.48"/><rect class="cls-18" x="271.77" y="4.48" width="4.82" height="81.48"/><rect class="cls-19" x="235.88" y="16.44" width="30.43" height="5.36"/><rect class="cls-20" x="235.88" y="34.84" width="30.43" height="5.36"/><rect class="cls-21" x="235.88" y="56.12" width="30.43" height="5.36"/><rect class="cls-22" x="277.41" y="4.48" width="41.68" height="81.48"/><rect class="cls-12" x="276.59" y="4.48" width="1.04" height="81.48"/><rect class="cls-23" x="318.77" y="4.48" width="4.82" height="81.48"/><rect class="cls-24" x="282.88" y="16.44" width="30.43" height="5.36"/><rect class="cls-25" x="282.88" y="34.84" width="30.43" height="5.36"/><rect class="cls-26" x="282.88" y="56.12" width="30.43" height="5.36"/><rect class="cls-27" x="323.41" y="4.48" width="41.68" height="81.48"/><rect class="cls-12" x="322.59" y="4.48" width="1.04" height="81.48"/><rect class="cls-28" x="364.77" y="4.48" width="4.82" height="81.48"/><rect class="cls-29" x="328.88" y="16.44" width="30.43" height="5.36"/><rect class="cls-30" x="328.88" y="34.84" width="30.43" height="5.36"/><rect class="cls-31" x="328.88" y="56.12" width="30.43" height="5.36"/><rect class="cls-32" x="369.53" y="4.48" width="41.68" height="81.48"/><rect class="cls-12" x="368.71" y="4.48" width="1.04" height="81.48"/><rect class="cls-33" x="410.89" y="4.48" width="4.82" height="81.48"/><rect class="cls-34" x="374.99" y="16.44" width="30.43" height="5.36"/><rect class="cls-35" x="374.99" y="34.84" width="30.43" height="5.36"/><rect class="cls-36" x="374.99" y="56.12" width="30.43" height="5.36"/><rect class="cls-37" x="416.57" y="4.48" width="41.68" height="81.48"/><rect class="cls-12" x="415.75" y="4.48" width="1.04" height="81.48"/><rect class="cls-38" x="457.93" y="4.48" width="4.82" height="81.48"/><rect class="cls-39" x="422.04" y="16.44" width="30.43" height="5.36"/><rect class="cls-40" x="422.04" y="34.84" width="30.43" height="5.36"/><rect class="cls-41" x="422.04" y="56.12" width="30.43" height="5.36"/><rect class="cls-42" x="137.82" y="4.48" width="41.68" height="81.48"/><rect class="cls-12" x="137" y="4.48" width="1.04" height="81.48"/><rect class="cls-43" x="179.18" y="4.48" width="4.82" height="81.48"/><rect class="cls-44" x="143.29" y="16.44" width="30.43" height="5.36"/><rect class="cls-45" x="143.29" y="34.84" width="30.43" height="5.36"/><rect class="cls-46" x="143.29" y="56.12" width="30.43" height="5.36"/><rect class="cls-47" x="134.91" y="17.63" width="4.82" height="68.36"/><polygon class="cls-48" points="539.75 86.49 539.75 93.73 538.86 93.73 538.86 96.67 528.75 96.67 528.75 95.78 527.79 95.78 527.79 94.81 526.82 94.81 526.82 92.7 520.71 92.7 520.71 88.56 526.71 88.56 526.71 85.56 538.75 85.56 539.75 86.49"/><path class="cls-49" d="M520.71,95.85s9.52,16,16.43,13.43"/><rect class="cls-50" x="85.27" y="90.13" width="436.05" height="5.14"/><polygon class="cls-51" points="122.96 99.67 122.96 101.68 124.01 101.68 124.01 103.71 125 103.71 125 99.67 122.96 99.67"/><rect class="cls-51" x="119.99" y="95.73" width="12" height="0.94"/><polygon class="cls-51" points="149.9 99.67 149.9 101.68 148.86 101.68 148.86 103.71 147.87 103.71 147.87 99.67 149.9 99.67"/><rect class="cls-51" x="140.88" y="95.73" width="12" height="0.94"/><rect class="cls-52" x="122.11" y="114.03" width="28.07" height="1.61"/><polygon class="cls-53" points="121.79 114.03 150.5 114.03 158.21 95.28 116.43 95.28 121.79 114.03"/><rect class="cls-54" x="128.89" y="98.6" width="4.29" height="13.61"/><rect class="cls-55" x="141.46" y="98.6" width="4.29" height="13.61"/><rect class="cls-56" x="135.18" y="99.24" width="4.29" height="12.64"/><circle class="cls-57" cx="110.12" cy="107.42" r="13.69"/><circle class="cls-58" cx="110.12" cy="107.42" r="10.55"/><circle class="cls-59" cx="110.12" cy="106.42" r="5.95"/><circle class="cls-57" cx="161.86" cy="107.42" r="13.69"/><circle class="cls-60" cx="161.86" cy="107.42" r="10.55"/><circle class="cls-61" cx="161.86" cy="106.42" r="5.95"/><rect class="cls-52" x="437.25" y="114.03" width="28.07" height="1.61"/><polygon class="cls-62" points="436.93 114.03 465.64 114.03 473.36 95.28 431.57 95.28 436.93 114.03"/><rect class="cls-63" x="444.04" y="98.6" width="4.29" height="13.61"/><rect class="cls-64" x="456.61" y="98.6" width="4.29" height="13.61"/><rect class="cls-65" x="450.32" y="99.24" width="4.29" height="12.64"/><circle class="cls-57" cx="425.26" cy="107.42" r="13.69"/><circle class="cls-66" cx="425.26" cy="107.42" r="10.55"/><circle class="cls-67" cx="425.26" cy="106.42" r="5.95"/><circle class="cls-57" cx="477" cy="107.42" r="13.69"/><circle class="cls-68" cx="477" cy="107.42" r="10.55"/><circle class="cls-69" cx="477" cy="106.42" r="5.95"/><polyline class="cls-70" points="91.29 94.2 91.29 105.92 97.64 105.92"/><line class="cls-71" x1="91.64" y1="98.6" x2="101.5" y2="98.6"/><polygon class="cls-50" points="83 94.74 86.96 94.74 86.96 98.6 85.93 98.6 85.93 97.88 84.11 97.88 84.11 95.85 83 95.85 83 94.74"/><polygon class="cls-50" points="522.7 93.74 518.73 93.74 518.73 97.6 519.77 97.6 519.77 96.88 521.59 96.88 521.59 94.85 522.7 94.85 522.7 93.74"/><polygon class="cls-72" points="68 86.49 68 93.73 68.89 93.73 68.89 96.67 79 96.67 79 95.78 79.96 95.78 79.96 94.81 80.93 94.81 80.93 92.7 85.32 92.7 85.32 88.56 81.04 88.56 81.04 85.56 69 85.56 68 86.49"/><path class="cls-49" d="M84.93,96.46s-8.36,17.46-13.07,14.07"/><path class="cls-73" d="M245,94.49v5.29h6.79v-1h1.85v1h1.07v.78h1.22V98.78h33.14v1.78h1.86v1.07H292v3.15h.9v-2.07H301v2.07h1v-2.15h14v.93h4.34V98.63h11.8v1.86h1.7v1.29h26s2-1.57,2-3.22a4,4,0,0,0-3.78-3.78H333.12v2.71h-12V96.35h2.65V95.28h-7.86v5.21h-3V97.35h-6.78v1.5h5.71v2.86h-9.79V94.85H290v1.36h-2.07v1.5H255.79V94.13H255v3.29h-2.86V94.13Z"/><g id="put"><line class="cls-74" y1="129.99" x2="595.28" y2="129.99"/><line class="cls-75" y1="121.28" x2="595.28" y2="121.28"/><rect class="cls-76" y="121.74" width="595.28" height="6.86"/></g><rect class="cls-77" x="76.66" y="0.99" width="445.23" height="1.98"/><rect class="cls-78" x="76.66" y="2.99" width="445.23" height="2.98"/><rect class="cls-79" x="76.66" width="445.23" height="0.99"/></g></g></g></svg>