<svg xmlns="http://www.w3.org/2000/svg" viewBox="0 0 1010.05 526.71"><defs><style>.cls-1{fill:#fdfefe;}.cls-2{fill:#be202c;}.cls-3{fill:#fff;}.cls-4{fill:#424146;}</style></defs><title>1</title><g id="Layer_2" data-name="Layer 2"><g id="Layer_7" data-name="Layer 7"><rect class="cls-1" x="5.03" y="5.03" width="1000" height="315.84" rx="33.33"/><path class="cls-2" d="M971.69,325.89H38.36A38.41,38.41,0,0,1,0,287.53V38.36A38.41,38.41,0,0,1,38.36,0H971.69a38.41,38.41,0,0,1,38.36,38.36V287.53A38.41,38.41,0,0,1,971.69,325.89ZM38.36,10.05A28.34,28.34,0,0,0,10.05,38.36V287.53a28.34,28.34,0,0,0,28.31,28.31H971.69A28.34,28.34,0,0,0,1000,287.53V38.36a28.34,28.34,0,0,0-28.31-28.31Z"/><path class="cls-2" d="M275.87,108.2a51.52,51.52,0,0,1,28.64-8.2c18.83,0,31.87,9.8,31.87,26.52,0,13.35-9.66,23.48-22.37,26.37v.32c15.28,1.61,26.39,11.58,26.39,27.18,0,22.51-19.47,31.51-39.27,31.51-9.81,0-20.11-2.09-28.32-7.07l3.7-10.94a52.61,52.61,0,0,0,24.3,6.59c16.09,0,24.94-8.68,24.94-20.58,0-16.23-15.6-20.9-29.44-20.9h-6.44V148.39h6.44c14.32,0,25.42-8.84,25.42-19.94,0-10.93-7.72-17-19.47-17-8.21,0-16.74,3.38-22.53,7.08Z"/><path class="cls-2" d="M401.87,210.13l-1.13-9.81h-.48c-4.35,6.11-12.71,11.58-23.82,11.58-15.77,0-23.81-11.09-23.81-22.35,0-18.81,16.73-29.1,46.82-28.94V159c0-6.43-1.77-18-17.7-18a38.88,38.88,0,0,0-20.27,5.79l-3.22-9.32c6.44-4.18,15.77-6.92,25.58-6.92,23.82,0,29.61,16.24,29.61,31.84v29.1a110,110,0,0,0,1.29,18.65Zm-2.09-39.71c-15.45-.32-33,2.41-33,17.52,0,9.17,6.11,13.51,13.35,13.51a19.38,19.38,0,0,0,18.83-13,14.9,14.9,0,0,0,.81-4.51Z"/><path class="cls-2" d="M494.23,210.13h-14V177.49H469.77c-5.95,0-10,1.61-13,4.34-5.79,4.67-7.89,14.31-10.94,21.87a49.38,49.38,0,0,1-3.22,6.43H427.45a51,51,0,0,0,4.83-8.84c3.38-7.56,5.31-17.69,12.23-23.48a18.62,18.62,0,0,1,8.85-4.5v-.48c-10.14-1.13-20.6-7.4-20.6-19.29,0-8,4.35-13.51,10.3-16.89,6.44-3.69,15.93-5.3,26.07-5.3a215.72,215.72,0,0,1,25.1,1.61Zm-14-68.49a79.34,79.34,0,0,0-11.74-.81c-9.66,0-21.08,2.74-21.08,13.51,0,10,12.39,13.51,20.75,13.51h12.07Z"/><path class="cls-2" d="M516.92,133.28a165.34,165.34,0,0,1,24.78-1.77c13,0,34.6,2.09,34.6,19.45,0,9.65-7.4,15.6-16.25,17.53v.32c11.42,1.61,19.79,8,19.79,19.29,0,20.42-25.75,23-41,23-8.69,0-17.7-.65-21.89-1Zm13.36,67.53a86.18,86.18,0,0,0,11.42.64c9.5,0,23.66-2.25,23.66-13.51s-11.27-13.66-24.78-13.66h-10.3Zm.16-35.86h10.62c10.46,0,21.24-3,21.24-12.22,0-7.72-6.76-11.41-20.92-11.41a100.71,100.71,0,0,0-10.94.64Z"/><path class="cls-2" d="M611.7,132.31v33.77h3.38l29.29-33.77h17.22l-34,35.21c12.56,1.29,20.12,9.65,26.23,23.64,2.1,5.14,4.83,12.7,8.37,19h-14.8a102.57,102.57,0,0,1-7.24-15.92c-5.31-12.54-12.56-18.33-25.75-18.33H611.7v34.25h-14V132.31Z"/><path class="cls-2" d="M719.52,210.13l-1.13-9.81h-.48c-4.35,6.11-12.72,11.58-23.82,11.58-15.77,0-23.82-11.09-23.82-22.35,0-18.81,16.74-29.1,46.83-28.94V159c0-6.43-1.77-18-17.7-18a38.88,38.88,0,0,0-20.27,5.79l-3.22-9.32c6.43-4.18,15.77-6.92,25.58-6.92,23.82,0,29.61,16.24,29.61,31.84v29.1a109,109,0,0,0,1.29,18.65Zm-2.1-39.71c-15.44-.32-33,2.41-33,17.52,0,9.17,6.11,13.51,13.35,13.51a19.38,19.38,0,0,0,18.83-13,14.88,14.88,0,0,0,.8-4.51Z"/><path class="cls-3" d="M626.39,221.62l85.51,222a2.09,2.09,0,0,0,3.54.6l41.87-49.37a2.08,2.08,0,0,1,3.06-.13L887.71,521.09a2.08,2.08,0,0,0,2.94,0l40-39.91a2.08,2.08,0,0,0,0-2.95l-125-124.89a2.08,2.08,0,0,1,.23-3.14l52-38.69a2.08,2.08,0,0,0-.49-3.61l-228.3-89A2.09,2.09,0,0,0,626.39,221.62Z"/><path class="cls-4" d="M889.18,526.71a7.09,7.09,0,0,1-5-2.05L759.08,400.49l-39.81,46.94a7.11,7.11,0,0,1-12.06-2.05l-85.51-222a7.11,7.11,0,0,1,9.22-9.17L859.23,303.2a7.11,7.11,0,0,1,1.66,12.33l-49.31,36.66L934.16,474.66a7.11,7.11,0,0,1,0,10.06l-39.94,39.92A7.12,7.12,0,0,1,889.18,526.71ZM758.89,389.05a7.15,7.15,0,0,1,5,2.06L889.17,515.46,925,479.69,802.06,356.89a7.12,7.12,0,0,1,.79-10.74l47.77-35.51L633.48,226l81.33,211.12,38.66-45.59a7.11,7.11,0,0,1,5.12-2.5ZM631.08,219.81h0Z"/></g></g></svg>