<svg xmlns="http://www.w3.org/2000/svg" viewBox="0 0 711.38 821.15"><defs><style>.cls-1{fill:#fff;}.cls-2{fill:#424146;}.cls-3{fill:#be222c;}.cls-4{fill:#fdfefe;}.cls-5{fill:#be202c;}</style></defs><title>2</title><g id="Layer_2" data-name="Layer 2"><g id="Layer_2-2" data-name="Layer 2"><path class="cls-1" d="M414.94,541.77S569.07,551.69,569.07,419,580.79,5,360,5,130.59,214.68,130.59,418.52C130.59,507,246,542.21,293.78,541.77"/><path class="cls-2" d="M422.67,547c-4.61,0-7.48-.17-8.05-.21l.64-10c.73,0,73.86,4.17,117-36.34C553.35,480.64,564,453.24,564,419c0-6.11,0-12.53.05-19.22.19-49,.45-116.16-9.4-179.34-11.6-74.37-34.19-127.54-69.08-162.56C454,26.14,411.75,10.05,360,10.05c-97.07,0-160.14,41.57-192.81,127.08C138,213.49,135.61,313.81,135.61,418.52c0,25.14,9.84,47.63,29.24,66.85C201.09,521.29,262,537,293.74,536.74l.09,10.06c-33.43.3-97.76-16.34-136.06-54.29-21.37-21.18-32.21-46.07-32.21-74,0-105.69,2.47-207,32.25-285C192.15,43.68,258.29,0,360,0c54.51,0,99.16,17.08,132.72,50.78,36.44,36.57,60,91.56,71.89,168.1,10,64,9.72,131.57,9.53,180.93,0,6.68-.06,13.09-.06,19.18,0,37.16-11.76,67-35,88.8C501.06,543.48,443.75,547,422.67,547Z"/><path class="cls-1" d="M352.71,528.49c178.86,0,165.87-281.14,165.87-281.14s-93,11.53-131.25-41.83v44.71s-88.47-6.49-88.47-44.71v49s-73.8-7.21-97.6-42.55C201.26,284.13,195.48,528.49,352.71,528.49Z"/><path class="cls-2" d="M352.7,533.52c-35.25,0-65.1-12-88.73-35.7-68.25-68.41-67.9-215.55-67.75-278.38q0-4,0-7.43V195.54l9.19,13.66c18.55,27.54,71.19,37.18,88.41,39.65V205.52h10.05c0,25.6,52.34,36.44,78.41,39.21V189.87l9.12,12.72c36,50.29,125.65,39.88,126.55,39.77l5.38-.67.26,5.42A535.62,535.62,0,0,1,518,338.8c-6.9,46.55-23.41,110.71-62.83,152C428.07,519.15,393.61,533.52,352.7,533.52ZM206.26,225.38c-.09,64.47,1.53,201.9,64.82,265.34,21.68,21.73,49.14,32.74,81.62,32.74,38.06,0,70.07-13.32,95.17-39.6,37.6-39.38,53.47-101.42,60.16-146.54a537.62,537.62,0,0,0,5.67-84.47,234.27,234.27,0,0,1-47.08-1.42c-31.82-4.3-57.19-15.38-74.26-32.31v36.52l-5.4-.4A247.07,247.07,0,0,1,341.7,247q-25.86-7.48-37.81-19.13V260.1l-5.52-.54C295.59,259.29,236.4,253.19,206.26,225.38Z"/><path class="cls-1" d="M5.1,816.12H702.25S760.9,664.19,432,568c-15.38-17.3-24-39.61-23.76-50.33-9.17,3.5-59.9,22.26-109.42,0,0,0-4.13,40.73-22.23,50.57C231.07,593,.29,632.46,5.1,816.12Z"/><path class="cls-2" d="M705.69,821.15H.2l-.13-4.9C-1.67,749.48,27.23,693.54,86,650c48.84-36.2,109-57.09,148.82-70.91,17.65-6.13,31.58-11,39.43-15.23,12.93-7,18.56-36.07,19.63-46.67l.71-6.94,6.35,2.86c43.65,19.62,88.36,6.46,105.56-.11l7-2.66-.15,7.45c-.17,8.68,7.23,29.2,21.56,45.83,76.61,22.51,138.53,50,184.07,81.73,36.73,25.58,63,53.95,78,84.33,24.48,49.54,10.64,86.7,10,88.25Zm-695.64-10H698.53c2.52-9.61,7.87-39.78-10.83-77.34-14.33-28.79-39.5-55.83-74.83-80.38-44.89-31.2-106.21-58.29-182.24-80.52l-1.38-.41-1-1.08c-13.32-15-22-33.79-24.38-46.77-20.45,6.86-60.48,15.87-101,.25-2.07,12.79-8.17,39.28-23.93,47.84-8.57,4.66-22.85,9.62-40.93,15.89C158,616.4,9.64,667.91,10.05,811.1Z"/><path class="cls-1" d="M406.56,816.12V680.54c42.79,0,90.87-71.16,94.24-78.85S490.1,587,432,568c-90.39,90.39-155.41.24-155.41.24S209.78,594,213.15,601.69s51.44,78.85,94.23,78.85V816.12Z"/><path class="cls-2" d="M411.59,821.15H302.36V685.29c-45.44-5-91-75.19-93.82-81.59a6.8,6.8,0,0,1,0-5.38c1.62-3.89,7.07-9.25,35.71-22,15.33-6.84,30.39-12.65,30.54-12.71l3.62-1.39,2.26,3.14c.25.34,25.49,34.56,64.91,37.68,27.27,2.16,55.15-10.8,82.88-38.53l2.18-2.18,2.93,1c52.7,17.18,68.13,24.14,71.81,32.34a9.75,9.75,0,0,1,0,8.1c-2.8,6.4-48.38,76.6-93.81,81.59Zm-99.18-10h89.12V675.51h5c20.73,0,43.12-19,58.26-35,17.24-18.17,29.9-37.5,31.37-40.87l0,0c-.3-.6-2.22-3.24-14-8.38-9.74-4.23-24.86-9.65-48.79-17.5-27,26.26-54.5,39.54-81.88,39.54-2.27,0-4.53-.09-6.8-.27-37.13-3-62.11-29.5-69.73-38.72-24.24,9.5-50.64,21.66-56.34,27,3.44,5.94,15.15,23,30.49,39.19,15.13,16,37.53,35,58.25,35h5Z"/><circle class="cls-2" cx="352.71" cy="655.36" r="13.46"/><circle class="cls-2" cx="352.71" cy="709.21" r="13.46"/><circle class="cls-2" cx="352.64" cy="767.63" r="13.81"/><path class="cls-3" d="M505.13,443.71c-10.31,19-26.13,38.1-55,38.1h-28c-4.49-6.32-14-10.68-25.06-10.68H360s-27.78,8.43-27.78,18.82S360,508.78,360,508.78h37.05c11,0,20.58-4.36,25.06-10.68h28c64.78-4.79,92-82.15,83.59-119.56-7.26,2.63-12.26,2.52-15.93-1.44C517.81,377.1,516.71,422.36,505.13,443.71Z"/><path class="cls-4" d="M535.82,244c-4.89-.41-9.43,6.1-10.26,14.45l-10.5,105.52c-.79,7.95,2.05,15.94,8.15,16.28,20.57,1.37,40.56-25,45.21-60.43,5-38.4-9.22-73.5-32.6-75.82Z"/><path class="cls-5" d="M524.76,385.3c-.63,0-1.25,0-1.88-.07a11.89,11.89,0,0,1-8.46-4.31c-3.42-4-5-10.53-4.36-17.48l10.5-105.52c1.14-11.47,7.89-19.63,15.68-19h.08c8.72.87,16.7,5.58,23.08,13.63,12.13,15.29,17.49,41.29,14,67.85-2.35,17.95-8.6,34.43-17.6,46.4S535.86,385.3,524.76,385.3ZM535.36,249c-1,0-4.14,3.4-4.8,10l-10.5,105.52c-.47,4.71.67,8.38,2,9.94a1.93,1.93,0,0,0,1.43.82c17.9,1.19,35.74-24,40-56.06,3.15-24-1.42-47.07-11.92-60.3-4.7-5.93-10.13-9.25-16.14-9.87Z"/><path class="cls-1" d="M398,434.37s-2,23.95-40.83,23.95-40.47-23.95-40.47-23.95"/><path class="cls-2" d="M357.21,463.35c-17.61,0-30.58-4.6-38.56-13.68-6.21-7.06-6.87-14.17-6.92-14.95l10-.69c.07.72,2.2,19.27,35.45,19.27C391,453.3,393,434.14,393,434l10,.84c-.07.79-.83,7.87-7.13,14.91C387.82,458.76,374.79,463.35,357.21,463.35Z"/><circle class="cls-2" cx="276.81" cy="310.31" r="13.31"/><circle class="cls-2" cx="436.54" cy="310.31" r="13.31"/></g></g></svg>