<svg xmlns="http://www.w3.org/2000/svg" viewBox="0 0 711.33 821.15"><defs><style>.cls-1{fill:#fff;}.cls-2{fill:#424146;}.cls-3{fill:#be222c;}.cls-4{fill:#be202c;}</style></defs><title>3</title><g id="Layer_2" data-name="Layer 2"><g id="Layer_3" data-name="Layer 3"><path class="cls-1" d="M155.91,675.39S357.7,831.21,482.39,661.65C482.39,661.65,422.14,521.81,155.91,675.39Z"/><rect class="cls-1" x="108.04" y="5.03" width="467.68" height="438.08" rx="8.28"/><path class="cls-2" d="M567.44,448.13H116.32a13.31,13.31,0,0,1-13.3-13.3V13.31A13.32,13.32,0,0,1,116.32,0H567.44a13.32,13.32,0,0,1,13.31,13.31V434.83A13.32,13.32,0,0,1,567.44,448.13ZM116.32,10.05a3.26,3.26,0,0,0-3.25,3.26V434.83a3.26,3.26,0,0,0,3.25,3.25H567.44a3.26,3.26,0,0,0,3.25-3.25V13.31a3.26,3.26,0,0,0-3.25-3.26Z"/><path class="cls-3" d="M341.68,348.78c-5.55,0-8.43-7-9.84-10.44-2.32-5.64-4.92-14.11-8-25.88-2.78-10.76-8.1-23.46-17.6-22.85a16.83,16.83,0,0,0-6.13,1.72c-4.59,12.09-10.59,21.45-16.63,24.51-5.2,2.63-8.23.86-9.58-.42-2.52-2.42-2.71-6.06-.56-10.82,2.62-5.78,9.49-14.78,18.17-20.41.66-1.93,1.3-3.95,1.91-6.08,4.88-17.2,5.84-34.24,2.62-46.73C292,215.55,282,208.15,265.39,208.75c-8,.28-15.82,3.08-23.16,7.59,13.82,32.36,25.14,70.86,14.51,94.47-5.25,11.66-15.13,18.84-29.35,21.35-20.83,3.66-31.31-3.58-36.43-10.29-10.25-13.44-8.86-38.19,3.62-64.6,7.36-15.57,19.36-32.83,34.48-44.65a497.19,497.19,0,0,0-25.29-48.28l9-5.51a488.49,488.49,0,0,1,25.16,47.75,57.59,57.59,0,0,1,27.1-8.36c21.38-.77,36,10.08,41.27,30.53,3.8,14.74,2.18,33.85-2.26,50.51a21.54,21.54,0,0,1,4.75-.13c11.8,1,20.31,11.35,25.3,30.69,2.74,10.6,4.85,17.38,6.42,21.7,1-8.79,1.44-24.2,1.44-46.08v-1l.39-1c1-2.44,4-9.89,10.56-10.06h.24c7.52,0,12.07,9.65,17.34,20.8,2.2,4.67,5.75,12.19,8,14.43,2.81-2.3,6.15-12.44,7.83-17.53,3.53-10.68,6.32-19.12,13.12-20.37,7.71-1.42,13.07,8.26,21.88,25.51,2.86,5.6,7.18,14.07,9,15.52a3.89,3.89,0,0,0-4,0l5.1,9.21a6.38,6.38,0,0,1-5,.5c-4.57-1.4-7.73-7.27-14.44-20.41-3.05-6-7.88-15.42-10.9-18.92-1.53,2.65-3.4,8.3-4.72,12.29-3.64,11.06-7.42,22.49-15.78,24.8-8.74,2.42-14-8.72-19.56-20.5-2.06-4.38-5.32-11.28-7.56-13.95a19,19,0,0,0-.91,1.79c0,12.28-.12,27.51-.9,38.92-1,14.81-2.69,22.48-9,23.29C342.25,348.76,342,348.78,341.68,348.78ZM233.46,222.68c-12.24,10.22-22.58,24.76-29.36,39.09-10.63,22.49-12.5,43.57-4.77,53.71,4.88,6.39,13.71,8.51,26.24,6.31,10.73-1.89,17.78-6.9,21.57-15.3C254.46,290.23,249.73,261.28,233.46,222.68Z"/><path class="cls-2" d="M306.83,175.42c2.14-.8,4.28-1.4,6.42-2s4.28-1.1,6.42-1.51a30.06,30.06,0,0,0,3.21-1,5.69,5.69,0,0,1,3.22-.05,11.52,11.52,0,0,1,3.21,1.48,12.53,12.53,0,0,1,3.21,3,.86.86,0,0,1,0,1,12.53,12.53,0,0,1-3.21,3.05A11.52,11.52,0,0,1,326.1,181a5.69,5.69,0,0,1-3.22,0,32.57,32.57,0,0,0-3.21-1c-2.14-.4-4.28-.91-6.42-1.51s-4.28-1.21-6.42-2a.53.53,0,0,1,0-1Z"/><path class="cls-2" d="M393.05,212l-68.13-31a5.81,5.81,0,0,1-.07-10.55l.19-.08,68.12-28.93,3.93,9.25-59.23,25.16,59.35,27Z"/><rect class="cls-1" x="394.24" y="146.05" width="282.45" height="61.36" rx="0.87"/><path class="cls-2" d="M675.82,212.43H395.11a5.9,5.9,0,0,1-5.89-5.9V146.92a5.9,5.9,0,0,1,5.89-5.9H675.82a5.9,5.9,0,0,1,5.9,5.9v59.61A5.9,5.9,0,0,1,675.82,212.43ZM399.27,202.38h272.4V151.07H399.27Z"/><path class="cls-2" d="M676.19,212.43h-5V141h5c19.38,0,35.14,16,35.14,35.74S695.57,212.43,676.19,212.43Zm5-60.91v50.34a25.82,25.82,0,0,0,0-50.34Z"/><path class="cls-1" d="M431.47,632.74l53.09,48.4c31.32,35.83,10.11,60-14.37,56-23.95-4-101.48-75.47-101.48-75.47"/><path class="cls-2" d="M475.53,742.59a38.29,38.29,0,0,1-6.16-.51c-24.72-4.08-96-69.31-104.07-76.73a5,5,0,0,1,6.81-7.39c21.26,19.61,80.47,71.16,98.9,74.2,9.53,1.57,18.18-1.88,22-8.8,5.35-9.61.94-23.7-12.09-38.7l-52.88-48.2a5,5,0,0,1,6.77-7.43l53.31,48.59.18.21c22.92,26.22,17.07,44,13.49,50.42C496.79,737.31,486.85,742.59,475.53,742.59Z"/><path class="cls-1" d="M155.91,675.39c-32,1.17-115.79-142.93-115.79-142.93s133.22-139.34,139.29-136.4,45.92,7.24,85-5.14c42.39-8.82,74.4,11,72.89,19.11s-135.9,98.31-86.55,137S332,487.94,357.07,487.94,547.25,659.57,553.45,671c9.93,18.26-12.65,50.58-33.15,38.09-23.39-14.26-83.11-70.87-88.45-75.94"/><path class="cls-2" d="M529.91,716.89a23.3,23.3,0,0,1-12.23-3.55C494,698.91,435,643.07,428.39,636.75a5,5,0,0,1,6.92-7.29c23.84,22.66,69.1,64,87.6,75.29,8.06,4.92,15.21,0,18.75-3.38,7.16-6.82,12-19.47,7.37-28-2.72-4.76-42.82-48.12-90.53-94.91-25.08-24.59-47.36-45.27-64.44-59.81-28.72-24.44-35.86-25.68-37-25.68-6.56,0-16.54,12.75-26.2,25.07-10.17,13-21.71,27.73-35,36.1-16.24,10.22-32.45,9.16-48.18-3.16-8.31-6.52-12.62-14.77-12.8-24.53-.64-34.31,50.82-77.82,81.57-103.81,6.47-5.47,13.13-11.1,15.54-13.67-1.51-2.18-7.19-7.11-18.76-11-8.33-2.77-25.57-6.73-47.51-2.22-36.1,11.36-74.46,9.24-86.32,5.61-12.84,8.2-86.41,83.12-133,131.79,5.72,9.64,23.52,39.21,43.77,68.35,43.59,62.69,60.36,69.05,65.57,68.83a5,5,0,1,1,.37,10c-9.06.32-20.36-7.12-35.48-23.44-11.1-12-24.13-28.72-38.74-49.74C57.1,571.6,36,535.35,35.78,535l-1.9-3.26L36.49,529c.33-.35,33.72-35.26,67.42-69.36,19.82-20.05,35.87-35.92,47.71-47.14,7.09-6.72,12.75-11.86,16.84-15.27,6.43-5.38,9.68-7.35,13.14-5.68,5,2.43,43.38,6.6,81.32-5.41l.5-.13c35.89-7.47,64.57,4.76,74.22,14.22,4.63,4.55,5.07,8.35,4.63,10.74-.63,3.31-3.5,6-19.34,19.35-25.5,21.56-78.56,66.42-78,95.95.13,6.68,3.05,12.18,9,16.8,12.36,9.7,24,10.51,36.62,2.57,11.83-7.44,22.79-21.44,32.46-33.79,12.16-15.52,22.65-28.92,34.11-28.92,4.54,0,18.38,0,108.78,88.67,41.7,40.91,88.14,89.85,92,97,7.28,13.37.66,30.64-9.27,40.09C542.87,714.1,536.36,716.89,529.91,716.89Z"/><path class="cls-1" d="M368.71,661.65l50.48,44.94c31.32,35.84,10.11,60-14.37,56-23.95-4-90.51-60-90.51-60"/><path class="cls-2" d="M410.16,768a38.29,38.29,0,0,1-6.16-.51c-24.6-4.06-86-55.29-92.93-61.11a5,5,0,1,1,6.47-7.69c18.23,15.34,69.58,55.82,88.1,58.88,9.54,1.57,18.19-1.88,22-8.8,5.35-9.6.95-23.69-12.07-38.67l-50.25-44.73a5,5,0,1,1,6.69-7.51l50.72,45.15.2.24c22.92,26.21,17.07,44,13.49,50.41C431.42,762.76,421.48,768,410.16,768Z"/><path class="cls-1" d="M172.72,657.1l-21.91,23.84a18.5,18.5,0,0,0,1.6,26.63l3.45,3A20,20,0,0,0,183.38,709l21.9-23.84a18.5,18.5,0,0,0-1.6-26.63l-3.45-3A20,20,0,0,0,172.72,657.1Z"/><path class="cls-2" d="M168.8,720.32a24.84,24.84,0,0,1-16.22-6l-3.45-3a23.53,23.53,0,0,1-2-33.84L169,653.7a25,25,0,0,1,34.5-2l3.45,3a23.51,23.51,0,0,1,2,33.84l-21.9,23.84A24.78,24.78,0,0,1,168.8,720.32Zm7.62-59.82-21.91,23.84a13.4,13.4,0,0,0-3.56,9.91,13.55,13.55,0,0,0,4.74,9.52l3.45,3a14.89,14.89,0,0,0,20.53-1.15l21.91-23.84a13.4,13.4,0,0,0,3.56-9.91,13.55,13.55,0,0,0-4.74-9.52l-3.45-3a14.89,14.89,0,0,0-20.53,1.15Z"/><path class="cls-1" d="M327.34,741.11l-27.08,29.47A24.61,24.61,0,0,0,302.39,806l4.41,3.8a26.61,26.61,0,0,0,36.6-2.07l27.08-29.47c9.48-10.31,13-28.06,2.36-37.24l-6.15-5.82C356,726,336.81,730.8,327.34,741.11Z"/><path class="cls-2" d="M324,821.15a31.29,31.29,0,0,1-20.49-7.54l-4.41-3.79a29.64,29.64,0,0,1-2.55-42.64l27.08-29.47,3.7,3.4-3.7-3.4C334.83,725.53,357,720.24,370,731.4l.17.15,6.08,5.75a24.1,24.1,0,0,1,8.13,17.23c.54,9.33-3.36,19.72-10.17,27.14L347.1,811.14A31.28,31.28,0,0,1,324,821.15Zm28.25-85.83A30.52,30.52,0,0,0,331,744.51L304,774a19.57,19.57,0,0,0,1.72,28.22l4.4,3.8a21.49,21.49,0,0,0,29.62-1.67l27.08-29.46c5-5.4,7.91-13.15,7.53-19.75a14,14,0,0,0-4.75-10.28l-.17-.16-6.06-5.74A16.86,16.86,0,0,0,352.26,735.32Z"/><path class="cls-1" d="M217.82,672.3l-32.66,35.55a29.32,29.32,0,0,0,2.54,42.22l1.51,1.3a31.7,31.7,0,0,0,43.62-2.46l32.66-35.55A29.32,29.32,0,0,0,263,671.14l-1.51-1.3A31.7,31.7,0,0,0,217.82,672.3Z"/><path class="cls-2" d="M209.72,763.93a36.37,36.37,0,0,1-23.79-8.75l-1.51-1.3a34.35,34.35,0,0,1-3-49.44l32.66-35.54a36.72,36.72,0,0,1,50.6-2.87l1.51,1.3a34.34,34.34,0,0,1,3,49.43l-32.66,35.55A36.3,36.3,0,0,1,209.72,763.93Zm11.8-88.23-32.66,35.55a24.1,24.1,0,0,0-6.41,17.87A24.35,24.35,0,0,0,191,746.26l1.52,1.3a26.57,26.57,0,0,0,36.63-2.06L261.79,710a24.11,24.11,0,0,0,6.41-17.87,24.39,24.39,0,0,0-8.53-17.15l-1.51-1.3a26.59,26.59,0,0,0-36.64,2.06Z"/><path class="cls-1" d="M269.26,709.26,230.17,751.8a30.29,30.29,0,0,0,2.63,43.61h0a32.74,32.74,0,0,0,45-2.55l39.1-42.54a30.3,30.3,0,0,0-2.63-43.61h0A32.75,32.75,0,0,0,269.26,709.26Z"/><path class="cls-2" d="M254,808.22a37.38,37.38,0,0,1-24.46-9,35.31,35.31,0,0,1-3.05-50.82l39.09-42.54a37.76,37.76,0,0,1,52-3,35.33,35.33,0,0,1,3.05,50.82l-39.1,42.54A37.32,37.32,0,0,1,254,808.22Zm39.13-104.3A27.25,27.25,0,0,0,273,712.66l-39.1,42.54a25.27,25.27,0,0,0,2.21,36.4,27.61,27.61,0,0,0,38.06-2.14l39.09-42.54a25.11,25.11,0,0,0,6.67-18.58A25.36,25.36,0,0,0,311,710.52,27.42,27.42,0,0,0,293.11,703.92Z"/><path class="cls-1" d="M548.08,664.17s34.41-20.1,57.25-53.48c42-61.38,56.18-67.85,56.18-67.85L509.91,396.06s-28.33,11.4-58,1.47C383.54,373.28,337.33,410,337.33,410S199.15,518.14,250.78,547c0,0,22.93,33,73.21-28.35,21.94-25.47,24.62-33.8,33.08-30.73S458.29,559.24,548.08,664.17Z"/><path class="cls-2" d="M547,670.63l-2.73-3.19C454.75,562.83,362.53,495.52,355.33,492.66c-2.36-.86-3.57,0-13.41,12.21-3.63,4.52-8.14,10.14-14.08,17-21.78,26.56-41.71,39.69-59.27,39a29.16,29.16,0,0,1-21.13-10c-7.95-4.75-12.49-11.77-13.15-20.37-1.43-18.51,15.15-45.2,49.28-79.34a634.47,634.47,0,0,1,50.66-45.11c.47-.37,12.5-9.83,33.28-16.19C386.57,384,417,379.81,453.6,392.8,481,402,507.77,391.5,508,391.4l3-1.21,2.34,2.26,157.31,152.3-7.05,2.64c-1.37.79-15.78,10-54.18,66.14-23.21,33.93-57.42,54.14-58.87,55ZM353.78,482.23a14.62,14.62,0,0,1,5,1c10,3.62,102.46,72.58,190.29,174.39,9.19-6,34.41-23.89,52.11-49.76,28.8-42.1,44.89-58.91,52.58-65.52L508.64,401.84c-8.48,2.76-32.76,9-58.32.46C385.24,379.21,340.9,413.61,340.45,414c-27.58,21.59-98.56,84.42-96.14,115.79.43,5.63,3.27,9.72,8.92,12.88l1,.57.66.95a18.75,18.75,0,0,0,14.3,6.7c9.74.27,26.52-5.62,50.9-35.36l.08-.1c5.85-6.79,10.32-12.35,13.9-16.81C342.5,488.1,347.21,482.23,353.78,482.23Zm310,65.11Z"/><path class="cls-2" d="M306.83,87.23H189.35a5,5,0,0,1,0-10H306.83a5,5,0,1,1,0,10Z"/><path class="cls-2" d="M509.91,87.23h-168a5,5,0,1,1,0-10h168a5,5,0,0,1,0,10Z"/><path class="cls-2" d="M337.33,122.51h-148a5,5,0,0,1,0-10.05h148a5,5,0,0,1,0,10.05Z"/><path class="cls-2" d="M499.42,122.51H405.13a5,5,0,1,1,0-10.05h94.29a5,5,0,0,1,0,10.05Z"/><path class="cls-1" d="M32.12,263.76l147.29,132.3S32.47,542.84,27.8,542.84,5,520.79,5,520.79"/><path class="cls-2" d="M27.8,547.87c-1.92,0-7,0-26.66-23.89a5,5,0,1,1,7.77-6.38c6.4,7.79,14.64,16.66,18.46,19.52C41.14,526,118.64,449.61,172.1,396.25L28.76,267.5A5,5,0,1,1,35.48,260L186.72,395.87,183,399.62c-.37.37-37.17,37.13-74.08,73.42-21.69,21.32-39.16,38.31-51.95,50.5C31.42,547.87,30.36,547.87,27.8,547.87Z"/><path class="cls-1" d="M657.19,263.76,509.91,396.06s146.94,146.78,151.6,146.78,22.78-22.05,22.78-22.05"/><path class="cls-2" d="M661.51,547.87c-2.56,0-3.62,0-29.12-24.33-12.79-12.19-30.27-29.18-52-50.5-36.9-36.29-73.71-73.05-74.08-73.42l-3.75-3.75L653.83,260a5,5,0,1,1,6.72,7.48L517.21,396.25C570.68,449.61,648.18,526,662,537.12c3.81-2.86,12-11.73,18.45-19.52a5,5,0,1,1,7.77,6.38C668.55,547.87,663.44,547.87,661.51,547.87Z"/><ellipse class="cls-4" cx="30.35" cy="489.17" rx="16.2" ry="15.68"/><ellipse class="cls-4" cx="654.42" cy="489.17" rx="16.2" ry="15.68"/></g></g></svg>