<svg xmlns="http://www.w3.org/2000/svg" viewBox="0 0 1310.05 681.24"><defs><style>.cls-1{fill:#fff;}.cls-2{fill:#424146;}.cls-3{fill:#be202c;}.cls-4{fill:#be222c;}</style></defs><title>4</title><g id="Layer_2" data-name="Layer 2"><g id="Layer_6" data-name="Layer 6"><line class="cls-1" x1="1096.54" y1="623.22" x2="873.34" y2="623.22"/><rect class="cls-2" x="873.34" y="618.2" width="223.2" height="10.05"/><path class="cls-1" d="M1097.69,637.75s-28-7.24-29-15.26"/><path class="cls-2" d="M1096.43,642.62a141.87,141.87,0,0,1-14.71-4.82c-11.78-4.64-17.34-9.18-18-14.7l10-1.22a1.43,1.43,0,0,0,0-.25c1.25,2.79,13.32,8.15,25.32,11.25Z"/><circle class="cls-1" cx="1188.12" cy="637.75" r="38.47"/><path class="cls-2" d="M1188.12,681.24a43.5,43.5,0,1,1,43.49-43.49A43.54,43.54,0,0,1,1188.12,681.24Zm0-76.93a33.44,33.44,0,1,0,33.44,33.44A33.48,33.48,0,0,0,1188.12,604.31Z"/><circle class="cls-1" cx="1189.26" cy="637.75" r="9.34"/><path class="cls-2" d="M1189.26,652.11a14.37,14.37,0,1,1,14.37-14.36A14.37,14.37,0,0,1,1189.26,652.11Zm0-18.67a4.31,4.31,0,1,0,4.32,4.31A4.32,4.32,0,0,0,1189.26,633.44Z"/><circle class="cls-1" cx="1096.54" cy="637.75" r="38.47"/><path class="cls-2" d="M1096.54,681.24a43.5,43.5,0,1,1,43.5-43.49A43.54,43.54,0,0,1,1096.54,681.24Zm0-76.93A33.44,33.44,0,1,0,1130,637.75,33.48,33.48,0,0,0,1096.54,604.31Z"/><circle class="cls-1" cx="1097.69" cy="637.75" r="9.34"/><path class="cls-2" d="M1097.69,652.11a14.37,14.37,0,1,1,14.36-14.36A14.37,14.37,0,0,1,1097.69,652.11Zm0-18.67a4.31,4.31,0,1,0,4.31,4.31A4.31,4.31,0,0,0,1097.69,633.44Z"/><circle class="cls-1" cx="857.22" cy="637.75" r="38.47"/><path class="cls-2" d="M857.22,681.24a43.5,43.5,0,1,1,43.49-43.49A43.55,43.55,0,0,1,857.22,681.24Zm0-76.93a33.44,33.44,0,1,0,33.44,33.44A33.48,33.48,0,0,0,857.22,604.31Z"/><circle class="cls-1" cx="858.37" cy="637.75" r="9.34"/><path class="cls-2" d="M858.37,652.11a14.37,14.37,0,1,1,14.36-14.36A14.38,14.38,0,0,1,858.37,652.11Zm0-18.67a4.31,4.31,0,1,0,4.31,4.31A4.32,4.32,0,0,0,858.37,633.44Z"/><circle class="cls-1" cx="760.89" cy="637.75" r="38.47"/><path class="cls-2" d="M760.89,681.24a43.5,43.5,0,1,1,43.5-43.49A43.54,43.54,0,0,1,760.89,681.24Zm0-76.93a33.44,33.44,0,1,0,33.45,33.44A33.48,33.48,0,0,0,760.89,604.31Z"/><circle class="cls-1" cx="762.04" cy="637.75" r="9.34"/><path class="cls-2" d="M762,652.11a14.37,14.37,0,1,1,14.37-14.36A14.37,14.37,0,0,1,762,652.11Zm0-18.67a4.31,4.31,0,1,0,4.31,4.31A4.31,4.31,0,0,0,762,633.44Z"/><path class="cls-1" d="M1197.29,601h29.3s13.87,14.11,24.93,9c13.26,2.21-5.17,25.06,14.74,33.91s31,3.22,31,3.22,49.31-327.91-99.93-327.91H667.34a11.48,11.48,0,0,0-11.47,11.47V589.54A11.47,11.47,0,0,0,667.34,601h529.95"/><path class="cls-2" d="M1287.17,653.84c-5.82,0-13.56-1.21-23-5.38-14.26-6.34-13.26-19.06-12.67-26.66.16-2,.42-5.37,0-6.48-11.11,3.5-22.77-5.55-27-9.28H667.34a16.51,16.51,0,0,1-16.49-16.5V330.65a16.51,16.51,0,0,1,16.49-16.49h529.95c27.15,0,49.85,10.39,67.49,30.87,29.46,34.22,44.69,95.71,45.26,182.74a874.17,874.17,0,0,1-7.85,120.06l-.38,2.56-2.31,1.18C1299.19,651.72,1294.87,653.84,1287.17,653.84Zm-36.37-49.1,1.54.26c10.48,1.74,9.7,11.66,9.23,17.59-.64,8.2-.66,13.4,6.73,16.68,12.36,5.5,20.61,4.87,24.38,4A876.07,876.07,0,0,0,1300,527.7c-.56-83.33-15.37-144.22-42.82-176.11-15.64-18.17-35.78-27.38-59.87-27.38H667.34a6.45,6.45,0,0,0-6.44,6.44V589.54a6.45,6.45,0,0,0,6.44,6.44h561.35l1.48,1.51c3,3,12.87,10.87,19.22,7.91Z"/><path class="cls-1" d="M1303.77,491s-58.14,5.42-63.56,0-18.4-132.71-13.62-139.59S1287.72,344.61,1303.77,491Z"/><path class="cls-2" d="M1258.9,498.49c-16.68,0-20.24-1.89-22.24-3.89-1.39-1.39-3.11-3.11-6.51-26-1.87-12.58-3.85-29-5.58-46.35-1.75-17.56-3-34.12-3.65-46.65-1.13-23.22.41-25.44,1.54-27.07,2.85-4.1,10.19-5.48,18.26-3.43,16.12,4.1,55,26.46,68,145.35l.56,5.07-5.09.48c-.15,0-14.83,1.37-30,2.05C1268.17,498.37,1263.11,498.49,1258.9,498.49ZM1244,487.38c5.9,1.87,31.2,1.05,54.23-.89-11.75-98.84-41.94-123.55-54.54-129.6-6.3-3-11-2.87-12.77-2.35-.9,5.87,0,30.14,3.69,66.72C1238.1,456.59,1242,481.78,1244,487.38Z"/><line class="cls-1" x1="1303.77" y1="676.22" x2="655.87" y2="676.22"/><path class="cls-2" d="M1303.77,681.24H655.87a5,5,0,0,1,0-10h647.9a5,5,0,1,1,0,10Z"/><polyline class="cls-1" points="1303.77 577.54 1225.55 577.54 1225.55 601.01"/><polygon class="cls-2" points="1230.58 601.01 1220.52 601.01 1220.52 572.51 1303.77 572.51 1303.77 582.56 1230.58 582.56 1230.58 601.01"/><ellipse class="cls-1" cx="537.27" cy="640.94" rx="38.47" ry="34.52"/><path class="cls-2" d="M537.27,680.49c-24,0-43.5-17.74-43.5-39.55s19.52-39.55,43.5-39.55,43.49,17.74,43.49,39.55S561.25,680.49,537.27,680.49Zm0-69c-18.44,0-33.44,13.24-33.44,29.5s15,29.5,33.44,29.5,33.44-13.24,33.44-29.5S555.71,611.44,537.27,611.44Z"/><ellipse class="cls-1" cx="538.42" cy="640.94" rx="9.34" ry="8.38"/><path class="cls-2" d="M538.42,654.35c-7.92,0-14.37-6-14.37-13.41s6.45-13.41,14.37-13.41,14.36,6,14.36,13.41S546.34,654.35,538.42,654.35Zm0-16.76c-2.34,0-4.31,1.53-4.31,3.35s2,3.35,4.31,3.35,4.31-1.53,4.31-3.35S540.75,637.59,538.42,637.59Z"/><ellipse class="cls-1" cx="445.7" cy="640.94" rx="38.47" ry="34.52"/><path class="cls-2" d="M445.7,680.49c-24,0-43.5-17.74-43.5-39.55s19.51-39.55,43.5-39.55,43.49,17.74,43.49,39.55S469.68,680.49,445.7,680.49Zm0-69c-18.44,0-33.45,13.24-33.45,29.5s15,29.5,33.45,29.5,33.44-13.24,33.44-29.5S464.14,611.44,445.7,611.44Z"/><ellipse class="cls-1" cx="446.84" cy="640.94" rx="9.34" ry="8.38"/><path class="cls-2" d="M446.84,654.35c-7.92,0-14.36-6-14.36-13.41s6.44-13.41,14.36-13.41,14.37,6,14.37,13.41S454.76,654.35,446.84,654.35Zm0-16.76c-2.33,0-4.31,1.53-4.31,3.35s2,3.35,4.31,3.35,4.31-1.53,4.31-3.35S449.18,637.59,446.84,637.59Z"/><ellipse class="cls-1" cx="206.37" cy="640.94" rx="38.47" ry="34.52"/><path class="cls-2" d="M206.37,680.49c-24,0-43.49-17.74-43.49-39.55s19.51-39.55,43.49-39.55,43.5,17.74,43.5,39.55S230.36,680.49,206.37,680.49Zm0-69c-18.44,0-33.44,13.24-33.44,29.5s15,29.5,33.44,29.5,33.44-13.24,33.44-29.5S224.81,611.44,206.37,611.44Z"/><ellipse class="cls-1" cx="207.52" cy="640.94" rx="9.34" ry="8.38"/><path class="cls-2" d="M207.52,654.35c-7.92,0-14.37-6-14.37-13.41s6.45-13.41,14.37-13.41,14.36,6,14.36,13.41S215.44,654.35,207.52,654.35Zm0-16.76c-2.34,0-4.31,1.53-4.31,3.35s2,3.35,4.31,3.35,4.31-1.53,4.31-3.35S209.86,637.59,207.52,637.59Z"/><ellipse class="cls-1" cx="110.05" cy="640.94" rx="38.47" ry="34.52"/><path class="cls-2" d="M110.05,680.49c-24,0-43.5-17.74-43.5-39.55s19.51-39.55,43.5-39.55,43.49,17.74,43.49,39.55S134,680.49,110.05,680.49Zm0-69c-18.44,0-33.45,13.24-33.45,29.5s15,29.5,33.45,29.5,33.44-13.24,33.44-29.5S128.49,611.44,110.05,611.44Z"/><ellipse class="cls-1" cx="111.19" cy="640.94" rx="9.34" ry="8.38"/><path class="cls-2" d="M111.19,654.35c-7.92,0-14.36-6-14.36-13.41s6.44-13.41,14.36-13.41,14.37,6,14.37,13.41S119.11,654.35,111.19,654.35Zm0-16.76c-2.33,0-4.31,1.53-4.31,3.35s2,3.35,4.31,3.35,4.31-1.53,4.31-3.35S113.53,637.59,111.19,637.59Z"/><line class="cls-1" x1="652.93" y1="675.46" x2="5.03" y2="675.46"/><rect class="cls-2" x="5.03" y="670.44" width="647.9" height="10.05"/><rect class="cls-1" x="16.74" y="568.08" width="611.86" height="38.33" transform="translate(645.34 1174.5) rotate(-180)"/><path class="cls-2" d="M633.63,611.44H11.71V563.06H633.63ZM21.77,601.39h601.8V573.11H21.77Z"/><ellipse class="cls-1" cx="537.27" cy="640.94" rx="38.47" ry="34.52"/><path class="cls-2" d="M537.27,680.49c-24,0-43.5-17.74-43.5-39.55s19.52-39.55,43.5-39.55,43.49,17.74,43.49,39.55S561.25,680.49,537.27,680.49Zm0-69c-18.44,0-33.44,13.24-33.44,29.5s15,29.5,33.44,29.5,33.44-13.24,33.44-29.5S555.71,611.44,537.27,611.44Z"/><ellipse class="cls-1" cx="538.42" cy="640.94" rx="9.34" ry="8.38"/><path class="cls-2" d="M538.42,654.35c-7.92,0-14.37-6-14.37-13.41s6.45-13.41,14.37-13.41,14.36,6,14.36,13.41S546.34,654.35,538.42,654.35Zm0-16.76c-2.34,0-4.31,1.53-4.31,3.35s2,3.35,4.31,3.35,4.31-1.53,4.31-3.35S540.75,637.59,538.42,637.59Z"/><ellipse class="cls-1" cx="445.7" cy="640.94" rx="38.47" ry="34.52"/><path class="cls-2" d="M445.7,680.49c-24,0-43.5-17.74-43.5-39.55s19.51-39.55,43.5-39.55,43.49,17.74,43.49,39.55S469.68,680.49,445.7,680.49Zm0-69c-18.44,0-33.45,13.24-33.45,29.5s15,29.5,33.45,29.5,33.44-13.24,33.44-29.5S464.14,611.44,445.7,611.44Z"/><ellipse class="cls-1" cx="446.84" cy="640.94" rx="9.34" ry="8.38"/><path class="cls-2" d="M446.84,654.35c-7.92,0-14.36-6-14.36-13.41s6.44-13.41,14.36-13.41,14.37,6,14.37,13.41S454.76,654.35,446.84,654.35Zm0-16.76c-2.33,0-4.31,1.53-4.31,3.35s2,3.35,4.31,3.35,4.31-1.53,4.31-3.35S449.18,637.59,446.84,637.59Z"/><ellipse class="cls-1" cx="206.37" cy="640.94" rx="38.47" ry="34.52"/><path class="cls-2" d="M206.37,680.49c-24,0-43.49-17.74-43.49-39.55s19.51-39.55,43.49-39.55,43.5,17.74,43.5,39.55S230.36,680.49,206.37,680.49Zm0-69c-18.44,0-33.44,13.24-33.44,29.5s15,29.5,33.44,29.5,33.44-13.24,33.44-29.5S224.81,611.44,206.37,611.44Z"/><ellipse class="cls-1" cx="207.52" cy="640.94" rx="9.34" ry="8.38"/><path class="cls-2" d="M207.52,654.35c-7.92,0-14.37-6-14.37-13.41s6.45-13.41,14.37-13.41,14.36,6,14.36,13.41S215.44,654.35,207.52,654.35Zm0-16.76c-2.34,0-4.31,1.53-4.31,3.35s2,3.35,4.31,3.35,4.31-1.53,4.31-3.35S209.86,637.59,207.52,637.59Z"/><ellipse class="cls-1" cx="110.05" cy="640.94" rx="38.47" ry="34.52"/><path class="cls-2" d="M110.05,680.49c-24,0-43.5-17.74-43.5-39.55s19.51-39.55,43.5-39.55,43.49,17.74,43.49,39.55S134,680.49,110.05,680.49Zm0-69c-18.44,0-33.45,13.24-33.45,29.5s15,29.5,33.45,29.5,33.44-13.24,33.44-29.5S128.49,611.44,110.05,611.44Z"/><ellipse class="cls-1" cx="111.19" cy="640.94" rx="9.34" ry="8.38"/><path class="cls-2" d="M111.19,654.35c-7.92,0-14.36-6-14.36-13.41s6.44-13.41,14.36-13.41,14.37,6,14.37,13.41S119.11,654.35,111.19,654.35Zm0-16.76c-2.33,0-4.31,1.53-4.31,3.35s2,3.35,4.31,3.35,4.31-1.53,4.31-3.35S113.53,637.59,111.19,637.59Z"/><line class="cls-1" x1="652.93" y1="675.46" x2="5.03" y2="675.46"/><path class="cls-2" d="M652.93,680.49H5a5,5,0,1,1,0-10h647.9a5,5,0,0,1,0,10Z"/><rect class="cls-1" x="16.74" y="568.08" width="611.86" height="38.33" transform="translate(645.34 1174.5) rotate(-180)"/><path class="cls-2" d="M633.63,611.44H11.71V563.06H633.63ZM21.77,601.39h601.8V573.11H21.77Z"/><polygon class="cls-1" points="366.31 92.98 328.15 92.98 298.27 92.98 235.94 30.64 235.94 5.03 426.06 5.03 426.06 28.26 366.31 92.98"/><path class="cls-2" d="M368.52,98H296.19L230.91,32.73V0H431.08V30.23ZM300.36,88h63.75L421,26.29V10.05H241V28.56Z"/><path class="cls-3" d="M326.9,212.51c-13.76,0-24.55-4.36-32.07-13-14.31-16.39-11-42-10.87-43.14l10,1.35c0,.22-2.8,22.3,8.51,35.21,5.53,6.3,13.76,9.5,24.47,9.5s19-3.21,24.65-9.54c10.95-12.35,9.17-33,9-35.07-.49-2.31-5.9-25-29.51-25h-5V93h10v30.1c22.63,2.58,32.38,22.3,34.41,33.07l0,.31c.14,1.09,3.11,26.71-11.36,43.08C351.5,208.15,340.66,212.51,326.9,212.51Z"/><line class="cls-1" x1="388.72" y1="195.87" x2="509.03" y2="283"/><rect class="cls-2" x="443.85" y="165.16" width="10.05" height="148.55" transform="translate(-8.32 462.57) rotate(-54.09)"/><line class="cls-1" x1="264.25" y1="200.02" x2="146.43" y2="283"/><rect class="cls-2" x="133.29" y="236.48" width="144.11" height="10.05" transform="translate(-101.61 162.29) rotate(-35.16)"/><rect class="cls-1" x="80.88" y="298.76" width="496.2" height="217.4" rx="9.68" transform="translate(657.95 814.92) rotate(-180)"/><path class="cls-4" d="M567.39,522.16H90.56a15.69,15.69,0,0,1-15.68-15.68v-198a15.7,15.7,0,0,1,15.68-15.68H567.39a15.7,15.7,0,0,1,15.68,15.68v198A15.69,15.69,0,0,1,567.39,522.16ZM90.56,304.76a3.68,3.68,0,0,0-3.68,3.68v198a3.68,3.68,0,0,0,3.68,3.68H567.39a3.68,3.68,0,0,0,3.68-3.68v-198a3.68,3.68,0,0,0-3.68-3.68Z"/><line class="cls-1" x1="471.28" y1="369.71" x2="471.28" y2="445.21"/><rect class="cls-2" x="466.25" y="369.71" width="10.05" height="75.51"/><line class="cls-1" x1="334.66" y1="369.71" x2="334.66" y2="445.21"/><rect class="cls-2" x="329.64" y="369.71" width="10.05" height="75.51"/><line class="cls-1" x1="186.67" y1="369.71" x2="186.67" y2="445.21"/><rect class="cls-2" x="181.65" y="369.71" width="10.05" height="75.51"/><rect class="cls-1" x="1116.37" y="351.45" width="72.9" height="176.92" rx="11.47" transform="translate(2305.63 879.83) rotate(-180)"/><path class="cls-2" d="M1177.8,533.4h-50a16.51,16.51,0,0,1-16.49-16.49v-154a16.51,16.51,0,0,1,16.49-16.5h50a16.51,16.51,0,0,1,16.49,16.5v154A16.51,16.51,0,0,1,1177.8,533.4Zm-50-176.92a6.45,6.45,0,0,0-6.44,6.44v154a6.45,6.45,0,0,0,6.44,6.44h50a6.45,6.45,0,0,0,6.44-6.44v-154a6.45,6.45,0,0,0-6.44-6.44Z"/><line class="cls-1" x1="979.74" y1="381.92" x2="655.87" y2="381.92"/><path class="cls-2" d="M979.74,387H655.87a5,5,0,0,1,0-10.05H979.74a5,5,0,1,1,0,10.05Z"/><line class="cls-1" x1="979.74" y1="457.22" x2="655.87" y2="457.22"/><path class="cls-2" d="M979.74,462.24H655.87a5,5,0,0,1,0-10.05H979.74a5,5,0,1,1,0,10.05Z"/><line class="cls-1" x1="1189.26" y1="565.72" x2="1116.37" y2="565.72"/><path class="cls-2" d="M1189.26,570.75h-72.89a5,5,0,1,1,0-10h72.89a5,5,0,1,1,0,10Z"/><path class="cls-1" d="M1048.05,319.18V295.1a11.46,11.46,0,0,0-11.46-11.47h-124a11.46,11.46,0,0,0-11.47,11.47v24.08"/><path class="cls-2" d="M1053.08,319.18h-10V295.1a6.45,6.45,0,0,0-6.44-6.44h-124a6.45,6.45,0,0,0-6.44,6.44v24.08H896.08V295.1a16.52,16.52,0,0,1,16.5-16.5h124a16.51,16.51,0,0,1,16.49,16.5Z"/></g></g></svg>