<svg xmlns="http://www.w3.org/2000/svg" viewBox="0 0 1307.56 869.29"><defs><style>.cls-1{fill:#fdfefe;}.cls-2{fill:#be202c;}.cls-3{fill:#fff;}.cls-4{fill:#424146;}</style></defs><title>Asset 32</title><g id="Layer_2" data-name="Layer 2"><g id="Layer_11" data-name="Layer 11"><path class="cls-1" d="M647.09,634.87s-430.16-614.4,0-622C1107.35,4.81,647.09,634.87,647.09,634.87Z"/><path class="cls-2" d="M647,643.51l-4-5.76c-.65-.93-65.8-94.41-119.55-207.36-31.63-66.48-53.2-126.65-64.12-178.83-13.79-65.9-10.55-119.38,9.61-159C496.74,38,556.66,9.47,647,7.88c98.51-1.73,163.13,25.7,192.11,81.52,20.38,39.29,23,92.76,7.79,159-12,52.39-35.24,112.94-68.95,180-57.28,113.91-126.11,208.55-126.8,209.49Zm8.7-625.66q-4.23,0-8.53.08c-86.33,1.52-143.3,28.17-169.31,79.23-19.09,37.47-22,88.71-8.74,152.27,10.74,51.39,32,110.78,63.32,176.52C578.15,522,632.19,604,647.18,626.1c15.7-22.19,73-105.25,121.84-202.39,33.34-66.31,56.25-126.09,68.1-177.67,14.65-63.77,12.32-114.92-6.94-152C803.94,43.46,745.25,17.85,655.71,17.85Z"/><path class="cls-1" d="M647,648.28l-6.26-8.94c-.65-.93-65.94-94.6-119.78-207.76-31.73-66.68-53.37-127-64.34-179.46C442.66,185.59,446,131.5,466.44,91.34,494.77,35.72,555.51,6.71,647,5.1c99.65-1.74,165.12,26.18,194.62,83,20.7,39.88,23.4,94,8,160.84-12.1,52.61-35.37,113.37-69.18,180.62-57.38,114.11-126.35,208.94-127,209.88Z"/><path class="cls-2" d="M646.87,656.92l-10.29-14.69c-.65-.93-66-94.49-120.2-208.49-31.9-67-53.67-127.79-64.72-180.59C437.5,185.47,441,130.26,462,89.05,491.2,31.66,553.42,1.72,646.87.08,748.56-1.71,815.58,27.15,846,85.81c21.27,41,24.12,96.25,8.48,164.29-12.19,53-35.6,114.14-69.59,181.75C727.34,546.37,658.14,641.49,657.45,642.43Zm8.77-646.87c-2.84,0-5.7,0-8.6.08C557.6,11.7,498.34,39.79,470.92,93.62c-19.93,39.11-23.1,92.1-9.42,157.48,10.89,52,32.4,112,64,178.32,53.88,113.25,118.71,206.11,119.36,207l2.22,3.18,2.29-3.14c.69-.94,69.39-95.38,126.61-209.17,33.63-66.88,56.76-127.27,68.77-179.48,15.09-65.66,12.53-118.61-7.6-157.41C809.41,37.08,748.38,10.05,655.64,10.05Z"/><line class="cls-3" x1="1198.09" y1="840.25" x2="1086.31" y2="840.25"/><rect class="cls-4" x="1086.31" y="835.25" width="111.78" height="10"/><path class="cls-3" d="M1198.66,847.52s-14-3.62-14.52-7.64"/><path class="cls-4" d="M1198,849.94c-5.86-1.51-15.77-4.79-16.38-9.76l5-.6a1.13,1.13,0,0,0,0-.12c.62,1.4,6.67,4.09,12.69,5.64Z"/><circle class="cls-3" cx="1243.95" cy="847.52" r="19.27"/><path class="cls-4" d="M1244,869.29a21.77,21.77,0,1,1,21.77-21.77A21.79,21.79,0,0,1,1244,869.29Zm0-38.53a16.77,16.77,0,1,0,16.77,16.76A16.78,16.78,0,0,0,1244,830.76Z"/><circle class="cls-3" cx="1244.53" cy="847.52" r="4.68"/><path class="cls-4" d="M1244.53,854.7a7.18,7.18,0,1,1,7.17-7.18A7.19,7.19,0,0,1,1244.53,854.7Zm0-9.35a2.18,2.18,0,1,0,2.17,2.17A2.18,2.18,0,0,0,1244.53,845.35Z"/><circle class="cls-3" cx="1198.09" cy="847.52" r="19.27"/><path class="cls-4" d="M1198.09,869.29a21.77,21.77,0,1,1,21.77-21.77A21.8,21.8,0,0,1,1198.09,869.29Zm0-38.53a16.77,16.77,0,1,0,16.77,16.76A16.79,16.79,0,0,0,1198.09,830.76Z"/><circle class="cls-3" cx="1198.66" cy="847.52" r="4.68"/><path class="cls-4" d="M1198.66,854.7a7.18,7.18,0,1,1,7.18-7.18A7.18,7.18,0,0,1,1198.66,854.7Zm0-9.35a2.18,2.18,0,1,0,2.18,2.17A2.17,2.17,0,0,0,1198.66,845.35Z"/><circle class="cls-3" cx="1078.23" cy="847.52" r="19.27"/><path class="cls-4" d="M1078.23,869.29A21.77,21.77,0,1,1,1100,847.52,21.79,21.79,0,0,1,1078.23,869.29Zm0-38.53A16.77,16.77,0,1,0,1095,847.52,16.78,16.78,0,0,0,1078.23,830.76Z"/><circle class="cls-3" cx="1078.81" cy="847.52" r="4.68"/><path class="cls-4" d="M1078.81,854.7a7.18,7.18,0,1,1,7.17-7.18A7.19,7.19,0,0,1,1078.81,854.7Zm0-9.35a2.18,2.18,0,1,0,2.17,2.17A2.18,2.18,0,0,0,1078.81,845.35Z"/><circle class="cls-3" cx="1029.99" cy="847.52" r="19.27"/><path class="cls-4" d="M1030,869.29a21.77,21.77,0,1,1,21.77-21.77A21.79,21.79,0,0,1,1030,869.29Zm0-38.53a16.77,16.77,0,1,0,16.77,16.76A16.78,16.78,0,0,0,1030,830.76Z"/><circle class="cls-3" cx="1030.57" cy="847.52" r="4.68"/><path class="cls-4" d="M1030.57,854.7a7.18,7.18,0,1,1,7.17-7.18A7.19,7.19,0,0,1,1030.57,854.7Zm0-9.35a2.18,2.18,0,1,0,2.17,2.17A2.18,2.18,0,0,0,1030.57,845.35Z"/><path class="cls-3" d="M1248.55,829.12h14.67s6.94,7.07,12.48,4.48c6.65,1.11-2.58,12.56,7.38,17s15.51,1.61,15.51,1.61,24.7-164.22-50-164.22H983.14a5.74,5.74,0,0,0-5.74,5.75V823.38a5.74,5.74,0,0,0,5.74,5.74h265.41"/><path class="cls-4" d="M1293.56,858.07a30.9,30.9,0,0,1-12.51-2.91c-8.74-3.89-8.11-11.95-7.81-15.82,0-.05,0-.1,0-.16-5,.09-9.59-3.07-12-5.06H983.14a10.75,10.75,0,0,1-10.74-10.74V693.73A10.76,10.76,0,0,1,983.14,683h265.41a45.24,45.24,0,0,1,35.68,16.33c35.69,41.46,20,149.07,19.3,153.63l-.38,2.55-2.29,1.17A16.94,16.94,0,0,1,1293.56,858.07ZM1275,828.42l1.53.25c7.49,1.25,6.91,8.66,6.69,11.45-.33,4.24-.08,5,1.91,5.9a20.17,20.17,0,0,0,9,2.06c2.36-18.53,12-108.09-17.46-142.25C1269.2,697.19,1260,693,1248.55,693H983.14a.75.75,0,0,0-.74.75V823.38a.74.74,0,0,0,.74.74h282.17l1.47,1.5c2,2,5.54,4,6.81,3.45Z"/><path class="cls-3" d="M1301.87,774.05s-29.12,2.71-31.83,0-9.22-66.46-6.82-69.91S1293.83,700.72,1301.87,774.05Z"/><path class="cls-4" d="M1280.3,780.3c-11.08,0-12.75-1.67-13.8-2.71-1.24-1.25-3.33-3.34-6.76-37.72s-1.68-37.06-.63-38.58c2.05-2.95,6.68-4,11.8-2.71,8.57,2.18,29.24,13.84,35.93,74.93l.56,5-5.06.47C1292.45,780,1285.38,780.3,1280.3,780.3Zm-6.43-10.25c3.86.45,13.32.14,22.43-.55-5.31-41.34-17-54.86-23.62-59.26a13.24,13.24,0,0,0-5-2.14C1267.36,719.26,1271.43,760.29,1273.87,770.05Z"/><line class="cls-3" x1="1301.87" y1="866.79" x2="977.4" y2="866.79"/><path class="cls-4" d="M1301.87,869.29H977.4a2.5,2.5,0,0,1,0-5h324.47a2.5,2.5,0,0,1,0,5Z"/><polyline class="cls-3" points="1301.87 817.37 1262.7 817.37 1262.7 829.12"/><polygon class="cls-4" points="1267.7 829.12 1257.7 829.12 1257.7 812.37 1301.87 812.37 1301.87 822.37 1267.7 822.37 1267.7 829.12"/><ellipse class="cls-3" cx="918" cy="849.12" rx="19.27" ry="17.29"/><path class="cls-4" d="M918,868.91c-12,0-21.77-8.88-21.77-19.79S906,829.33,918,829.33s21.77,8.88,21.77,19.79S930,868.91,918,868.91Zm0-34.58c-9.24,0-16.77,6.64-16.77,14.79s7.53,14.79,16.77,14.79,16.77-6.63,16.77-14.79S927.24,834.33,918,834.33Z"/><ellipse class="cls-3" cx="918.57" cy="849.12" rx="4.68" ry="4.2"/><path class="cls-4" d="M918.57,855.82a6.72,6.72,0,1,1,7.18-6.7A7,7,0,0,1,918.57,855.82Zm0-8.4a1.75,1.75,0,1,0,2.18,1.7A2,2,0,0,0,918.57,847.42Z"/><ellipse class="cls-3" cx="872.14" cy="849.12" rx="19.27" ry="17.29"/><path class="cls-4" d="M872.14,868.91c-12,0-21.77-8.88-21.77-19.79s9.77-19.79,21.77-19.79,21.76,8.88,21.76,19.79S884.14,868.91,872.14,868.91Zm0-34.58c-9.24,0-16.77,6.64-16.77,14.79s7.53,14.79,16.77,14.79,16.76-6.63,16.76-14.79S881.38,834.33,872.14,834.33Z"/><ellipse class="cls-3" cx="872.71" cy="849.12" rx="4.68" ry="4.2"/><path class="cls-4" d="M872.71,855.82a6.72,6.72,0,1,1,7.18-6.7A7,7,0,0,1,872.71,855.82Zm0-8.4a1.75,1.75,0,1,0,2.18,1.7A2,2,0,0,0,872.71,847.42Z"/><ellipse class="cls-3" cx="752.28" cy="849.12" rx="19.27" ry="17.29"/><path class="cls-4" d="M752.28,868.91c-12,0-21.76-8.88-21.76-19.79s9.76-19.79,21.76-19.79,21.77,8.88,21.77,19.79S764.29,868.91,752.28,868.91Zm0-34.58c-9.24,0-16.76,6.64-16.76,14.79s7.52,14.79,16.76,14.79,16.77-6.63,16.77-14.79S761.53,834.33,752.28,834.33Z"/><ellipse class="cls-3" cx="752.86" cy="849.12" rx="4.68" ry="4.2"/><path class="cls-4" d="M752.86,855.82a6.72,6.72,0,1,1,7.17-6.7A7,7,0,0,1,752.86,855.82Zm0-8.4a1.75,1.75,0,1,0,2.17,1.7A2,2,0,0,0,752.86,847.42Z"/><ellipse class="cls-3" cx="704.04" cy="849.12" rx="19.27" ry="17.29"/><path class="cls-4" d="M704,868.91c-12,0-21.76-8.88-21.76-19.79S692,829.33,704,829.33s21.77,8.88,21.77,19.79S716.05,868.91,704,868.91Zm0-34.58c-9.24,0-16.76,6.64-16.76,14.79s7.52,14.79,16.76,14.79,16.77-6.63,16.77-14.79S713.29,834.33,704,834.33Z"/><ellipse class="cls-3" cx="704.62" cy="849.12" rx="4.68" ry="4.2"/><path class="cls-4" d="M704.62,855.82a6.72,6.72,0,1,1,7.17-6.7A7,7,0,0,1,704.62,855.82Zm0-8.4a1.75,1.75,0,1,0,2.17,1.7A2,2,0,0,0,704.62,847.42Z"/><line class="cls-3" x1="975.92" y1="866.41" x2="651.45" y2="866.41"/><rect class="cls-4" x="651.45" y="863.91" width="324.47" height="5"/><rect class="cls-3" x="657.31" y="812.63" width="306.42" height="19.2" transform="translate(1621.05 1644.47) rotate(-180)"/><path class="cls-4" d="M966.24,834.33H654.81v-24.2H966.24Zm-306.43-5H961.24v-14.2H659.81Z"/><rect class="cls-3" x="689.43" y="707.8" width="248.5" height="108.87" rx="4.85" transform="translate(1627.37 1524.48) rotate(-180)"/><path class="cls-4" d="M933.09,821.68H694.28a9.85,9.85,0,0,1-9.84-9.85V712.65a9.85,9.85,0,0,1,9.84-9.85H933.09a9.86,9.86,0,0,1,9.85,9.85v99.18A9.86,9.86,0,0,1,933.09,821.68Zm-238.65-10h238.5V712.8H694.44Z"/><line class="cls-3" x1="884.95" y1="743.33" x2="884.95" y2="781.15"/><rect class="cls-4" x="879.95" y="743.33" width="10" height="37.82"/><line class="cls-3" x1="816.53" y1="743.33" x2="816.53" y2="781.15"/><rect class="cls-4" x="811.53" y="743.33" width="10" height="37.82"/><line class="cls-3" x1="742.42" y1="743.33" x2="742.42" y2="781.15"/><rect class="cls-4" x="737.42" y="743.33" width="10" height="37.82"/><ellipse class="cls-3" cx="918" cy="849.12" rx="19.27" ry="17.29"/><path class="cls-4" d="M918,868.91c-12,0-21.77-8.88-21.77-19.79S906,829.33,918,829.33s21.77,8.88,21.77,19.79S930,868.91,918,868.91Zm0-34.58c-9.24,0-16.77,6.64-16.77,14.79s7.53,14.79,16.77,14.79,16.77-6.63,16.77-14.79S927.24,834.33,918,834.33Z"/><ellipse class="cls-3" cx="918.57" cy="849.12" rx="4.68" ry="4.2"/><path class="cls-4" d="M918.57,855.82a6.72,6.72,0,1,1,7.18-6.7A7,7,0,0,1,918.57,855.82Zm0-8.4a1.75,1.75,0,1,0,2.18,1.7A2,2,0,0,0,918.57,847.42Z"/><ellipse class="cls-3" cx="872.14" cy="849.12" rx="19.27" ry="17.29"/><path class="cls-4" d="M872.14,868.91c-12,0-21.77-8.88-21.77-19.79s9.77-19.79,21.77-19.79,21.76,8.88,21.76,19.79S884.14,868.91,872.14,868.91Zm0-34.58c-9.24,0-16.77,6.64-16.77,14.79s7.53,14.79,16.77,14.79,16.76-6.63,16.76-14.79S881.38,834.33,872.14,834.33Z"/><ellipse class="cls-3" cx="872.71" cy="849.12" rx="4.68" ry="4.2"/><path class="cls-4" d="M872.71,855.82a6.72,6.72,0,1,1,7.18-6.7A7,7,0,0,1,872.71,855.82Zm0-8.4a1.75,1.75,0,1,0,2.18,1.7A2,2,0,0,0,872.71,847.42Z"/><ellipse class="cls-3" cx="752.28" cy="849.12" rx="19.27" ry="17.29"/><path class="cls-4" d="M752.28,868.91c-12,0-21.76-8.88-21.76-19.79s9.76-19.79,21.76-19.79,21.77,8.88,21.77,19.79S764.29,868.91,752.28,868.91Zm0-34.58c-9.24,0-16.76,6.64-16.76,14.79s7.52,14.79,16.76,14.79,16.77-6.63,16.77-14.79S761.53,834.33,752.28,834.33Z"/><ellipse class="cls-3" cx="752.86" cy="849.12" rx="4.68" ry="4.2"/><path class="cls-4" d="M752.86,855.82a6.72,6.72,0,1,1,7.17-6.7A7,7,0,0,1,752.86,855.82Zm0-8.4a1.75,1.75,0,1,0,2.17,1.7A2,2,0,0,0,752.86,847.42Z"/><ellipse class="cls-3" cx="704.04" cy="849.12" rx="19.27" ry="17.29"/><path class="cls-4" d="M704,868.91c-12,0-21.76-8.88-21.76-19.79S692,829.33,704,829.33s21.77,8.88,21.77,19.79S716.05,868.91,704,868.91Zm0-34.58c-9.24,0-16.76,6.64-16.76,14.79s7.52,14.79,16.76,14.79,16.77-6.63,16.77-14.79S713.29,834.33,704,834.33Z"/><ellipse class="cls-3" cx="704.62" cy="849.12" rx="4.68" ry="4.2"/><path class="cls-4" d="M704.62,855.82a6.72,6.72,0,1,1,7.17-6.7A7,7,0,0,1,704.62,855.82Zm0-8.4a1.75,1.75,0,1,0,2.17,1.7A2,2,0,0,0,704.62,847.42Z"/><line class="cls-3" x1="975.92" y1="866.41" x2="651.45" y2="866.41"/><path class="cls-4" d="M975.92,868.91H651.45a2.5,2.5,0,0,1,0-5H975.92a2.5,2.5,0,0,1,0,5Z"/><rect class="cls-3" x="657.31" y="812.63" width="306.42" height="19.2" transform="translate(1621.05 1644.47) rotate(-180)"/><path class="cls-4" d="M966.24,834.33H654.81v-24.2H966.24Zm-306.43-5H961.24v-14.2H659.81Z"/><ellipse class="cls-3" cx="593.53" cy="849.12" rx="19.27" ry="17.29"/><path class="cls-4" d="M593.53,868.91c-12,0-21.77-8.88-21.77-19.79s9.76-19.79,21.77-19.79,21.76,8.88,21.76,19.79S605.53,868.91,593.53,868.91Zm0-34.58c-9.25,0-16.77,6.64-16.77,14.79s7.52,14.79,16.77,14.79,16.76-6.63,16.76-14.79S602.77,834.33,593.53,834.33Z"/><ellipse class="cls-3" cx="594.1" cy="849.12" rx="4.68" ry="4.2"/><path class="cls-4" d="M594.1,855.82a6.72,6.72,0,1,1,7.18-6.7A7,7,0,0,1,594.1,855.82Zm0-8.4a1.75,1.75,0,1,0,2.18,1.7A2,2,0,0,0,594.1,847.42Z"/><ellipse class="cls-3" cx="547.67" cy="849.12" rx="19.27" ry="17.29"/><path class="cls-4" d="M547.67,868.91c-12,0-21.77-8.88-21.77-19.79s9.76-19.79,21.77-19.79,21.76,8.88,21.76,19.79S559.67,868.91,547.67,868.91Zm0-34.58c-9.25,0-16.77,6.64-16.77,14.79s7.52,14.79,16.77,14.79,16.76-6.63,16.76-14.79S556.91,834.33,547.67,834.33Z"/><ellipse class="cls-3" cx="548.24" cy="849.12" rx="4.68" ry="4.2"/><path class="cls-4" d="M548.24,855.82a6.72,6.72,0,1,1,7.18-6.7A7,7,0,0,1,548.24,855.82Zm0-8.4a1.75,1.75,0,1,0,2.18,1.7A2,2,0,0,0,548.24,847.42Z"/><ellipse class="cls-3" cx="427.81" cy="849.12" rx="19.27" ry="17.29"/><path class="cls-4" d="M427.81,868.91c-12,0-21.77-8.88-21.77-19.79s9.77-19.79,21.77-19.79,21.77,8.88,21.77,19.79S439.81,868.91,427.81,868.91Zm0-34.58c-9.25,0-16.77,6.64-16.77,14.79s7.52,14.79,16.77,14.79,16.77-6.63,16.77-14.79S437.05,834.33,427.81,834.33Z"/><ellipse class="cls-3" cx="428.38" cy="849.12" rx="4.68" ry="4.2"/><path class="cls-4" d="M428.38,855.82a6.72,6.72,0,1,1,7.18-6.7A7,7,0,0,1,428.38,855.82Zm0-8.4a1.75,1.75,0,1,0,2.18,1.7A2,2,0,0,0,428.38,847.42Z"/><ellipse class="cls-3" cx="379.57" cy="849.12" rx="19.27" ry="17.29"/><path class="cls-4" d="M379.57,868.91c-12,0-21.77-8.88-21.77-19.79s9.77-19.79,21.77-19.79,21.76,8.88,21.76,19.79S391.57,868.91,379.57,868.91Zm0-34.58c-9.25,0-16.77,6.64-16.77,14.79s7.52,14.79,16.77,14.79,16.76-6.63,16.76-14.79S388.81,834.33,379.57,834.33Z"/><ellipse class="cls-3" cx="380.14" cy="849.12" rx="4.68" ry="4.2"/><path class="cls-4" d="M380.14,855.82a6.72,6.72,0,1,1,7.18-6.7A7,7,0,0,1,380.14,855.82Zm0-8.4a1.75,1.75,0,1,0,2.18,1.7A2,2,0,0,0,380.14,847.42Z"/><line class="cls-3" x1="651.45" y1="866.41" x2="326.97" y2="866.41"/><rect class="cls-4" x="326.97" y="863.91" width="324.47" height="5"/><rect class="cls-3" x="332.84" y="812.63" width="306.42" height="19.2" transform="translate(972.1 1644.47) rotate(-180)"/><path class="cls-4" d="M641.77,834.33H330.34v-24.2H641.77Zm-306.43-5H636.77v-14.2H335.34Z"/><rect class="cls-3" x="364.96" y="707.8" width="248.5" height="108.87" rx="4.85" transform="translate(978.42 1524.48) rotate(-180)"/><path class="cls-4" d="M608.61,821.68H369.81a9.86,9.86,0,0,1-9.85-9.85V712.65a9.86,9.86,0,0,1,9.85-9.85h238.8a9.86,9.86,0,0,1,9.85,9.85v99.18A9.86,9.86,0,0,1,608.61,821.68ZM370,811.68h238.5V712.8H370Z"/><line class="cls-3" x1="560.48" y1="743.33" x2="560.48" y2="781.15"/><rect class="cls-4" x="555.48" y="743.33" width="10" height="37.82"/><line class="cls-3" x1="492.06" y1="743.33" x2="492.06" y2="781.15"/><rect class="cls-4" x="487.06" y="743.33" width="10" height="37.82"/><line class="cls-3" x1="417.94" y1="743.33" x2="417.94" y2="781.15"/><rect class="cls-4" x="412.94" y="743.33" width="10" height="37.82"/><ellipse class="cls-3" cx="593.53" cy="849.12" rx="19.27" ry="17.29"/><path class="cls-4" d="M593.53,868.91c-12,0-21.77-8.88-21.77-19.79s9.76-19.79,21.77-19.79,21.76,8.88,21.76,19.79S605.53,868.91,593.53,868.91Zm0-34.58c-9.25,0-16.77,6.64-16.77,14.79s7.52,14.79,16.77,14.79,16.76-6.63,16.76-14.79S602.77,834.33,593.53,834.33Z"/><ellipse class="cls-3" cx="594.1" cy="849.12" rx="4.68" ry="4.2"/><path class="cls-4" d="M594.1,855.82a6.72,6.72,0,1,1,7.18-6.7A7,7,0,0,1,594.1,855.82Zm0-8.4a1.75,1.75,0,1,0,2.18,1.7A2,2,0,0,0,594.1,847.42Z"/><ellipse class="cls-3" cx="547.67" cy="849.12" rx="19.27" ry="17.29"/><path class="cls-4" d="M547.67,868.91c-12,0-21.77-8.88-21.77-19.79s9.76-19.79,21.77-19.79,21.76,8.88,21.76,19.79S559.67,868.91,547.67,868.91Zm0-34.58c-9.25,0-16.77,6.64-16.77,14.79s7.52,14.79,16.77,14.79,16.76-6.63,16.76-14.79S556.91,834.33,547.67,834.33Z"/><ellipse class="cls-3" cx="548.24" cy="849.12" rx="4.68" ry="4.2"/><path class="cls-4" d="M548.24,855.82a6.72,6.72,0,1,1,7.18-6.7A7,7,0,0,1,548.24,855.82Zm0-8.4a1.75,1.75,0,1,0,2.18,1.7A2,2,0,0,0,548.24,847.42Z"/><ellipse class="cls-3" cx="427.81" cy="849.12" rx="19.27" ry="17.29"/><path class="cls-4" d="M427.81,868.91c-12,0-21.77-8.88-21.77-19.79s9.77-19.79,21.77-19.79,21.77,8.88,21.77,19.79S439.81,868.91,427.81,868.91Zm0-34.58c-9.25,0-16.77,6.64-16.77,14.79s7.52,14.79,16.77,14.79,16.77-6.63,16.77-14.79S437.05,834.33,427.81,834.33Z"/><ellipse class="cls-3" cx="428.38" cy="849.12" rx="4.68" ry="4.2"/><path class="cls-4" d="M428.38,855.82a6.72,6.72,0,1,1,7.18-6.7A7,7,0,0,1,428.38,855.82Zm0-8.4a1.75,1.75,0,1,0,2.18,1.7A2,2,0,0,0,428.38,847.42Z"/><ellipse class="cls-3" cx="379.57" cy="849.12" rx="19.27" ry="17.29"/><path class="cls-4" d="M379.57,868.91c-12,0-21.77-8.88-21.77-19.79s9.77-19.79,21.77-19.79,21.76,8.88,21.76,19.79S391.57,868.91,379.57,868.91Zm0-34.58c-9.25,0-16.77,6.64-16.77,14.79s7.52,14.79,16.77,14.79,16.76-6.63,16.76-14.79S388.81,834.33,379.57,834.33Z"/><ellipse class="cls-3" cx="380.14" cy="849.12" rx="4.68" ry="4.2"/><path class="cls-4" d="M380.14,855.82a6.72,6.72,0,1,1,7.18-6.7A7,7,0,0,1,380.14,855.82Zm0-8.4a1.75,1.75,0,1,0,2.18,1.7A2,2,0,0,0,380.14,847.42Z"/><line class="cls-3" x1="651.45" y1="866.41" x2="326.97" y2="866.41"/><path class="cls-4" d="M651.45,868.91H327a2.5,2.5,0,0,1,0-5H651.45a2.5,2.5,0,0,1,0,5Z"/><rect class="cls-3" x="332.84" y="812.63" width="306.42" height="19.2" transform="translate(972.1 1644.47) rotate(-180)"/><path class="cls-4" d="M641.77,834.33H330.34v-24.2H641.77Zm-306.43-5H636.77v-14.2H335.34Z"/><ellipse class="cls-3" cx="269.05" cy="849.12" rx="19.27" ry="17.29"/><path class="cls-4" d="M269.05,868.91c-12,0-21.76-8.88-21.76-19.79s9.76-19.79,21.76-19.79,21.77,8.88,21.77,19.79S281.05,868.91,269.05,868.91Zm0-34.58c-9.24,0-16.76,6.64-16.76,14.79s7.52,14.79,16.76,14.79,16.77-6.63,16.77-14.79S278.3,834.33,269.05,834.33Z"/><ellipse class="cls-3" cx="269.63" cy="849.12" rx="4.68" ry="4.2"/><path class="cls-4" d="M269.63,855.82a6.72,6.72,0,1,1,7.17-6.7A7,7,0,0,1,269.63,855.82Zm0-8.4a1.75,1.75,0,1,0,2.17,1.7A2,2,0,0,0,269.63,847.42Z"/><ellipse class="cls-3" cx="223.19" cy="849.12" rx="19.27" ry="17.29"/><path class="cls-4" d="M223.19,868.91c-12,0-21.76-8.88-21.76-19.79s9.76-19.79,21.76-19.79S245,838.21,245,849.12,235.19,868.91,223.19,868.91Zm0-34.58c-9.24,0-16.76,6.64-16.76,14.79s7.52,14.79,16.76,14.79S240,857.28,240,849.12,232.44,834.33,223.19,834.33Z"/><ellipse class="cls-3" cx="223.77" cy="849.12" rx="4.68" ry="4.2"/><path class="cls-4" d="M223.77,855.82a6.72,6.72,0,1,1,7.17-6.7A7,7,0,0,1,223.77,855.82Zm0-8.4a1.75,1.75,0,1,0,2.17,1.7A2,2,0,0,0,223.77,847.42Z"/><ellipse class="cls-3" cx="103.34" cy="849.12" rx="19.27" ry="17.29"/><path class="cls-4" d="M103.34,868.91c-12,0-21.77-8.88-21.77-19.79s9.76-19.79,21.77-19.79,21.76,8.88,21.76,19.79S115.34,868.91,103.34,868.91Zm0-34.58c-9.25,0-16.77,6.64-16.77,14.79s7.52,14.79,16.77,14.79,16.76-6.63,16.76-14.79S112.58,834.33,103.34,834.33Z"/><ellipse class="cls-3" cx="103.91" cy="849.12" rx="4.68" ry="4.2"/><path class="cls-4" d="M103.91,855.82a6.72,6.72,0,1,1,7.18-6.7A7,7,0,0,1,103.91,855.82Zm0-8.4a1.75,1.75,0,1,0,2.18,1.7A2,2,0,0,0,103.91,847.42Z"/><ellipse class="cls-3" cx="55.1" cy="849.12" rx="19.27" ry="17.29"/><path class="cls-4" d="M55.1,868.91c-12,0-21.77-8.88-21.77-19.79s9.76-19.79,21.77-19.79,21.76,8.88,21.76,19.79S67.1,868.91,55.1,868.91Zm0-34.58c-9.25,0-16.77,6.64-16.77,14.79s7.52,14.79,16.77,14.79,16.76-6.63,16.76-14.79S64.34,834.33,55.1,834.33Z"/><ellipse class="cls-3" cx="55.67" cy="849.12" rx="4.68" ry="4.2"/><path class="cls-4" d="M55.67,855.82a6.72,6.72,0,1,1,7.18-6.7A7,7,0,0,1,55.67,855.82Zm0-8.4a1.75,1.75,0,1,0,2.18,1.7A2,2,0,0,0,55.67,847.42Z"/><line class="cls-3" x1="326.97" y1="866.41" x2="2.5" y2="866.41"/><rect class="cls-4" x="2.5" y="863.91" width="324.47" height="5"/><rect class="cls-3" x="8.37" y="812.63" width="306.42" height="19.2" transform="translate(323.16 1644.47) rotate(-180)"/><path class="cls-4" d="M317.29,834.33H5.87v-24.2H317.29Zm-306.42-5H312.29v-14.2H10.87Z"/><rect class="cls-3" x="40.49" y="707.8" width="248.5" height="108.87" rx="4.85" transform="translate(329.47 1524.48) rotate(-180)"/><path class="cls-4" d="M284.14,821.68H45.33a9.85,9.85,0,0,1-9.84-9.85V712.65a9.85,9.85,0,0,1,9.84-9.85H284.14a9.86,9.86,0,0,1,9.85,9.85v99.18A9.86,9.86,0,0,1,284.14,821.68Zm-238.65-10H284V712.8H45.49Z"/><line class="cls-3" x1="236" y1="743.33" x2="236" y2="781.15"/><rect class="cls-4" x="231" y="743.33" width="10" height="37.82"/><line class="cls-3" x1="167.59" y1="743.33" x2="167.59" y2="781.15"/><rect class="cls-4" x="162.59" y="743.33" width="10" height="37.82"/><line class="cls-3" x1="93.47" y1="743.33" x2="93.47" y2="781.15"/><rect class="cls-4" x="88.47" y="743.33" width="10" height="37.82"/><ellipse class="cls-3" cx="269.05" cy="849.12" rx="19.27" ry="17.29"/><path class="cls-4" d="M269.05,868.91c-12,0-21.76-8.88-21.76-19.79s9.76-19.79,21.76-19.79,21.77,8.88,21.77,19.79S281.05,868.91,269.05,868.91Zm0-34.58c-9.24,0-16.76,6.64-16.76,14.79s7.52,14.79,16.76,14.79,16.77-6.63,16.77-14.79S278.3,834.33,269.05,834.33Z"/><ellipse class="cls-3" cx="269.63" cy="849.12" rx="4.68" ry="4.2"/><path class="cls-4" d="M269.63,855.82a6.72,6.72,0,1,1,7.17-6.7A7,7,0,0,1,269.63,855.82Zm0-8.4a1.75,1.75,0,1,0,2.17,1.7A2,2,0,0,0,269.63,847.42Z"/><ellipse class="cls-3" cx="223.19" cy="849.12" rx="19.27" ry="17.29"/><path class="cls-4" d="M223.19,868.91c-12,0-21.76-8.88-21.76-19.79s9.76-19.79,21.76-19.79S245,838.21,245,849.12,235.19,868.91,223.19,868.91Zm0-34.58c-9.24,0-16.76,6.64-16.76,14.79s7.52,14.79,16.76,14.79S240,857.28,240,849.12,232.44,834.33,223.19,834.33Z"/><ellipse class="cls-3" cx="223.77" cy="849.12" rx="4.68" ry="4.2"/><path class="cls-4" d="M223.77,855.82a6.72,6.72,0,1,1,7.17-6.7A7,7,0,0,1,223.77,855.82Zm0-8.4a1.75,1.75,0,1,0,2.17,1.7A2,2,0,0,0,223.77,847.42Z"/><ellipse class="cls-3" cx="103.34" cy="849.12" rx="19.27" ry="17.29"/><path class="cls-4" d="M103.34,868.91c-12,0-21.77-8.88-21.77-19.79s9.76-19.79,21.77-19.79,21.76,8.88,21.76,19.79S115.34,868.91,103.34,868.91Zm0-34.58c-9.25,0-16.77,6.64-16.77,14.79s7.52,14.79,16.77,14.79,16.76-6.63,16.76-14.79S112.58,834.33,103.34,834.33Z"/><ellipse class="cls-3" cx="103.91" cy="849.12" rx="4.68" ry="4.2"/><path class="cls-4" d="M103.91,855.82a6.72,6.72,0,1,1,7.18-6.7A7,7,0,0,1,103.91,855.82Zm0-8.4a1.75,1.75,0,1,0,2.18,1.7A2,2,0,0,0,103.91,847.42Z"/><ellipse class="cls-3" cx="55.1" cy="849.12" rx="19.27" ry="17.29"/><path class="cls-4" d="M55.1,868.91c-12,0-21.77-8.88-21.77-19.79s9.76-19.79,21.77-19.79,21.76,8.88,21.76,19.79S67.1,868.91,55.1,868.91Zm0-34.58c-9.25,0-16.77,6.64-16.77,14.79s7.52,14.79,16.77,14.79,16.76-6.63,16.76-14.79S64.34,834.33,55.1,834.33Z"/><ellipse class="cls-3" cx="55.67" cy="849.12" rx="4.68" ry="4.2"/><path class="cls-4" d="M55.67,855.82a6.72,6.72,0,1,1,7.18-6.7A7,7,0,0,1,55.67,855.82Zm0-8.4a1.75,1.75,0,1,0,2.18,1.7A2,2,0,0,0,55.67,847.42Z"/><line class="cls-3" x1="326.97" y1="866.41" x2="2.5" y2="866.41"/><path class="cls-4" d="M327,868.91H2.5a2.5,2.5,0,0,1,0-5H327a2.5,2.5,0,1,1,0,5Z"/><rect class="cls-3" x="8.37" y="812.63" width="306.42" height="19.2" transform="translate(323.16 1644.47) rotate(-180)"/><path class="cls-4" d="M317.29,834.33H5.87v-24.2H317.29Zm-306.42-5H312.29v-14.2H10.87Z"/><rect class="cls-3" x="1208.02" y="704.14" width="36.51" height="88.6" rx="5.74" transform="translate(2452.54 1496.89) rotate(-180)"/><path class="cls-4" d="M1238.78,797.75h-25A10.76,10.76,0,0,1,1203,787V709.89a10.76,10.76,0,0,1,10.74-10.75h25a10.76,10.76,0,0,1,10.75,10.75V787A10.76,10.76,0,0,1,1238.78,797.75Zm-25-88.61a.75.75,0,0,0-.74.75V787a.75.75,0,0,0,.74.75h25a.76.76,0,0,0,.75-.75V709.89a.76.76,0,0,0-.75-.75Z"/><line class="cls-3" x1="1139.59" y1="719.4" x2="977.4" y2="719.4"/><path class="cls-4" d="M1139.59,724.4H977.4a5,5,0,0,1,0-10h162.19a5,5,0,0,1,0,10Z"/><line class="cls-3" x1="1139.59" y1="757.11" x2="977.4" y2="757.11"/><path class="cls-4" d="M1139.59,762.11H977.4a5,5,0,0,1,0-10h162.19a5,5,0,0,1,0,10Z"/><line class="cls-3" x1="1244.53" y1="811.45" x2="1208.02" y2="811.45"/><path class="cls-4" d="M1244.53,816.45H1208a5,5,0,0,1,0-10h36.51a5,5,0,0,1,0,10Z"/><path class="cls-3" d="M1173.81,688V675.92a5.75,5.75,0,0,0-5.75-5.74H1106a5.75,5.75,0,0,0-5.75,5.74V688"/><path class="cls-4" d="M1178.81,688h-10V675.92a.75.75,0,0,0-.75-.74H1106a.75.75,0,0,0-.75.74V688h-10V675.92A10.76,10.76,0,0,1,1106,665.18h62.1a10.76,10.76,0,0,1,10.75,10.74Z"/><circle class="cls-1" cx="653.78" cy="186.65" r="106.42"/><path class="cls-2" d="M653.78,298.09A111.44,111.44,0,1,1,765.22,186.65,111.56,111.56,0,0,1,653.78,298.09Zm0-212.83A101.39,101.39,0,1,0,755.17,186.65,101.51,101.51,0,0,0,653.78,85.26Z"/></g></g></svg>