<svg xmlns="http://www.w3.org/2000/svg" viewBox="0 0 1307.56 755.91"><defs><style>.cls-1{fill:#fdfefe;}.cls-2{fill:#be202c;}.cls-3{fill:#fff;}.cls-4{fill:#424146;}</style></defs><title>6</title><g id="Layer_2" data-name="Layer 2"><g id="Layer_9" data-name="Layer 9"><circle class="cls-1" cx="652.5" cy="377.95" r="372.93"/><path class="cls-2" d="M652.5,755.91A378.06,378.06,0,0,1,505.38,29.7,378.06,378.06,0,0,1,799.62,726.21,375.78,375.78,0,0,1,652.5,755.91Zm0-745.86c-202.86,0-367.9,165-367.9,367.9s165,367.91,367.9,367.91,367.9-165,367.9-367.91S855.36,10.05,652.5,10.05Z"/><polygon class="cls-2" points="562.4 534.85 444.72 426.44 454.88 415.4 561.98 514.07 849.9 226.14 860.5 236.75 562.4 534.85"/><line class="cls-3" x1="1198.09" y1="726.83" x2="1086.31" y2="726.83"/><rect class="cls-4" x="1086.31" y="721.83" width="111.78" height="10"/><path class="cls-3" d="M1198.66,734.1s-14-3.62-14.52-7.64"/><path class="cls-4" d="M1198,736.52c-5.86-1.51-15.77-4.79-16.38-9.76l5-.61c0-.07,0-.11,0-.11.62,1.39,6.67,4.08,12.69,5.64Z"/><circle class="cls-3" cx="1243.95" cy="734.1" r="19.27"/><path class="cls-4" d="M1244,755.86a21.77,21.77,0,1,1,21.77-21.76A21.78,21.78,0,0,1,1244,755.86Zm0-38.53a16.77,16.77,0,1,0,16.77,16.77A16.79,16.79,0,0,0,1244,717.33Z"/><circle class="cls-3" cx="1244.53" cy="734.1" r="4.68"/><path class="cls-4" d="M1244.53,741.28a7.18,7.18,0,1,1,7.17-7.18A7.19,7.19,0,0,1,1244.53,741.28Zm0-9.36a2.18,2.18,0,1,0,2.17,2.18A2.19,2.19,0,0,0,1244.53,731.92Z"/><circle class="cls-3" cx="1198.09" cy="734.1" r="19.27"/><path class="cls-4" d="M1198.09,755.86a21.77,21.77,0,1,1,21.77-21.76A21.79,21.79,0,0,1,1198.09,755.86Zm0-38.53a16.77,16.77,0,1,0,16.77,16.77A16.8,16.8,0,0,0,1198.09,717.33Z"/><circle class="cls-3" cx="1198.66" cy="734.1" r="4.68"/><path class="cls-4" d="M1198.66,741.28a7.18,7.18,0,1,1,7.18-7.18A7.18,7.18,0,0,1,1198.66,741.28Zm0-9.36a2.18,2.18,0,1,0,2.18,2.18A2.18,2.18,0,0,0,1198.66,731.92Z"/><circle class="cls-3" cx="1078.23" cy="734.1" r="19.27"/><path class="cls-4" d="M1078.23,755.86A21.77,21.77,0,1,1,1100,734.1,21.78,21.78,0,0,1,1078.23,755.86Zm0-38.53A16.77,16.77,0,1,0,1095,734.1,16.79,16.79,0,0,0,1078.23,717.33Z"/><circle class="cls-3" cx="1078.81" cy="734.1" r="4.68"/><path class="cls-4" d="M1078.81,741.28a7.18,7.18,0,1,1,7.17-7.18A7.19,7.19,0,0,1,1078.81,741.28Zm0-9.36a2.18,2.18,0,1,0,2.17,2.18A2.19,2.19,0,0,0,1078.81,731.92Z"/><circle class="cls-3" cx="1029.99" cy="734.1" r="19.27"/><path class="cls-4" d="M1030,755.86a21.77,21.77,0,1,1,21.77-21.76A21.78,21.78,0,0,1,1030,755.86Zm0-38.53a16.77,16.77,0,1,0,16.77,16.77A16.79,16.79,0,0,0,1030,717.33Z"/><circle class="cls-3" cx="1030.57" cy="734.1" r="4.68"/><path class="cls-4" d="M1030.57,741.28a7.18,7.18,0,1,1,7.17-7.18A7.19,7.19,0,0,1,1030.57,741.28Zm0-9.36a2.18,2.18,0,1,0,2.17,2.18A2.19,2.19,0,0,0,1030.57,731.92Z"/><path class="cls-3" d="M1248.55,715.7h14.67s6.94,7.06,12.48,4.48c6.65,1.11-2.58,12.55,7.38,17s15.51,1.62,15.51,1.62,24.7-164.22-50-164.22H983.14a5.74,5.74,0,0,0-5.74,5.74V710a5.74,5.74,0,0,0,5.74,5.74h265.41"/><path class="cls-4" d="M1293.56,744.65a30.78,30.78,0,0,1-12.51-2.92c-8.74-3.88-8.11-11.94-7.81-15.81,0,0,0-.11,0-.16-5,.09-9.59-3.07-12-5.06H983.14A10.75,10.75,0,0,1,972.4,710V580.3a10.75,10.75,0,0,1,10.74-10.74h265.41c14.35,0,26.35,5.49,35.68,16.33,35.69,41.46,20,149.07,19.3,153.63l-.38,2.54-2.29,1.17A16.7,16.7,0,0,1,1293.56,744.65ZM1275,715l1.53.26c7.49,1.25,6.91,8.66,6.69,11.45-.33,4.24-.08,5,1.91,5.89a20.08,20.08,0,0,0,9,2.07c2.36-18.53,12-108.1-17.46-142.25-7.44-8.65-16.63-12.85-28.09-12.85H983.14a.74.74,0,0,0-.74.74V710a.74.74,0,0,0,.74.74h282.17l1.47,1.49c2,2,5.54,4.06,6.81,3.46Z"/><path class="cls-3" d="M1301.87,660.63s-29.12,2.71-31.83,0-9.22-66.47-6.82-69.91S1293.83,587.29,1301.87,660.63Z"/><path class="cls-4" d="M1280.3,666.88c-11.08,0-12.75-1.67-13.8-2.72-1.24-1.24-3.33-3.33-6.76-37.71-3.44-34.53-1.68-37.07-.63-38.58,2.05-3,6.68-4,11.8-2.71,8.57,2.18,29.24,13.84,35.93,74.92l.56,5-5.06.48C1292.45,666.53,1285.38,666.88,1280.3,666.88Zm-6.43-10.26c3.86.45,13.32.14,22.43-.54-5.31-41.34-17-54.86-23.62-59.26a13.08,13.08,0,0,0-5-2.14C1267.36,605.83,1271.43,646.86,1273.87,656.62Z"/><line class="cls-3" x1="1301.87" y1="753.36" x2="977.4" y2="753.36"/><path class="cls-4" d="M1301.87,755.86H977.4a2.5,2.5,0,0,1,0-5h324.47a2.5,2.5,0,0,1,0,5Z"/><polyline class="cls-3" points="1301.87 703.95 1262.7 703.95 1262.7 715.7"/><polygon class="cls-4" points="1267.7 715.7 1257.7 715.7 1257.7 698.95 1301.87 698.95 1301.87 708.95 1267.7 708.95 1267.7 715.7"/><ellipse class="cls-3" cx="918" cy="735.7" rx="19.27" ry="17.29"/><path class="cls-4" d="M918,755.49c-12,0-21.77-8.88-21.77-19.79S906,715.91,918,715.91s21.77,8.88,21.77,19.79S930,755.49,918,755.49Zm0-34.58c-9.24,0-16.77,6.63-16.77,14.79s7.53,14.79,16.77,14.79,16.77-6.64,16.77-14.79S927.24,720.91,918,720.91Z"/><ellipse class="cls-3" cx="918.57" cy="735.7" rx="4.68" ry="4.2"/><path class="cls-4" d="M918.57,742.39a6.71,6.71,0,1,1,7.18-6.69A7,7,0,0,1,918.57,742.39Zm0-8.39a1.75,1.75,0,1,0,2.18,1.7A2,2,0,0,0,918.57,734Z"/><ellipse class="cls-3" cx="872.14" cy="735.7" rx="19.27" ry="17.29"/><path class="cls-4" d="M872.14,755.49c-12,0-21.77-8.88-21.77-19.79s9.77-19.79,21.77-19.79,21.76,8.88,21.76,19.79S884.14,755.49,872.14,755.49Zm0-34.58c-9.24,0-16.77,6.63-16.77,14.79s7.53,14.79,16.77,14.79,16.76-6.64,16.76-14.79S881.38,720.91,872.14,720.91Z"/><ellipse class="cls-3" cx="872.71" cy="735.7" rx="4.68" ry="4.2"/><path class="cls-4" d="M872.71,742.39a6.71,6.71,0,1,1,7.18-6.69A7,7,0,0,1,872.71,742.39Zm0-8.39a1.75,1.75,0,1,0,2.18,1.7A2,2,0,0,0,872.71,734Z"/><ellipse class="cls-3" cx="752.28" cy="735.7" rx="19.27" ry="17.29"/><path class="cls-4" d="M752.28,755.49c-12,0-21.76-8.88-21.76-19.79s9.76-19.79,21.76-19.79,21.77,8.88,21.77,19.79S764.29,755.49,752.28,755.49Zm0-34.58c-9.24,0-16.76,6.63-16.76,14.79s7.52,14.79,16.76,14.79,16.77-6.64,16.77-14.79S761.53,720.91,752.28,720.91Z"/><ellipse class="cls-3" cx="752.86" cy="735.7" rx="4.68" ry="4.2"/><path class="cls-4" d="M752.86,742.39A6.71,6.71,0,1,1,760,735.7,7,7,0,0,1,752.86,742.39Zm0-8.39a1.75,1.75,0,1,0,2.17,1.7A2,2,0,0,0,752.86,734Z"/><ellipse class="cls-3" cx="704.04" cy="735.7" rx="19.27" ry="17.29"/><path class="cls-4" d="M704,755.49c-12,0-21.76-8.88-21.76-19.79S692,715.91,704,715.91s21.77,8.88,21.77,19.79S716.05,755.49,704,755.49Zm0-34.58c-9.24,0-16.76,6.63-16.76,14.79s7.52,14.79,16.76,14.79,16.77-6.64,16.77-14.79S713.29,720.91,704,720.91Z"/><ellipse class="cls-3" cx="704.62" cy="735.7" rx="4.68" ry="4.2"/><path class="cls-4" d="M704.62,742.39a6.71,6.71,0,1,1,7.17-6.69A7,7,0,0,1,704.62,742.39Zm0-8.39a1.75,1.75,0,1,0,2.17,1.7A2,2,0,0,0,704.62,734Z"/><line class="cls-3" x1="975.92" y1="752.99" x2="651.45" y2="752.99"/><rect class="cls-4" x="651.45" y="750.49" width="324.47" height="5"/><rect class="cls-3" x="657.31" y="699.21" width="306.42" height="19.2" transform="translate(1621.05 1417.62) rotate(-180)"/><path class="cls-4" d="M966.24,720.91H654.81v-24.2H966.24Zm-306.43-5H961.24v-14.2H659.81Z"/><rect class="cls-3" x="689.43" y="594.38" width="248.5" height="108.87" rx="4.85" transform="translate(1627.37 1297.64) rotate(-180)"/><path class="cls-4" d="M933.09,708.25H694.28a9.85,9.85,0,0,1-9.84-9.84V599.23a9.85,9.85,0,0,1,9.84-9.85H933.09a9.86,9.86,0,0,1,9.85,9.85v99.18A9.85,9.85,0,0,1,933.09,708.25Zm-238.65-10h238.5V599.38H694.44Z"/><line class="cls-3" x1="884.95" y1="629.91" x2="884.95" y2="667.73"/><rect class="cls-4" x="879.95" y="629.91" width="10" height="37.82"/><line class="cls-3" x1="816.53" y1="629.91" x2="816.53" y2="667.73"/><rect class="cls-4" x="811.53" y="629.91" width="10" height="37.82"/><line class="cls-3" x1="742.42" y1="629.91" x2="742.42" y2="667.73"/><rect class="cls-4" x="737.42" y="629.91" width="10" height="37.82"/><ellipse class="cls-3" cx="918" cy="735.7" rx="19.27" ry="17.29"/><path class="cls-4" d="M918,755.49c-12,0-21.77-8.88-21.77-19.79S906,715.91,918,715.91s21.77,8.88,21.77,19.79S930,755.49,918,755.49Zm0-34.58c-9.24,0-16.77,6.63-16.77,14.79s7.53,14.79,16.77,14.79,16.77-6.64,16.77-14.79S927.24,720.91,918,720.91Z"/><ellipse class="cls-3" cx="918.57" cy="735.7" rx="4.68" ry="4.2"/><path class="cls-4" d="M918.57,742.39a6.71,6.71,0,1,1,7.18-6.69A7,7,0,0,1,918.57,742.39Zm0-8.39a1.75,1.75,0,1,0,2.18,1.7A2,2,0,0,0,918.57,734Z"/><ellipse class="cls-3" cx="872.14" cy="735.7" rx="19.27" ry="17.29"/><path class="cls-4" d="M872.14,755.49c-12,0-21.77-8.88-21.77-19.79s9.77-19.79,21.77-19.79,21.76,8.88,21.76,19.79S884.14,755.49,872.14,755.49Zm0-34.58c-9.24,0-16.77,6.63-16.77,14.79s7.53,14.79,16.77,14.79,16.76-6.64,16.76-14.79S881.38,720.91,872.14,720.91Z"/><ellipse class="cls-3" cx="872.71" cy="735.7" rx="4.68" ry="4.2"/><path class="cls-4" d="M872.71,742.39a6.71,6.71,0,1,1,7.18-6.69A7,7,0,0,1,872.71,742.39Zm0-8.39a1.75,1.75,0,1,0,2.18,1.7A2,2,0,0,0,872.71,734Z"/><ellipse class="cls-3" cx="752.28" cy="735.7" rx="19.27" ry="17.29"/><path class="cls-4" d="M752.28,755.49c-12,0-21.76-8.88-21.76-19.79s9.76-19.79,21.76-19.79,21.77,8.88,21.77,19.79S764.29,755.49,752.28,755.49Zm0-34.58c-9.24,0-16.76,6.63-16.76,14.79s7.52,14.79,16.76,14.79,16.77-6.64,16.77-14.79S761.53,720.91,752.28,720.91Z"/><ellipse class="cls-3" cx="752.86" cy="735.7" rx="4.68" ry="4.2"/><path class="cls-4" d="M752.86,742.39A6.71,6.71,0,1,1,760,735.7,7,7,0,0,1,752.86,742.39Zm0-8.39a1.75,1.75,0,1,0,2.17,1.7A2,2,0,0,0,752.86,734Z"/><ellipse class="cls-3" cx="704.04" cy="735.7" rx="19.27" ry="17.29"/><path class="cls-4" d="M704,755.49c-12,0-21.76-8.88-21.76-19.79S692,715.91,704,715.91s21.77,8.88,21.77,19.79S716.05,755.49,704,755.49Zm0-34.58c-9.24,0-16.76,6.63-16.76,14.79s7.52,14.79,16.76,14.79,16.77-6.64,16.77-14.79S713.29,720.91,704,720.91Z"/><ellipse class="cls-3" cx="704.62" cy="735.7" rx="4.68" ry="4.2"/><path class="cls-4" d="M704.62,742.39a6.71,6.71,0,1,1,7.17-6.69A7,7,0,0,1,704.62,742.39Zm0-8.39a1.75,1.75,0,1,0,2.17,1.7A2,2,0,0,0,704.62,734Z"/><line class="cls-3" x1="975.92" y1="752.99" x2="651.45" y2="752.99"/><path class="cls-4" d="M975.92,755.49H651.45a2.5,2.5,0,0,1,0-5H975.92a2.5,2.5,0,0,1,0,5Z"/><rect class="cls-3" x="657.31" y="699.21" width="306.42" height="19.2" transform="translate(1621.05 1417.62) rotate(-180)"/><path class="cls-4" d="M966.24,720.91H654.81v-24.2H966.24Zm-306.43-5H961.24v-14.2H659.81Z"/><ellipse class="cls-3" cx="593.53" cy="735.7" rx="19.27" ry="17.29"/><path class="cls-4" d="M593.53,755.49c-12,0-21.77-8.88-21.77-19.79s9.76-19.79,21.77-19.79,21.76,8.88,21.76,19.79S605.53,755.49,593.53,755.49Zm0-34.58c-9.25,0-16.77,6.63-16.77,14.79s7.52,14.79,16.77,14.79,16.76-6.64,16.76-14.79S602.77,720.91,593.53,720.91Z"/><ellipse class="cls-3" cx="594.1" cy="735.7" rx="4.68" ry="4.2"/><path class="cls-4" d="M594.1,742.39a6.71,6.71,0,1,1,7.18-6.69A7,7,0,0,1,594.1,742.39Zm0-8.39a1.75,1.75,0,1,0,2.18,1.7A2,2,0,0,0,594.1,734Z"/><ellipse class="cls-3" cx="547.67" cy="735.7" rx="19.27" ry="17.29"/><path class="cls-4" d="M547.67,755.49c-12,0-21.77-8.88-21.77-19.79s9.76-19.79,21.77-19.79,21.76,8.88,21.76,19.79S559.67,755.49,547.67,755.49Zm0-34.58c-9.25,0-16.77,6.63-16.77,14.79s7.52,14.79,16.77,14.79,16.76-6.64,16.76-14.79S556.91,720.91,547.67,720.91Z"/><ellipse class="cls-3" cx="548.24" cy="735.7" rx="4.68" ry="4.2"/><path class="cls-4" d="M548.24,742.39a6.71,6.71,0,1,1,7.18-6.69A7,7,0,0,1,548.24,742.39Zm0-8.39a1.75,1.75,0,1,0,2.18,1.7A2,2,0,0,0,548.24,734Z"/><ellipse class="cls-3" cx="427.81" cy="735.7" rx="19.27" ry="17.29"/><path class="cls-4" d="M427.81,755.49c-12,0-21.77-8.88-21.77-19.79s9.77-19.79,21.77-19.79,21.77,8.88,21.77,19.79S439.81,755.49,427.81,755.49Zm0-34.58c-9.25,0-16.77,6.63-16.77,14.79s7.52,14.79,16.77,14.79,16.77-6.64,16.77-14.79S437.05,720.91,427.81,720.91Z"/><ellipse class="cls-3" cx="428.38" cy="735.7" rx="4.68" ry="4.2"/><path class="cls-4" d="M428.38,742.39a6.71,6.71,0,1,1,7.18-6.69A7,7,0,0,1,428.38,742.39Zm0-8.39a1.75,1.75,0,1,0,2.18,1.7A2,2,0,0,0,428.38,734Z"/><ellipse class="cls-3" cx="379.57" cy="735.7" rx="19.27" ry="17.29"/><path class="cls-4" d="M379.57,755.49c-12,0-21.77-8.88-21.77-19.79s9.77-19.79,21.77-19.79,21.76,8.88,21.76,19.79S391.57,755.49,379.57,755.49Zm0-34.58c-9.25,0-16.77,6.63-16.77,14.79s7.52,14.79,16.77,14.79,16.76-6.64,16.76-14.79S388.81,720.91,379.57,720.91Z"/><ellipse class="cls-3" cx="380.14" cy="735.7" rx="4.68" ry="4.2"/><path class="cls-4" d="M380.14,742.39a6.71,6.71,0,1,1,7.18-6.69A7,7,0,0,1,380.14,742.39Zm0-8.39a1.75,1.75,0,1,0,2.18,1.7A2,2,0,0,0,380.14,734Z"/><line class="cls-3" x1="651.45" y1="752.99" x2="326.97" y2="752.99"/><rect class="cls-4" x="326.97" y="750.49" width="324.47" height="5"/><rect class="cls-3" x="332.84" y="699.21" width="306.42" height="19.2" transform="translate(972.1 1417.62) rotate(-180)"/><path class="cls-4" d="M641.77,720.91H330.34v-24.2H641.77Zm-306.43-5H636.77v-14.2H335.34Z"/><rect class="cls-3" x="364.96" y="594.38" width="248.5" height="108.87" rx="4.85" transform="translate(978.42 1297.64) rotate(-180)"/><path class="cls-4" d="M608.61,708.25H369.81a9.85,9.85,0,0,1-9.85-9.84V599.23a9.86,9.86,0,0,1,9.85-9.85h238.8a9.86,9.86,0,0,1,9.85,9.85v99.18A9.85,9.85,0,0,1,608.61,708.25ZM370,698.25h238.5V599.38H370Z"/><line class="cls-3" x1="560.48" y1="629.91" x2="560.48" y2="667.73"/><rect class="cls-4" x="555.48" y="629.91" width="10" height="37.82"/><line class="cls-3" x1="492.06" y1="629.91" x2="492.06" y2="667.73"/><rect class="cls-4" x="487.06" y="629.91" width="10" height="37.82"/><line class="cls-3" x1="417.94" y1="629.91" x2="417.94" y2="667.73"/><rect class="cls-4" x="412.94" y="629.91" width="10" height="37.82"/><ellipse class="cls-3" cx="593.53" cy="735.7" rx="19.27" ry="17.29"/><path class="cls-4" d="M593.53,755.49c-12,0-21.77-8.88-21.77-19.79s9.76-19.79,21.77-19.79,21.76,8.88,21.76,19.79S605.53,755.49,593.53,755.49Zm0-34.58c-9.25,0-16.77,6.63-16.77,14.79s7.52,14.79,16.77,14.79,16.76-6.64,16.76-14.79S602.77,720.91,593.53,720.91Z"/><ellipse class="cls-3" cx="594.1" cy="735.7" rx="4.68" ry="4.2"/><path class="cls-4" d="M594.1,742.39a6.71,6.71,0,1,1,7.18-6.69A7,7,0,0,1,594.1,742.39Zm0-8.39a1.75,1.75,0,1,0,2.18,1.7A2,2,0,0,0,594.1,734Z"/><ellipse class="cls-3" cx="547.67" cy="735.7" rx="19.27" ry="17.29"/><path class="cls-4" d="M547.67,755.49c-12,0-21.77-8.88-21.77-19.79s9.76-19.79,21.77-19.79,21.76,8.88,21.76,19.79S559.67,755.49,547.67,755.49Zm0-34.58c-9.25,0-16.77,6.63-16.77,14.79s7.52,14.79,16.77,14.79,16.76-6.64,16.76-14.79S556.91,720.91,547.67,720.91Z"/><ellipse class="cls-3" cx="548.24" cy="735.7" rx="4.68" ry="4.2"/><path class="cls-4" d="M548.24,742.39a6.71,6.71,0,1,1,7.18-6.69A7,7,0,0,1,548.24,742.39Zm0-8.39a1.75,1.75,0,1,0,2.18,1.7A2,2,0,0,0,548.24,734Z"/><ellipse class="cls-3" cx="427.81" cy="735.7" rx="19.27" ry="17.29"/><path class="cls-4" d="M427.81,755.49c-12,0-21.77-8.88-21.77-19.79s9.77-19.79,21.77-19.79,21.77,8.88,21.77,19.79S439.81,755.49,427.81,755.49Zm0-34.58c-9.25,0-16.77,6.63-16.77,14.79s7.52,14.79,16.77,14.79,16.77-6.64,16.77-14.79S437.05,720.91,427.81,720.91Z"/><ellipse class="cls-3" cx="428.38" cy="735.7" rx="4.68" ry="4.2"/><path class="cls-4" d="M428.38,742.39a6.71,6.71,0,1,1,7.18-6.69A7,7,0,0,1,428.38,742.39Zm0-8.39a1.75,1.75,0,1,0,2.18,1.7A2,2,0,0,0,428.38,734Z"/><ellipse class="cls-3" cx="379.57" cy="735.7" rx="19.27" ry="17.29"/><path class="cls-4" d="M379.57,755.49c-12,0-21.77-8.88-21.77-19.79s9.77-19.79,21.77-19.79,21.76,8.88,21.76,19.79S391.57,755.49,379.57,755.49Zm0-34.58c-9.25,0-16.77,6.63-16.77,14.79s7.52,14.79,16.77,14.79,16.76-6.64,16.76-14.79S388.81,720.91,379.57,720.91Z"/><ellipse class="cls-3" cx="380.14" cy="735.7" rx="4.68" ry="4.2"/><path class="cls-4" d="M380.14,742.39a6.71,6.71,0,1,1,7.18-6.69A7,7,0,0,1,380.14,742.39Zm0-8.39a1.75,1.75,0,1,0,2.18,1.7A2,2,0,0,0,380.14,734Z"/><line class="cls-3" x1="651.45" y1="752.99" x2="326.97" y2="752.99"/><path class="cls-4" d="M651.45,755.49H327a2.5,2.5,0,0,1,0-5H651.45a2.5,2.5,0,0,1,0,5Z"/><rect class="cls-3" x="332.84" y="699.21" width="306.42" height="19.2" transform="translate(972.1 1417.62) rotate(-180)"/><path class="cls-4" d="M641.77,720.91H330.34v-24.2H641.77Zm-306.43-5H636.77v-14.2H335.34Z"/><ellipse class="cls-3" cx="269.05" cy="735.7" rx="19.27" ry="17.29"/><path class="cls-4" d="M269.05,755.49c-12,0-21.76-8.88-21.76-19.79s9.76-19.79,21.76-19.79,21.77,8.88,21.77,19.79S281.05,755.49,269.05,755.49Zm0-34.58c-9.24,0-16.76,6.63-16.76,14.79s7.52,14.79,16.76,14.79,16.77-6.64,16.77-14.79S278.3,720.91,269.05,720.91Z"/><ellipse class="cls-3" cx="269.63" cy="735.7" rx="4.68" ry="4.2"/><path class="cls-4" d="M269.63,742.39a6.71,6.71,0,1,1,7.17-6.69A7,7,0,0,1,269.63,742.39Zm0-8.39a1.75,1.75,0,1,0,2.17,1.7A2,2,0,0,0,269.63,734Z"/><ellipse class="cls-3" cx="223.19" cy="735.7" rx="19.27" ry="17.29"/><path class="cls-4" d="M223.19,755.49c-12,0-21.76-8.88-21.76-19.79s9.76-19.79,21.76-19.79S245,724.79,245,735.7,235.19,755.49,223.19,755.49Zm0-34.58c-9.24,0-16.76,6.63-16.76,14.79s7.52,14.79,16.76,14.79S240,743.85,240,735.7,232.44,720.91,223.19,720.91Z"/><ellipse class="cls-3" cx="223.77" cy="735.7" rx="4.68" ry="4.2"/><path class="cls-4" d="M223.77,742.39a6.71,6.71,0,1,1,7.17-6.69A7,7,0,0,1,223.77,742.39Zm0-8.39a1.75,1.75,0,1,0,2.17,1.7A2,2,0,0,0,223.77,734Z"/><ellipse class="cls-3" cx="103.34" cy="735.7" rx="19.27" ry="17.29"/><path class="cls-4" d="M103.34,755.49c-12,0-21.77-8.88-21.77-19.79s9.76-19.79,21.77-19.79,21.76,8.88,21.76,19.79S115.34,755.49,103.34,755.49Zm0-34.58c-9.25,0-16.77,6.63-16.77,14.79s7.52,14.79,16.77,14.79,16.76-6.64,16.76-14.79S112.58,720.91,103.34,720.91Z"/><ellipse class="cls-3" cx="103.91" cy="735.7" rx="4.68" ry="4.2"/><path class="cls-4" d="M103.91,742.39a6.71,6.71,0,1,1,7.18-6.69A7,7,0,0,1,103.91,742.39Zm0-8.39a1.75,1.75,0,1,0,2.18,1.7A2,2,0,0,0,103.91,734Z"/><ellipse class="cls-3" cx="55.1" cy="735.7" rx="19.27" ry="17.29"/><path class="cls-4" d="M55.1,755.49c-12,0-21.77-8.88-21.77-19.79s9.76-19.79,21.77-19.79,21.76,8.88,21.76,19.79S67.1,755.49,55.1,755.49Zm0-34.58c-9.25,0-16.77,6.63-16.77,14.79s7.52,14.79,16.77,14.79,16.76-6.64,16.76-14.79S64.34,720.91,55.1,720.91Z"/><ellipse class="cls-3" cx="55.67" cy="735.7" rx="4.68" ry="4.2"/><path class="cls-4" d="M55.67,742.39a6.71,6.71,0,1,1,7.18-6.69A7,7,0,0,1,55.67,742.39Zm0-8.39a1.75,1.75,0,1,0,2.18,1.7A2,2,0,0,0,55.67,734Z"/><line class="cls-3" x1="326.97" y1="752.99" x2="2.5" y2="752.99"/><rect class="cls-4" x="2.5" y="750.49" width="324.47" height="5"/><rect class="cls-3" x="8.37" y="699.21" width="306.42" height="19.2" transform="translate(323.16 1417.62) rotate(-180)"/><path class="cls-4" d="M317.29,720.91H5.87v-24.2H317.29Zm-306.42-5H312.29v-14.2H10.87Z"/><rect class="cls-3" x="40.49" y="594.38" width="248.5" height="108.87" rx="4.85" transform="translate(329.47 1297.64) rotate(-180)"/><path class="cls-4" d="M284.14,708.25H45.33a9.85,9.85,0,0,1-9.84-9.84V599.23a9.85,9.85,0,0,1,9.84-9.85H284.14a9.86,9.86,0,0,1,9.85,9.85v99.18A9.85,9.85,0,0,1,284.14,708.25Zm-238.65-10H284V599.38H45.49Z"/><line class="cls-3" x1="236" y1="629.91" x2="236" y2="667.73"/><rect class="cls-4" x="231" y="629.91" width="10" height="37.82"/><line class="cls-3" x1="167.59" y1="629.91" x2="167.59" y2="667.73"/><rect class="cls-4" x="162.59" y="629.91" width="10" height="37.82"/><line class="cls-3" x1="93.47" y1="629.91" x2="93.47" y2="667.73"/><rect class="cls-4" x="88.47" y="629.91" width="10" height="37.82"/><ellipse class="cls-3" cx="269.05" cy="735.7" rx="19.27" ry="17.29"/><path class="cls-4" d="M269.05,755.49c-12,0-21.76-8.88-21.76-19.79s9.76-19.79,21.76-19.79,21.77,8.88,21.77,19.79S281.05,755.49,269.05,755.49Zm0-34.58c-9.24,0-16.76,6.63-16.76,14.79s7.52,14.79,16.76,14.79,16.77-6.64,16.77-14.79S278.3,720.91,269.05,720.91Z"/><ellipse class="cls-3" cx="269.63" cy="735.7" rx="4.68" ry="4.2"/><path class="cls-4" d="M269.63,742.39a6.71,6.71,0,1,1,7.17-6.69A7,7,0,0,1,269.63,742.39Zm0-8.39a1.75,1.75,0,1,0,2.17,1.7A2,2,0,0,0,269.63,734Z"/><ellipse class="cls-3" cx="223.19" cy="735.7" rx="19.27" ry="17.29"/><path class="cls-4" d="M223.19,755.49c-12,0-21.76-8.88-21.76-19.79s9.76-19.79,21.76-19.79S245,724.79,245,735.7,235.19,755.49,223.19,755.49Zm0-34.58c-9.24,0-16.76,6.63-16.76,14.79s7.52,14.79,16.76,14.79S240,743.85,240,735.7,232.44,720.91,223.19,720.91Z"/><ellipse class="cls-3" cx="223.77" cy="735.7" rx="4.68" ry="4.2"/><path class="cls-4" d="M223.77,742.39a6.71,6.71,0,1,1,7.17-6.69A7,7,0,0,1,223.77,742.39Zm0-8.39a1.75,1.75,0,1,0,2.17,1.7A2,2,0,0,0,223.77,734Z"/><ellipse class="cls-3" cx="103.34" cy="735.7" rx="19.27" ry="17.29"/><path class="cls-4" d="M103.34,755.49c-12,0-21.77-8.88-21.77-19.79s9.76-19.79,21.77-19.79,21.76,8.88,21.76,19.79S115.34,755.49,103.34,755.49Zm0-34.58c-9.25,0-16.77,6.63-16.77,14.79s7.52,14.79,16.77,14.79,16.76-6.64,16.76-14.79S112.58,720.91,103.34,720.91Z"/><ellipse class="cls-3" cx="103.91" cy="735.7" rx="4.68" ry="4.2"/><path class="cls-4" d="M103.91,742.39a6.71,6.71,0,1,1,7.18-6.69A7,7,0,0,1,103.91,742.39Zm0-8.39a1.75,1.75,0,1,0,2.18,1.7A2,2,0,0,0,103.91,734Z"/><ellipse class="cls-3" cx="55.1" cy="735.7" rx="19.27" ry="17.29"/><path class="cls-4" d="M55.1,755.49c-12,0-21.77-8.88-21.77-19.79s9.76-19.79,21.77-19.79,21.76,8.88,21.76,19.79S67.1,755.49,55.1,755.49Zm0-34.58c-9.25,0-16.77,6.63-16.77,14.79s7.52,14.79,16.77,14.79,16.76-6.64,16.76-14.79S64.34,720.91,55.1,720.91Z"/><ellipse class="cls-3" cx="55.67" cy="735.7" rx="4.68" ry="4.2"/><path class="cls-4" d="M55.67,742.39a6.71,6.71,0,1,1,7.18-6.69A7,7,0,0,1,55.67,742.39Zm0-8.39a1.75,1.75,0,1,0,2.18,1.7A2,2,0,0,0,55.67,734Z"/><line class="cls-3" x1="326.97" y1="752.99" x2="2.5" y2="752.99"/><path class="cls-4" d="M327,755.49H2.5a2.5,2.5,0,0,1,0-5H327a2.5,2.5,0,0,1,0,5Z"/><rect class="cls-3" x="8.37" y="699.21" width="306.42" height="19.2" transform="translate(323.16 1417.62) rotate(-180)"/><path class="cls-4" d="M317.29,720.91H5.87v-24.2H317.29Zm-306.42-5H312.29v-14.2H10.87Z"/><rect class="cls-3" x="1208.02" y="590.72" width="36.51" height="88.6" rx="5.74" transform="translate(2452.54 1270.04) rotate(-180)"/><path class="cls-4" d="M1238.78,684.32h-25A10.75,10.75,0,0,1,1203,673.58V596.46a10.75,10.75,0,0,1,10.74-10.74h25a10.76,10.76,0,0,1,10.75,10.74v77.12A10.76,10.76,0,0,1,1238.78,684.32Zm-25-88.6a.74.74,0,0,0-.74.74v77.12a.74.74,0,0,0,.74.74h25a.75.75,0,0,0,.75-.74V596.46a.75.75,0,0,0-.75-.74Z"/><line class="cls-3" x1="1139.59" y1="605.98" x2="977.4" y2="605.98"/><path class="cls-4" d="M1139.59,611H977.4a5,5,0,0,1,0-10h162.19a5,5,0,0,1,0,10Z"/><line class="cls-3" x1="1139.59" y1="643.69" x2="977.4" y2="643.69"/><path class="cls-4" d="M1139.59,648.69H977.4a5,5,0,0,1,0-10h162.19a5,5,0,0,1,0,10Z"/><line class="cls-3" x1="1244.53" y1="698.03" x2="1208.02" y2="698.03"/><path class="cls-4" d="M1244.53,703H1208a5,5,0,0,1,0-10h36.51a5,5,0,0,1,0,10Z"/><path class="cls-3" d="M1173.81,574.56V562.5a5.76,5.76,0,0,0-5.75-5.75H1106a5.76,5.76,0,0,0-5.75,5.75v12.06"/><path class="cls-4" d="M1178.81,574.56h-10V562.5a.76.76,0,0,0-.75-.75H1106a.76.76,0,0,0-.75.75v12.06h-10V562.5A10.76,10.76,0,0,1,1106,551.75h62.1a10.76,10.76,0,0,1,10.75,10.75Z"/></g></g></svg>