<svg xmlns="http://www.w3.org/2000/svg" xmlns:xlink="http://www.w3.org/1999/xlink" viewBox="0 0 773.41 516.03"><defs><clipPath id="clip-path"><rect x="11.88" y="8.02" width="750" height="500" fill="none"/></clipPath><radialGradient id="radial-gradient" cx="386.7" cy="258.02" r="425.8" gradientUnits="userSpaceOnUse"><stop offset="0" stop-color="#c16630"/><stop offset="0.3" stop-color="#be202c"/><stop offset="1" stop-color="#424146"/></radialGradient><radialGradient id="radial-gradient-2" cx="233.38" cy="123.79" r="9.31" gradientTransform="matrix(0.53, 0.19, -1.1, 3.01, 254.3, -313.09)" gradientUnits="userSpaceOnUse"><stop offset="0" stop-color="#ff7384"/><stop offset="0" stop-color="#fd7182"/><stop offset="0.01" stop-color="#ea5867"/><stop offset="0.01" stop-color="#da4351"/><stop offset="0.02" stop-color="#cd3340"/><stop offset="0.02" stop-color="#c42835"/><stop offset="0.04" stop-color="#bf222e"/><stop offset="0.07" stop-color="#be202c"/><stop offset="0.1" stop-color="#a72631" stop-opacity="0.82"/><stop offset="0.15" stop-color="#902c36" stop-opacity="0.63"/><stop offset="0.2" stop-color="#7b323a" stop-opacity="0.46"/><stop offset="0.26" stop-color="#69373e" stop-opacity="0.31"/><stop offset="0.32" stop-color="#5a3b41" stop-opacity="0.2"/><stop offset="0.4" stop-color="#4f3d43" stop-opacity="0.11"/><stop offset="0.5" stop-color="#483f45" stop-opacity="0.05"/><stop offset="0.63" stop-color="#434146" stop-opacity="0.01"/><stop offset="0.99" stop-color="#424146" stop-opacity="0"/></radialGradient><radialGradient id="radial-gradient-3" cx="368.17" cy="281.32" r="4.85" gradientTransform="matrix(0, 0.56, -3.11, 0, 1124.02, 91.46)" gradientUnits="userSpaceOnUse"><stop offset="0" stop-color="#d14b59"/><stop offset="0.3" stop-color="#be202c"/><stop offset="0.99" stop-color="#424146" stop-opacity="0"/></radialGradient><radialGradient id="radial-gradient-4" cx="484.03" cy="59.7" r="9.31" gradientTransform="matrix(0.55, -0.11, 0.99, 5.03, 65.08, -128.63)" gradientUnits="userSpaceOnUse"><stop offset="0" stop-color="#ff7384"/><stop offset="0" stop-color="#fd7182"/><stop offset="0.01" stop-color="#ea5867"/><stop offset="0.03" stop-color="#da4351"/><stop offset="0.05" stop-color="#cd3340"/><stop offset="0.07" stop-color="#c42835"/><stop offset="0.1" stop-color="#bf222e"/><stop offset="0.19" stop-color="#be202c"/><stop offset="0.24" stop-color="#aa2530" stop-opacity="0.83"/><stop offset="0.33" stop-color="#8e2d36" stop-opacity="0.61"/><stop offset="0.42" stop-color="#77333b" stop-opacity="0.42"/><stop offset="0.51" stop-color="#63383f" stop-opacity="0.27"/><stop offset="0.61" stop-color="#553c42" stop-opacity="0.15"/><stop offset="0.71" stop-color="#4a3f44" stop-opacity="0.07"/><stop offset="0.83" stop-color="#444046" stop-opacity="0.02"/><stop offset="0.99" stop-color="#424146" stop-opacity="0"/></radialGradient><radialGradient id="radial-gradient-5" cx="5.89" cy="103.76" r="9.31" gradientTransform="matrix(-0.08, -0.55, 3.7, -0.53, -231.47, 253.55)" xlink:href="#radial-gradient-2"/><radialGradient id="radial-gradient-6" cx="683.12" cy="146.69" r="8.06" gradientTransform="matrix(0.23, 0.51, -2.93, 1.33, 788.46, -374.64)" xlink:href="#radial-gradient-4"/><radialGradient id="radial-gradient-7" cx="472.55" cy="215.76" r="9.31" gradientTransform="matrix(0.56, 0, 0, 3.76, 154.49, -546.55)" xlink:href="#radial-gradient-4"/><radialGradient id="radial-gradient-8" cx="295.16" cy="307.16" r="9.31" gradientTransform="matrix(0.56, 0, 0, 1, 174.66, 67.01)" xlink:href="#radial-gradient-2"/><radialGradient id="radial-gradient-9" cx="305.66" cy="236.41" r="9.31" gradientTransform="matrix(0.56, 0, 0, 7.31, 160.22, -1425.21)" xlink:href="#radial-gradient-4"/><radialGradient id="radial-gradient-10" cx="860.61" cy="143.44" r="9.31" gradientTransform="matrix(0.38, 0.41, -0.74, 0.68, 330.33, -137.99)" xlink:href="#radial-gradient-2"/></defs><title>Background 1</title><g style="isolation:isolate"><g id="Layer_2" data-name="Layer 2"><g id="Background_1" data-name="Background 1"><g id="Background_1-2" data-name="Background 1"><g clip-path="url(#clip-path)"><path d="M773.09,107.85a1,1,0,1,0-1.37-1.46l-321,299.39L559.66,150.36,772.82,52.71A1,1,0,1,0,772,50.9L664,100.36,473.18,47.78,616,2a1,1,0,1,0-.61-1.9L234.06,122.42,288,1.41a1,1,0,0,0-1.82-.82L203.9,185.2,1.68.26A1,1,0,0,0,.26.33,1,1,0,0,0,.33,1.74L202,186.2.85,217a1,1,0,0,0-.51,1.74l121,106.62L.52,514.49A1,1,0,0,0,1.36,516a1,1,0,0,0,.84-.46L122.9,326.7l94.64,83.37L188.07,514.76a1,1,0,0,0,1,1.27,1,1,0,0,0,.59-.19L349.83,398.39l53.31,117.05a1,1,0,0,0,.92.59,1,1,0,0,0,.41-.09,1,1,0,0,0,.49-1.32L293.44,269.79l269,246a1,1,0,0,0,.67.26,1.09,1.09,0,0,0,.26,0,1,1,0,0,0,.7-.68l44.82-147.21,163,101a1,1,0,1,0,1-1.7L609.48,366.14l44.94-147.61ZM448.3,406.37l-37.54-187.8L557,151.6ZM661.18,101.65,410.35,216.55,382.43,76.9l87.28-28ZM233,124.87,380.52,77.52l65.86,329.41L291.18,265h0l-85.72-78.38ZM3.27,218.65l200.66-30.72,60.55,55.37L218.14,407.93ZM349,396.54l-158.2,116,75.35-267.7,23.55,21.53ZM562.61,513.22,449.43,409.73,651.5,221.26Z" fill="url(#radial-gradient)"/><path d="M245.09,105.9c-5.68,15.46-12.47,27.19-15.17,26.2s-.28-14.33,5.39-29.79,12.47-27.19,15.17-26.2S250.77,90.44,245.09,105.9Z" fill="url(#radial-gradient-2)" style="mix-blend-mode:screen"/><ellipse cx="249.74" cy="297.44" rx="15.08" ry="2.72" transform="translate(-104.1 457.57) rotate(-74.33)" fill="url(#radial-gradient-3)" style="mix-blend-mode:screen"/><path d="M394.92,118.3c5.09,25.86,6.92,47.27,4.1,47.82s-9.23-20-14.32-45.81-6.92-47.26-4.09-47.82S389.84,92.45,394.92,118.3Z" fill="url(#radial-gradient-4)" style="mix-blend-mode:screen"/><path d="M151.25,189.63c19-2.75,34.78-2.67,35.19.18s-14.68,7.38-33.7,10.13-34.79,2.67-35.2-.17S132.22,192.38,151.25,189.63Z" fill="url(#radial-gradient-5)" style="mix-blend-mode:screen"/><path d="M519.46,172.69c-13,5.93-24.41,8.89-25.44,6.63s8.69-8.91,21.71-14.84,24.41-8.89,25.44-6.62S532.48,166.76,519.46,172.69Z" fill="url(#radial-gradient-6)" style="mix-blend-mode:screen"/><ellipse cx="418.86" cy="264.63" rx="5.21" ry="35" transform="translate(-44.39 88.92) rotate(-11.51)" fill="url(#radial-gradient-7)" style="mix-blend-mode:screen"/><ellipse cx="339.78" cy="374.18" rx="5.21" ry="9.31" transform="translate(-123.53 172.17) rotate(-24.2)" fill="url(#radial-gradient-8)" style="mix-blend-mode:screen"/><ellipse cx="331.23" cy="303.16" rx="5.21" ry="68.07" transform="translate(-116.06 342.54) rotate(-47.5)" fill="url(#radial-gradient-9)" style="mix-blend-mode:screen"/><path d="M554.61,317.16c-3.78,3.48-8.42,4.59-10.37,2.48s-.47-6.66,3.32-10.14,8.42-4.59,10.37-2.48S558.4,313.68,554.61,317.16Z" fill="url(#radial-gradient-10)" style="mix-blend-mode:screen"/></g></g></g></g></g></svg>