<svg xmlns="http://www.w3.org/2000/svg" viewBox="0 0 24.26 50.46"><title>1</title><g id="Layer_2" data-name="Layer 2"><g id="Layer_1-2" data-name="Layer 1"><path d="M19.64,50H4.6a4.17,4.17,0,0,1-2.9-1.21A4.07,4.07,0,0,1,.49,45.84V4.62A4.12,4.12,0,0,1,4.6.49h15a4.12,4.12,0,0,1,4.11,4.13V45.84A4.11,4.11,0,0,1,19.64,50Z" style="fill:none;stroke:#be202c;stroke-miterlimit:10;stroke-width:0.9871462148561304px"/><line x1="0.49" y1="7.36" x2="23.75" y2="7.36" style="fill:none;stroke:#be202c;stroke-miterlimit:10;stroke-width:0.9871462148561304px"/><line x1="0.49" y1="41.72" x2="23.75" y2="41.72" style="fill:none;stroke:#be202c;stroke-miterlimit:10;stroke-width:0.9871462148561304px"/><path d="M.3,42.05H11.14c7.29,0,11.08-1.85,12.8,0,.72.77,0,1.84,0,2,0,3-.87,3.81-1,3.95-1.07,1.34-2.68,1.71-4.93,2-5.33.64-6-.77-10.83,0a7,7,0,0,1-3.94,0c-.32-.12-3-.77-3-3C.3,44,.21,42.16.3,42.05Z" style="fill:#be202c"/><ellipse cx="12.12" cy="45.84" rx="2.05" ry="2.06" style="fill:#fff;stroke:#be202c;stroke-miterlimit:10;stroke-width:0.9871462148561304px"/><path d="M1.29,7.42c-.14-.3-1.33-3,0-4.95.9-1.35,2.5-1.68,3.94-2s1.9-.1,4.92,0a60.9,60.9,0,0,0,6.9,0c2.52-.17,3-.42,3.94,0,2,.9,2.72,3.22,3,4,0,.13,0,2,0,3,0,.22-.36,0-1,0s-1.32,0-2,0H1.29Z" style="fill:#be202c"/><line x1="6.51" y1="4.62" x2="18.11" y2="4.62" style="fill:none;stroke:#fff;stroke-linecap:round;stroke-miterlimit:10;stroke-width:0.9871462148561304px"/></g></g></svg>