<?xml version="1.0" encoding="utf-8"?>
<!-- Generator: Adobe Illustrator 23.0.2, SVG Export Plug-In . SVG Version: 6.00 Build 0)  -->
<svg version="1.1" id="Layer_1" xmlns="http://www.w3.org/2000/svg" xmlns:xlink="http://www.w3.org/1999/xlink" x="0px" y="0px"
	 viewBox="0 0 597.4 137" style="enable-background:new 0 0 597.4 137;" xml:space="preserve">
<style type="text/css">
	.st0{display:none;}
	.st1{display:inline;}
	.st2{fill:#BE202C;}
	.st3{fill:#FFFFFF;}
	.st4{fill:none;stroke:#FFFFFF;stroke-width:0.54;stroke-miterlimit:10;}
	.st5{fill:none;stroke:url(#SVGID_1_);stroke-width:1.09;stroke-miterlimit:10;}
	.st6{fill:none;stroke:url(#SVGID_2_);stroke-width:1.09;stroke-miterlimit:10;}
	.st7{fill:none;stroke:url(#SVGID_3_);stroke-width:1.09;stroke-miterlimit:10;}
	.st8{fill:none;stroke:url(#SVGID_4_);stroke-width:1.09;stroke-miterlimit:10;}
	.st9{fill:none;stroke:url(#SVGID_5_);stroke-width:1.09;stroke-miterlimit:10;}
	.st10{fill:none;stroke:url(#SVGID_6_);stroke-width:1.09;stroke-miterlimit:10;}
	.st11{fill:none;stroke:url(#SVGID_7_);stroke-width:1.09;stroke-miterlimit:10;}
	.st12{fill:none;stroke:url(#SVGID_8_);stroke-width:1.09;stroke-miterlimit:10;}
	.st13{fill:none;stroke:url(#SVGID_9_);stroke-width:1.09;stroke-miterlimit:10;}
	.st14{fill:none;stroke:url(#SVGID_10_);stroke-width:1.09;stroke-miterlimit:10;}
	.st15{fill:none;stroke:url(#SVGID_11_);stroke-width:1.09;stroke-miterlimit:10;}
	.st16{fill:none;stroke:url(#SVGID_12_);stroke-width:1.09;stroke-miterlimit:10;}
	.st17{fill:none;stroke:url(#SVGID_13_);stroke-width:1.09;stroke-miterlimit:10;}
	.st18{fill:none;stroke:url(#SVGID_14_);stroke-width:1.09;stroke-miterlimit:10;}
	.st19{fill:none;stroke:url(#SVGID_15_);stroke-width:1.09;stroke-miterlimit:10;}
	.st20{fill:none;stroke:url(#SVGID_16_);stroke-width:1.09;stroke-miterlimit:10;}
	.st21{fill:none;stroke:url(#SVGID_17_);stroke-width:1.09;stroke-miterlimit:10;}
	.st22{fill:none;stroke:#FFFFFF;stroke-width:1.09;stroke-miterlimit:10;}
	.st23{fill:url(#SVGID_18_);}
	.st24{fill:url(#SVGID_19_);}
	.st25{fill:url(#SVGID_20_);}
	.st26{fill:url(#SVGID_21_);}
	.st27{fill:url(#SVGID_22_);}
	.st28{fill:url(#SVGID_23_);}
	.st29{fill:url(#SVGID_24_);}
	.st30{fill:url(#SVGID_25_);}
	.st31{fill:url(#SVGID_26_);}
	.st32{fill:url(#SVGID_27_);}
	.st33{fill:url(#SVGID_28_);}
	.st34{fill:url(#SVGID_29_);}
	.st35{fill:url(#SVGID_30_);}
	.st36{fill:url(#SVGID_31_);}
	.st37{fill:url(#SVGID_32_);}
	.st38{fill:url(#SVGID_33_);}
	.st39{fill:url(#SVGID_34_);}
	.st40{enable-background:new    ;}
</style>
<g class="st0">
	<title>Asset 1</title>
	<g class="st1">
		<g id="Layer_2-2">
			<polygon class="st2" points="-101.4,137 -20,0 -100.9,0 -101.4,0 -617.4,0 -617.4,137 			"/>
			<polygon class="st3" points="-250.4,35.8 -230.8,36 -250.4,36.4 			"/>
			<path class="st4" d="M-220.7,75.3h6.2"/>
			
				<linearGradient id="SVGID_1_" gradientUnits="userSpaceOnUse" x1="13836.0303" y1="-1713.0599" x2="16043.1895" y2="-1713.0599" gradientTransform="matrix(1 0 0 -1 0 -1658.11)">
				<stop  offset="0" style="stop-color:#FFFFFF"/>
				<stop  offset="1" style="stop-color:#000000"/>
			</linearGradient>
			<path class="st5" d="M-155.7,48.2h16.3l4.3,3.4h-17.4v6.7h26.1l4.3,3.4h-33.6L-155.7,48.2L-155.7,48.2z"/>
			
				<linearGradient id="SVGID_2_" gradientUnits="userSpaceOnUse" x1="9109.8701" y1="-1719.91" x2="13049.1396" y2="-1719.91" gradientTransform="matrix(1 0 0 -1 0 -1658.11)">
				<stop  offset="0" style="stop-color:#FFFFFF"/>
				<stop  offset="1" style="stop-color:#000000"/>
			</linearGradient>
			<path class="st6" d="M-266.9,41.6h45.5V82h-45.5"/>
			
				<linearGradient id="SVGID_3_" gradientUnits="userSpaceOnUse" x1="8444.6396" y1="-1719.91" x2="11846.3594" y2="-1719.91" gradientTransform="matrix(1 0 0 -1 0 -1658.11)">
				<stop  offset="0" style="stop-color:#FFFFFF"/>
				<stop  offset="1" style="stop-color:#000000"/>
			</linearGradient>
			<path class="st7" d="M-266.9,45h42.3v33.6h-42.3"/>
			<path class="st4" d="M-220.7,78.6h6.2"/>
			
				<linearGradient id="SVGID_4_" gradientUnits="userSpaceOnUse" x1="29590.2598" y1="-1719.86" x2="47792.3789" y2="-1719.86" gradientTransform="matrix(1 0 0 -1 0 -1658.11)">
				<stop  offset="0" style="stop-color:#FFFFFF"/>
				<stop  offset="1" style="stop-color:#000000"/>
			</linearGradient>
			<path class="st8" d="M-214.4,82h98V61.8l-26.2-20.3h-71.9V82H-214.4z"/>
			
				<linearGradient id="SVGID_5_" gradientUnits="userSpaceOnUse" x1="28167.9707" y1="-1719.86" x2="44034.7383" y2="-1719.86" gradientTransform="matrix(1 0 0 -1 0 -1658.11)">
				<stop  offset="0" style="stop-color:#FFFFFF"/>
				<stop  offset="1" style="stop-color:#000000"/>
			</linearGradient>
			<path class="st9" d="M-211.2,44.9h67.4l23.9,18.6v15.1h-91.5V44.9H-211.2z"/>
			
				<linearGradient id="SVGID_6_" gradientUnits="userSpaceOnUse" x1="1155.5" y1="-1728.41" x2="1179.03" y2="-1728.41" gradientTransform="matrix(1 0 0 -1 0 -1658.11)">
				<stop  offset="0" style="stop-color:#FFFFFF"/>
				<stop  offset="1" style="stop-color:#000000"/>
			</linearGradient>
			<path class="st10" d="M-158.9,68.6h-3.3V72h3.3V68.6z"/>
			
				<linearGradient id="SVGID_7_" gradientUnits="userSpaceOnUse" x1="13386.3994" y1="-1728.41" x2="15427.6494" y2="-1728.41" gradientTransform="matrix(1 0 0 -1 0 -1658.11)">
				<stop  offset="0" style="stop-color:#FFFFFF"/>
				<stop  offset="1" style="stop-color:#000000"/>
			</linearGradient>
			<path class="st11" d="M-123,68.6h-32.7V72h32.7V68.6z"/>
			
				<linearGradient id="SVGID_8_" gradientUnits="userSpaceOnUse" x1="4348.3896" y1="-1713.0599" x2="4684.1597" y2="-1713.0599" gradientTransform="matrix(1 0 0 -1 0 -1658.11)">
				<stop  offset="0" style="stop-color:#FFFFFF"/>
				<stop  offset="1" style="stop-color:#000000"/>
			</linearGradient>
			<path class="st12" d="M-178.5,48.2h-13.1v13.5h13.1V48.2z"/>
			
				<linearGradient id="SVGID_9_" gradientUnits="userSpaceOnUse" x1="2110.1802" y1="-1713.16" x2="2196.6201" y2="-1713.16" gradientTransform="matrix(1 0 0 -1 0 -1658.11)">
				<stop  offset="0" style="stop-color:#FFFFFF"/>
				<stop  offset="1" style="stop-color:#000000"/>
			</linearGradient>
			<path class="st13" d="M-181.8,51.7h-6.6v6.7h6.5L-181.8,51.7z"/>
			
				<linearGradient id="SVGID_10_" gradientUnits="userSpaceOnUse" x1="4767.1196" y1="-1713.0599" x2="5102.8896" y2="-1713.0599" gradientTransform="matrix(1 0 0 -1 0 -1658.11)">
				<stop  offset="0" style="stop-color:#FFFFFF"/>
				<stop  offset="1" style="stop-color:#000000"/>
			</linearGradient>
			<path class="st14" d="M-162.2,48.2h-13.1v13.5h13.1V48.2z"/>
			
				<linearGradient id="SVGID_11_" gradientUnits="userSpaceOnUse" x1="2326.6602" y1="-1713.16" x2="2413.0901" y2="-1713.16" gradientTransform="matrix(1 0 0 -1 0 -1658.11)">
				<stop  offset="0" style="stop-color:#FFFFFF"/>
				<stop  offset="1" style="stop-color:#000000"/>
			</linearGradient>
			<path class="st15" d="M-165.4,51.7h-6.5v6.7h6.5V51.7z"/>
			<polygon class="st3" points="-250.4,37.9 -230.8,38.2 -250.4,38.4 			"/>
			<polygon class="st3" points="-208,37.9 -188.4,38.2 -208,38.4 			"/>
			<polygon class="st3" points="-208,35.8 -188.4,36 -208,36.4 			"/>
			
				<linearGradient id="SVGID_12_" gradientUnits="userSpaceOnUse" x1="2217.9502" y1="-1743.01" x2="2455.48" y2="-1743.01" gradientTransform="matrix(1 0 0 -1 0 -1658.11)">
				<stop  offset="0" style="stop-color:#FFFFFF"/>
				<stop  offset="1" style="stop-color:#000000"/>
			</linearGradient>
			<path class="st16" d="M-255.9,82.2h11c0,1.4-0.6,2.8-1.6,3.8s-2.4,1.6-3.9,1.6s-2.9-0.6-3.9-1.6C-255.3,85-255.9,83.7-255.9,82.2
				L-255.9,82.2z"/>
			
				<linearGradient id="SVGID_13_" gradientUnits="userSpaceOnUse" x1="2520.9102" y1="-1743.01" x2="2758.4502" y2="-1743.01" gradientTransform="matrix(1 0 0 -1 0 -1658.11)">
				<stop  offset="0" style="stop-color:#FFFFFF"/>
				<stop  offset="1" style="stop-color:#000000"/>
			</linearGradient>
			<path class="st17" d="M-242,82.2h11c0,0.7-0.1,1.4-0.5,2c-0.3,0.7-0.7,1.3-1.3,1.8c-1,1-2.4,1.6-3.9,1.6c-0.7,0-1.4-0.1-2.1-0.4
				c-0.7-0.2-1.3-0.6-1.8-1.2c-0.5-0.5-0.9-1.1-1.2-1.7C-241.8,83.6-242,83-242,82.2L-242,82.2z"/>
			
				<linearGradient id="SVGID_14_" gradientUnits="userSpaceOnUse" x1="3259.03" y1="-1743.01" x2="3496.5901" y2="-1743.01" gradientTransform="matrix(1 0 0 -1 0 -1658.11)">
				<stop  offset="0" style="stop-color:#FFFFFF"/>
				<stop  offset="1" style="stop-color:#000000"/>
			</linearGradient>
			<path class="st18" d="M-208,82.2h11c0,0.7-0.1,1.4-0.5,2c-0.3,0.7-0.7,1.3-1.3,1.8c-0.5,0.5-1.1,0.9-1.7,1.2
				c-0.7,0.2-1.4,0.4-2.1,0.4c-0.7,0-1.4-0.1-2.1-0.4c-0.7-0.2-1.3-0.6-1.8-1.2c-0.5-0.5-0.9-1.1-1.2-1.7
				C-207.8,83.6-207.9,83-208,82.2L-208,82.2z"/>
			
				<linearGradient id="SVGID_15_" gradientUnits="userSpaceOnUse" x1="3564.0999" y1="-1743.01" x2="3801.6301" y2="-1743.01" gradientTransform="matrix(1 0 0 -1 0 -1658.11)">
				<stop  offset="0" style="stop-color:#FFFFFF"/>
				<stop  offset="1" style="stop-color:#000000"/>
			</linearGradient>
			<path class="st19" d="M-193.8,82.2h11c0,1.4-0.6,2.8-1.7,3.8c-1,1-2.4,1.6-3.9,1.6C-191.4,87.6-193.8,85.2-193.8,82.2
				C-193.8,82.3-193.8,82.3-193.8,82.2L-193.8,82.2z"/>
			
				<linearGradient id="SVGID_16_" gradientUnits="userSpaceOnUse" x1="4476.73" y1="-1743.01" x2="4714.2798" y2="-1743.01" gradientTransform="matrix(1 0 0 -1 0 -1658.11)">
				<stop  offset="0" style="stop-color:#FFFFFF"/>
				<stop  offset="1" style="stop-color:#000000"/>
			</linearGradient>
			<path class="st20" d="M-151.7,82.2h11c0,0.7-0.1,1.4-0.4,2c-0.3,0.7-0.7,1.3-1.2,1.8s-1.1,0.8-1.8,1.2c-0.7,0.2-1.4,0.4-2.1,0.4
				c-1.5,0-2.8-0.6-3.9-1.6c-0.5-0.5-0.9-1.1-1.3-1.7C-151.6,83.6-151.7,83-151.7,82.2L-151.7,82.2z"/>
			
				<linearGradient id="SVGID_17_" gradientUnits="userSpaceOnUse" x1="4765.96" y1="-1743.01" x2="5003.5098" y2="-1743.01" gradientTransform="matrix(1 0 0 -1 0 -1658.11)">
				<stop  offset="0" style="stop-color:#FFFFFF"/>
				<stop  offset="1" style="stop-color:#000000"/>
			</linearGradient>
			<path class="st21" d="M-138.3,82.2h11c0,0.7-0.1,1.4-0.4,2c-0.3,0.7-0.7,1.3-1.3,1.8c-0.5,0.5-1.1,0.9-1.8,1.2
				c-0.7,0.2-1.4,0.4-2.1,0.4c-1.4,0-2.8-0.6-3.9-1.6c-0.5-0.5-0.9-1.1-1.2-1.7C-138.3,83.7-138.4,83-138.3,82.2L-138.3,82.2z"/>
			<path class="st22" d="M-362.1,49.6v1.1h-4.3v0.6h2.5V64h0.8V51.2h1v12.6h0.8V51.2h2.7v-0.7h-2.7v-1.1h2.7v-0.7h-7.8v0.7
				L-362.1,49.6L-362.1,49.6z M-352.1,51c-0.7-0.6-1.7-0.6-2.4,0c-0.2,0.2-0.3,0.4-0.5,0.6c-0.1,0.2-0.1,0.5-0.1,0.8v8.2
				c0,0.3,0,0.5,0.1,0.8c0.1,0.2,0.3,0.5,0.5,0.6c0.7,0.6,1.7,0.6,2.4,0c0.2-0.1,0.4-0.3,0.6-0.5c0.1-0.2,0.2-0.5,0.2-0.7v-8.2
				C-351.4,51.9-351.7,51.4-352.1,51z M-352.1,60.6c0,0.2,0,0.3-0.1,0.4c-0.1,0.1-0.1,0.3-0.2,0.3c-0.2,0.2-0.5,0.3-0.8,0.3
				c-0.2,0-0.3,0-0.5-0.1c-0.2,0-0.3-0.1-0.4-0.2l-0.3-0.3c-0.1-0.1-0.1-0.3-0.1-0.4v-8.2c0-0.1,0-0.3,0.1-0.4
				c0.1-0.1,0.1-0.3,0.2-0.3c0.2-0.2,0.6-0.3,0.9-0.2c0.3,0,0.5,0.1,0.8,0.2l0.3,0.3c0.1,0.1,0.1,0.3,0.1,0.4V60.6z M-350.9,49.8
				c-0.3-0.3-0.7-0.6-1.1-0.8c-0.4-0.1-0.9-0.2-1.3-0.2s-0.8,0.1-1.2,0.2c-0.4,0.1-0.8,0.4-1.1,0.8c-0.4,0.3-0.7,0.7-0.9,1.2
				c-0.2,0.4-0.3,0.9-0.3,1.4v8.2c0,1,0.5,1.9,1.2,2.6c0.7,0.5,1.5,0.8,2.3,0.8c0.9,0,1.7-0.3,2.4-0.8c0.4-0.3,0.7-0.7,0.9-1.2
				c0.2-0.4,0.3-0.9,0.3-1.4v-8.2c0-0.5-0.1-1-0.3-1.4C-350.2,50.6-350.5,50.2-350.9,49.8L-350.9,49.8z M-350.3,60.6
				c0,0.4-0.1,0.8-0.2,1.2s-0.4,0.6-0.7,1c-0.3,0.2-0.6,0.4-0.9,0.5s-0.7,0.2-1,0.1c-0.3,0-0.7,0-1-0.1s-0.6-0.3-0.9-0.5
				s-0.6-0.6-0.7-1c-0.1-0.3-0.2-0.7-0.2-1.1v-8.2c0-0.4,0.1-0.8,0.2-1.2c0.2-0.4,0.4-0.7,0.7-1c0.3-0.2,0.6-0.4,0.9-0.5
				c1-0.4,2.2-0.2,3,0.5c0.3,0.2,0.6,0.6,0.7,1c0.1,0.3,0.2,0.7,0.2,1.1v8.2H-350.3z M-342.5,51c-0.7-0.6-1.7-0.6-2.4,0
				c-0.2,0.2-0.3,0.4-0.4,0.6c-0.1,0.2-0.1,0.5-0.1,0.8v8.2c0,0.3,0,0.5,0.1,0.8c0.1,0.2,0.3,0.5,0.4,0.6c0.7,0.6,1.7,0.6,2.4,0
				c0.2-0.1,0.4-0.3,0.6-0.5c0.1-0.2,0.2-0.5,0.2-0.7v-8.2C-341.8,51.9-342.1,51.4-342.5,51L-342.5,51z M-342.5,60.6
				c0,0.2,0,0.3-0.1,0.4c-0.1,0.1-0.1,0.3-0.2,0.3c-0.2,0.2-0.5,0.3-0.8,0.3c-0.2,0-0.3,0-0.5-0.1c-0.2,0-0.3-0.1-0.4-0.2l-0.3-0.3
				c-0.1-0.1-0.1-0.3-0.1-0.4v-8.2c0-0.1,0-0.3,0.1-0.4c0.1-0.1,0.1-0.3,0.2-0.3c0.2-0.2,0.6-0.3,0.9-0.2c0.3,0,0.5,0.1,0.8,0.2
				l0.3,0.3c0.1,0.1,0.1,0.3,0.1,0.4V60.6z M-341.4,49.8c-0.3-0.3-0.7-0.6-1.1-0.8c-0.4-0.1-0.9-0.2-1.3-0.2s-0.8,0.1-1.2,0.2
				c-0.4,0.1-0.8,0.4-1.1,0.8c-0.4,0.3-0.6,0.7-0.9,1.2c-0.2,0.4-0.4,0.9-0.4,1.4v8.2c0,1,0.5,1.9,1.2,2.6c0.7,0.5,1.5,0.8,2.3,0.8
				c0.9,0,1.7-0.3,2.4-0.8c0.4-0.3,0.7-0.7,0.9-1.2c0.2-0.4,0.3-0.9,0.3-1.4v-8.2c0-0.5-0.1-1-0.3-1.4
				C-340.7,50.6-341,50.1-341.4,49.8L-341.4,49.8z M-340.8,60.6c0,0.4-0.1,0.8-0.2,1.2s-0.4,0.6-0.7,1c-0.3,0.2-0.6,0.4-0.9,0.5
				s-0.7,0.2-1,0.1c-0.3,0-0.7,0-1-0.1s-0.6-0.3-0.9-0.5s-0.6-0.6-0.7-1c-0.1-0.3-0.2-0.7-0.2-1.1v-8.2c0-0.4,0.1-0.8,0.2-1.2
				c0.2-0.4,0.4-0.7,0.7-1c0.3-0.2,0.6-0.4,0.9-0.5s0.7-0.2,1-0.2c0.7,0,1.4,0.3,2,0.8c0.3,0.2,0.6,0.6,0.7,1
				c0.1,0.3,0.2,0.7,0.2,1.1v8.2L-340.8,60.6L-340.8,60.6z M-330.5,49c-0.8,0.1-1.6,0.5-2.1,1.2c-0.6,0.6-0.9,1.4-0.9,2.2v11.4h0.7
				v-5.2l1.1,0.5v4.7h0.7v-4.3l2.4,1.3v3h0.7v-3.4c-1-0.5-2.1-1.2-3.1-1.7v-1.2c1,0.5,2.1,1.2,3.1,1.7v-6.8c0-0.5-0.2-0.9-0.5-1.3
				c-0.4-0.3-0.8-0.5-1.3-0.5s-1,0.2-1.3,0.5c-0.4,0.3-0.6,0.8-0.6,1.3v6l-1.1-0.5v-5.5c0-0.8,0.3-1.5,0.9-2c1.2-1.1,3-1.1,4.2,0
				c0.5,0.5,0.9,1.2,0.9,2v11.4h0.7V52.5c0-0.5-0.1-1-0.3-1.5c-0.2-0.4-0.5-0.8-0.9-1.2c-0.4-0.3-0.9-0.6-1.4-0.8
				C-329.4,48.9-330,48.9-330.5,49L-330.5,49z M-331.1,52.5c0-0.3,0.1-0.6,0.3-0.9c0.5-0.4,1.3-0.4,1.8,0c0.2,0.2,0.3,0.5,0.3,0.9
				v5.8l-2.4-1.3L-331.1,52.5L-331.1,52.5z M-323.1,64V51.2h1.1v12.6h0.7V51.2h3.7v-0.7h-3.7v-1h3.7V49h-6.1v15H-323.1z M-322,50.6
				h-1.1v-1h1.1V50.6z M-312.8,49c-0.8,0.1-1.6,0.5-2.1,1.2c-0.6,0.6-0.9,1.4-0.9,2.2v11.4h0.7v-5.2l1.1,0.5v4.7h0.6v-4.3l2.4,1.3v3
				h0.7v-3.4c-1-0.5-2.1-1.2-3.1-1.7v-1.2c1,0.5,2.1,1.2,3.1,1.7v-6.8c0-0.5-0.2-0.9-0.5-1.3c-0.4-0.3-0.8-0.5-1.3-0.5
				s-1,0.2-1.3,0.5c-0.4,0.3-0.6,0.8-0.5,1.3v6l-1.1-0.5v-5.5c0-0.8,0.3-1.5,0.9-2c1.2-1.1,3-1.1,4.2,0c0.5,0.5,0.9,1.2,0.9,2v11.4
				h0.7V52.5c0-0.5-0.1-1-0.3-1.5c-0.2-0.4-0.5-0.8-0.9-1.2c-0.4-0.3-0.9-0.6-1.4-0.8C-311.7,48.9-312.3,48.9-312.8,49L-312.8,49z
				 M-313.4,52.5c0-0.3,0.1-0.6,0.3-0.9c0.2-0.2,0.6-0.3,0.9-0.3s0.6,0.1,0.9,0.3c0.2,0.2,0.3,0.5,0.3,0.9v5.8l-2.4-1.3L-313.4,52.5
				L-313.4,52.5z M-302.4,49.6v1.1h-4.3v0.6h2.5V64h0.8V51.2h1v12.6h0.8V51.2h2.7v-0.7h-2.7v-1.1h2.7v-0.7h-7.6v0.7L-302.4,49.6
				L-302.4,49.6z M-297.8,58h3.5v-0.6h-3.5V58z M-288.9,49.7v1.1h-4.3v0.6h2.5V64h0.8V51.2h1v12.6h0.8V51.2h2.6v-0.7h-2.6v-1.1h2.6
				v-0.7h-7.6v0.7h4.2V49.7z M-277.2,52.8c-0.3-0.7-0.8-1.4-1.3-2c-0.6-0.6-1.3-1-2.1-1.3c-0.9-0.4-1.9-0.5-2.9-0.4v15h0.5v-4.5
				c0.4,0,0.7,0,1.1-0.1V64h0.7v-3l0.5-0.1c0.8-0.3,1.5-0.8,2.1-1.3c0.6-0.6,1.1-1.2,1.3-2C-276.6,56.1-276.6,54.4-277.2,52.8
				L-277.2,52.8z M-277.8,57.3c-0.2,0.7-0.7,1.3-1.2,1.7c-0.6,0.6-1.2,1-2,1.3V59c0.4-0.2,0.9-0.5,1.2-0.8c0.5-0.4,0.8-0.9,1-1.5
				c0.2-0.5,0.3-1.1,0.3-1.7c0-1.2-0.5-2.3-1.3-3.1c-0.4-0.3-0.8-0.6-1.2-0.9c-0.2-0.1-0.4-0.2-0.7-0.2v7.8
				c-0.4,0.1-0.7,0.2-1.1,0.2v-9.2c0.4,0,0.7,0,1.1,0.1c1,0.2,2,0.7,2.7,1.5c0.5,0.5,0.9,1.1,1.2,1.7c0.3,0.7,0.5,1.4,0.5,2.1
				C-277.4,55.8-277.6,56.5-277.8,57.3L-277.8,57.3z M-281.2,51.8c0.3,0.1,0.6,0.3,0.8,0.5c0.4,0.3,0.6,0.7,0.9,1.2
				c0.2,0.5,0.3,1,0.3,1.5s-0.1,1-0.3,1.5c-0.2,0.4-0.5,0.8-0.9,1.2c-0.2,0.2-0.6,0.4-0.8,0.7V51.8z M-271.5,49
				c-0.8,0.1-1.6,0.5-2.1,1.2c-0.6,0.6-0.9,1.4-0.9,2.2v11.4h0.7v-5.2l1.1,0.5v4.7h0.7v-4.3l2.4,1.3v3h0.7v-3.4
				c-1-0.5-2.1-1.2-3.1-1.7v-1.2c1,0.5,2.1,1.2,3.1,1.7v-6.8c0-0.5-0.2-0.9-0.5-1.3c-0.4-0.3-0.8-0.5-1.3-0.5s-1,0.2-1.3,0.5
				c-0.4,0.3-0.6,0.8-0.5,1.3v6l-1.1-0.5v-5.5c0-0.8,0.3-1.5,0.9-2c1.2-1.1,3-1.1,4.2,0c0.6,0.5,0.9,1.2,0.9,2v11.4h0.7V52.5
				c0-0.5-0.1-1-0.3-1.5c-0.2-0.4-0.5-0.8-0.9-1.2c-0.4-0.3-0.9-0.5-1.3-0.8C-270.3,48.9-270.9,48.9-271.5,49L-271.5,49z
				 M-272.1,52.5c0-0.3,0.1-0.6,0.3-0.9c0.2-0.2,0.6-0.3,0.9-0.3s0.6,0.1,0.9,0.3c0.2,0.2,0.3,0.5,0.3,0.9v5.8l-2.4-1.3L-272.1,52.5
				L-272.1,52.5z M-258.3,57.5h-1.1V49h-0.7v8.6h-2.1V49h-0.7v8.6h-1.1V49h-0.7v15h0.7v-4h1.1v4h0.7v-4h2.1v4h0.7v-4.7h-4.5v-1.1
				h5.6v5.7h0.7v-15h-0.7V57.5z M-248.6,57.5c0-0.5-0.1-0.9-0.3-1.3c0-0.1-0.1-0.1-0.1-0.1c0.3-0.4,0.5-0.9,0.4-1.4v-2.6
				c0-0.4-0.1-0.8-0.2-1.2c-0.2-0.4-0.5-0.8-0.8-1.1s-0.7-0.6-1.1-0.8c-0.4-0.2-0.9-0.3-1.4-0.3s-1,0.1-1.4,0.3s-0.8,0.5-1.2,0.8
				c-0.3,0.3-0.6,0.7-0.8,1.2c-0.1,0.2-0.1,0.3-0.1,0.5v1.8h0.7v-1.4c0-0.3,0.1-0.7,0.2-1c0.1-0.3,0.3-0.6,0.6-0.9
				c0.2-0.3,0.6-0.6,1-0.6c0.4-0.2,0.8-0.3,1.2-0.2c0.4,0,0.8,0.1,1.1,0.2c0.4,0.1,0.7,0.4,1,0.6c0.2,0.2,0.4,0.5,0.6,0.9
				c0.1,0.3,0.2,0.7,0.2,1v2.6c0,0.5-0.2,0.9-0.5,1.3c-0.4,0.3-0.8,0.5-1.3,0.5h-2.7v0.8h2.7c0.1,0,0.1,0,0.2,0.1s0.1,0.1,0.1,0.2
				v3.2c0,0.1-0.1,0.3-0.1,0.4s-0.1,0.2-0.2,0.3s-0.2,0.2-0.3,0.2c-0.1,0.1-0.3,0.1-0.5,0.1s-0.3,0-0.4-0.1
				c-0.1-0.1-0.3-0.1-0.3-0.2c-0.2-0.2-0.3-0.5-0.3-0.7v-1.8h-0.7v1.9c0,0.2,0,0.4,0.1,0.6c0.1,0.2,0.2,0.3,0.3,0.5
				c0.2,0.2,0.4,0.3,0.7,0.4c0.2,0.1,0.5,0.1,0.8,0.1c0.2,0,0.6-0.1,0.8-0.1c0.2-0.1,0.4-0.3,0.5-0.5c0.1-0.1,0.3-0.3,0.3-0.5
				c0.1-0.2,0.1-0.3,0.1-0.5v-3.3c0-0.1,0-0.3-0.1-0.4c0.3-0.1,0.6-0.3,0.9-0.4c0.2,0.3,0.3,0.7,0.2,1v3.3c0,0.3-0.1,0.7-0.2,1
				c-0.1,0.3-0.3,0.5-0.5,0.8s-0.6,0.6-1,0.6c-0.4,0.1-0.7,0.2-1.1,0.2c-0.4,0-0.8-0.1-1.2-0.2c-0.4-0.1-0.7-0.4-1-0.6
				c-0.2-0.3-0.4-0.6-0.6-0.9c-0.1-0.3-0.2-0.7-0.2-1v-2h-0.7v2.5c0,0.2,0,0.3,0.1,0.4c0.1,0.5,0.4,0.9,0.8,1.2
				c0.3,0.4,0.8,0.7,1.2,0.9s0.9,0.3,1.4,0.2c0.5,0,1-0.1,1.4-0.2c0.4-0.2,0.8-0.5,1.1-0.9c0.3-0.3,0.6-0.7,0.8-1.1
				c0.1-0.4,0.2-0.8,0.2-1.2L-248.6,57.5L-248.6,57.5z M-253.5,50.9c-0.3,0.3-0.4,0.7-0.4,1.2l0,0v1.4h0.7v-1.4
				c0-0.3,0.1-0.6,0.3-0.8l0.3-0.3c0.3-0.1,0.6-0.1,0.9,0c0.1,0.1,0.3,0.1,0.3,0.3s0.1,0.2,0.2,0.3s0.1,0.2,0.1,0.4v2.5
				c0,0.2-0.1,0.3-0.3,0.3h-2.7v0.6h2.9c0.1,0,0.2-0.1,0.3-0.2s0.2-0.2,0.2-0.3s0.1-0.2,0.1-0.3V52c0-0.2,0-0.4-0.1-0.5
				c0-0.2-0.1-0.4-0.3-0.5s-0.3-0.3-0.6-0.4c-0.2-0.1-0.5-0.1-0.8-0.1C-252.7,50.4-253.2,50.6-253.5,50.9L-253.5,50.9z M-241.8,63.9
				h0.7V49h-0.7v6.5l-2.1,4.1V49h-0.7v11.8l-1.1,1.8V49h-0.7v15h0.8l3.8-7v1.9l-2.7,5h0.8l1.9-3.6V63.9L-241.8,63.9z M-239.4,64V49
				h-0.7v15H-239.4z M-233.2,49.7v1.1h-4.3v0.6h2.5V64h0.8V51.2h1v12.6h0.8V51.2h2.7v-0.7h-2.7v-1.1h2.7v-0.7h-7.7v0.7h4.2V49.7z"/>
			<path class="st22" d="M-361.2,99.3V95h-1.8l-2.6,4.3h-0.3v-0.1l2.7-4.3l-2.6-4.3v-0.2h0.3l2.5,4.2h1.8v-4.2h0.5v4.3h1.8l2.6-4.2
				h0.3v0.1l-2.5,4.3l2.7,4.3v0.1h-0.5L-359,95h-1.8v4.3H-361.2z"/>
			<path class="st22" d="M-354.1,99.3v-8.9h5.4v0.4h-5v3.8h4.4V95h-4.4v3.8h5v0.4L-354.1,99.3z"/>
			<path class="st22" d="M-347.6,98.9c1.5,0,1.9-0.8,2-4.2v-4.3h5.3v8.9h-0.4v-8.4h-4.4v4c0,3.6-0.7,4.5-2.3,4.5L-347.6,98.9z"/>
			<path class="st22" d="M-337.8,99.3v-8.9h5.4v0.4h-5v3.8h4.4V95h-4.4v3.8h5v0.4L-337.8,99.3z"/>
			<path class="st22" d="M-330.5,96.6c0,1.6,1.1,2.6,2.9,2.6s2.7-0.8,2.7-2.2c0-1.2-0.9-1.9-2.3-1.9h-1.3v-0.4h1.4
				c1.2,0,2.1-0.6,2.1-1.8s-0.9-2-2.4-2c-1.3-0.1-2.4,0.9-2.5,2.2c0,0.1,0,0.3,0,0.4h-0.5c-0.1-1.5,1.1-2.8,2.6-2.9
				c0.1,0,0.3,0,0.4,0c0.8,0,1.5,0.2,2.1,0.6c0.2,0.2,0.4,0.5,0.5,0.8s0.2,0.7,0.2,1c0.1,1-0.7,1.9-1.7,2.1c0.5,0.1,1,0.4,1.4,0.8
				c0.3,0.4,0.5,0.9,0.5,1.4c0,1.6-1.1,2.7-3.1,2.7c-0.8,0-1.7-0.2-2.3-0.8c-0.3-0.3-0.5-0.6-0.7-1c-0.1-0.4-0.2-0.8-0.2-1.2
				L-330.5,96.6z"/>
			<path class="st22" d="M-322.7,99.3v-8.9h0.5v4.3h5.6v-4.3h0.5v8.9h-0.5V95h-5.6v4.3H-322.7z"/>
			<path class="st22" d="M-313.9,93.4c-0.1-1.7,1.2-3.1,2.9-3.1c0.1,0,0.3,0,0.4,0c2.1,0,3.3,1.2,3.3,3.1v2.9
				c0.1,1.7-1.2,3.1-2.9,3.1c-0.1,0-0.3,0-0.4,0c-2.1,0-3.3-1.2-3.3-3.1V93.4z M-307.6,93.4c0-1.7-1.3-3-3-3s-3,1.3-3,3v3
				c0,1.7,1.3,3,3,3s3-1.3,3-3V93.4z"/>
			<path class="st22" d="M-305.7,101.2v-2.3h0.7c0.3-0.3,0.5-0.7,0.7-1.1c0.5-1.2,0.8-2.5,0.8-3.8v-3.5h5v8.4h1.2v2.3h-0.5v-1.8
				h-7.5v1.8H-305.7z M-299.1,98.9v-8.1h-4.2V94c0,1-0.1,2-0.3,3c-0.2,0.7-0.6,1.3-1,1.9H-299.1z"/>
			<path class="st22" d="M-295.9,93.4c-0.1-1.7,1.2-3.1,2.9-3.1c0.1,0,0.3,0,0.4,0c2.1,0,3.3,1.2,3.3,3.1v2.9
				c0.1,1.7-1.2,3.1-2.9,3.1c-0.1,0-0.3,0-0.4,0c-2.1,0-3.3-1.2-3.3-3.1V93.4z M-289.6,93.4c0-1.7-1.3-3-3-3s-3,1.3-3,3v3
				c0,1.7,1.3,3,3,3s3-1.3,3-3V93.4z"/>
			<path class="st22" d="M-286.8,99.3v-8.9h3.6c1.4,0,2.6,1.2,2.6,2.6s-1.2,2.6-2.6,2.6h-3.2v3.7C-286.4,99.3-286.8,99.3-286.8,99.3
				z M-286.4,95.2h3.1c1.1,0.1,2-0.8,2.1-1.9c0-0.1,0-0.2,0-0.2c0.1-1.1-0.6-2-1.7-2.1c-0.1,0-0.3,0-0.4,0h-3.1V95.2z"/>
			<path class="st22" d="M-279,93.4c-0.1-1.7,1.2-3.1,2.9-3.1c0.1,0,0.3,0,0.4,0c2.1,0,3.3,1.2,3.3,3.1v2.9c0.1,1.7-1.2,3.1-2.9,3.1
				c-0.1,0-0.3,0-0.4,0c-2.1,0-3.3-1.2-3.3-3.1V93.4z M-272.7,93.4c0-1.7-1.3-3-3-3s-3,1.3-3,3v3c0,1.7,1.3,3,3,3s3-1.3,3-3V93.4z"
				/>
			<path class="st22" d="M-266,99.3V95h-1.8l-2.7,4.3h-0.3v-0.1l2.7-4.3l-2.5-4.3v-0.2h0.3l2.5,4.2h1.8v-4.2h0.4v4.3h1.8l2.5-4.2
				h0.3v0.1l-2.5,4.3l2.6,4.3v0.1h-0.4L-264,95h-1.8v4.3H-266z"/>
			<path class="st22" d="M-258.9,99.3v-8.9h0.5v4.3h5.5v-4.3h0.4v8.9h-0.4V95h-5.5v4.3H-258.9z"/>
			<path class="st22" d="M-250,99.3v-8.9h0.5V94h3.2c1.4,0.1,2.5,1.3,2.4,2.7c-0.1,1.3-1.1,2.3-2.4,2.4L-250,99.3z M-249.6,98.9h3.1
				c1.2,0,2.1-1,2.1-2.1c0-1.2-1-2.1-2.1-2.1h-3.1V98.9z M-241.8,99.3v-8.9h0.4v8.9H-241.8z"/>
			<path class="st22" d="M-238.9,99.3v-8.9h5.5v0.4h-5v3.8h4.4V95h-4.4v3.8h5v0.4L-238.9,99.3z"/>
			<path class="st22" d="M-227.9,99.3v-8.9h5.4v0.4h-5v8.4L-227.9,99.3L-227.9,99.3z"/>
			<path class="st22" d="M-220.6,99.3v-8.9h3.7c1.4,0,2.6,1.2,2.6,2.6s-1.2,2.6-2.6,2.6h-3.2v3.7C-220.1,99.3-220.6,99.3-220.6,99.3
				z M-220.1,95.2h3.1c1.1,0.1,2-0.8,2.1-1.9c0-0.1,0-0.2,0-0.2c0.1-1.1-0.6-2-1.7-2.1c-0.1,0-0.3,0-0.4,0h-3.1L-220.1,95.2
				L-220.1,95.2z"/>
			<path class="st22" d="M-211.2,99.1l1-2.1l-3.4-6.4v-0.2h0.4l3.2,6.1l2.8-6.1h0.4v0.1l-4,8.7L-211.2,99.1L-211.2,99.1z"/>
			<path class="st22" d="M-205.4,96.6c0,1.4,1.2,2.6,2.6,2.6c0.1,0,0.2,0,0.3,0c1.7,0,2.7-0.8,2.7-2.2c0-1.2-0.9-1.9-2.3-1.9h-1.3
				v-0.4h1.3c1.2,0,2.1-0.6,2.1-1.8s-0.9-2-2.4-2c-0.3,0-0.7,0-1,0.1s-0.6,0.3-0.9,0.5c-0.2,0.2-0.4,0.5-0.5,0.8
				c-0.2,0.3-0.2,0.7-0.1,1h-0.5c-0.1-1.5,1.1-2.8,2.6-2.9c0.1,0,0.3,0,0.4,0c0.8,0,1.5,0.2,2.1,0.6c0.5,0.4,0.8,1.1,0.8,1.7
				c0,0.5-0.2,0.9-0.5,1.3s-0.7,0.6-1.2,0.8c0.5,0.1,1.1,0.4,1.4,0.8c0.3,0.4,0.5,0.9,0.5,1.4c0,1.6-1.1,2.7-3,2.7
				c-0.8,0-1.7-0.2-2.3-0.8c-0.3-0.3-0.5-0.6-0.7-1C-205.4,97.5-205.5,97.1-205.4,96.6L-205.4,96.6z"/>
			<path class="st22" d="M-197.8,93.4c-0.1-1.7,1.2-3.1,2.9-3.1c0.1,0,0.3,0,0.4,0c2.1,0,3.3,1.2,3.3,3.1v2.9
				c0.1,1.7-1.2,3.1-2.9,3.1c-0.2,0-0.3,0-0.5,0c-2.1,0-3.3-1.2-3.3-3.1v-2.9H-197.8z M-191.5,93.4c0.1-1.5-1-2.7-2.5-2.8
				c-0.2,0-0.3,0-0.5,0c-1.5-0.2-2.8,0.9-3,2.4c0,0.1,0,0.2,0,0.4v3c0,1.7,1.3,3,3,3s3-1.3,3-3V93.4z"/>
			<path class="st22" d="M-188.7,99.3v-8.9h6.3v8.9h-0.4v-8.4h-5.6v8.4H-188.7z"/>
			<path class="st22" d="M-179.8,99.3v-8.9h5.4v0.4h-5v3.8h4.4V95h-4.4v3.8h5v0.4L-179.8,99.3z"/>
			<path class="st22" d="M-172.4,99.3v-8.9h3.6c1.4,0,2.6,1.2,2.6,2.6s-1.2,2.6-2.6,2.6h-3.2v3.7C-172,99.3-172.4,99.3-172.4,99.3z
				 M-172,95.2h3.1c1.1,0.1,2-0.8,2.1-1.9c0-0.1,0-0.2,0-0.2c0.1-1.1-0.6-2-1.7-2.1c-0.1,0-0.3,0-0.4,0h-3.1L-172,95.2L-172,95.2z"
				/>
			<path class="st22" d="M-164.3,99.3v-8.9h5.4v0.4h-5v3.8h4.4V95h-4.4v3.8h5v0.4L-164.3,99.3z"/>
			<path class="st22" d="M-156.9,99.3v-8.9h3.8c1.1-0.1,2.1,0.7,2.2,1.7c0,0.2,0,0.3,0,0.5c0.1,0.9-0.5,1.7-1.3,2
				c1.1,0.2,1.8,1.2,1.7,2.3c0.1,1.2-0.7,2.2-1.9,2.3c-0.1,0-0.2,0-0.3,0L-156.9,99.3z M-156.5,94.5h3.4c0.9,0,1.7-0.7,1.8-1.6
				c0-0.1,0-0.2,0-0.3c0.1-0.9-0.6-1.7-1.5-1.8c-0.1,0-0.3,0-0.4,0h-3.3V94.5L-156.5,94.5z M-156.5,98.9h3.6c1,0.1,1.8-0.7,1.9-1.7
				c0-0.1,0-0.2,0-0.3c0.1-1-0.7-1.9-1.7-2c-0.1,0-0.1,0-0.2,0h-3.6V98.9z"/>
			<path class="st22" d="M-148.7,93.4c-0.1-1.7,1.2-3.1,2.9-3.1c0.1,0,0.3,0,0.4,0c2.1,0,3.3,1.2,3.3,3.1v2.9
				c0.1,1.7-1.2,3.1-2.9,3.1c-0.1,0-0.3,0-0.4,0c-2.1,0-3.3-1.2-3.3-3.1V93.4z M-142.4,93.4c0-1.7-1.3-3-3-3s-3,1.3-3,3v3
				c0,1.7,1.3,3,3,3s3-1.3,3-3V93.4z"/>
			<path class="st22" d="M-139.8,96.6c0,1.6,1.1,2.6,2.9,2.6s2.6-0.8,2.6-2.2c0-1.2-0.9-1.9-2.3-1.9h-1.4v-0.4h1.4
				c1.2,0,2.1-0.6,2.1-1.8s-0.9-2-2.4-2c-1.3-0.1-2.4,0.9-2.5,2.2c0,0.1,0,0.2,0,0.3h-0.7c-0.1-1.5,1.1-2.8,2.6-2.9
				c0.1,0,0.3,0,0.4,0c0.8,0,1.5,0.2,2.1,0.6c0.2,0.2,0.4,0.5,0.5,0.8s0.2,0.7,0.2,1c0,0.5-0.1,1-0.4,1.4c-0.3,0.4-0.7,0.6-1.2,0.7
				c0.5,0.1,1,0.4,1.4,0.8c0.3,0.4,0.5,0.9,0.6,1.4c0,1.6-1.1,2.7-3.1,2.7c-0.8,0-1.7-0.2-2.3-0.8c-0.3-0.3-0.5-0.6-0.7-1
				c-0.1-0.4-0.2-0.8-0.2-1.2L-139.8,96.6z"/>
			<path class="st22" d="M-131.9,99.3v-8.9h0.4v4.3h2l3.1-4.2h0.4v0.1l-3.1,4.2l3.2,4.2v0.1h-0.4l-3.2-4.3h-2v4.3h-0.4L-131.9,99.3
				L-131.9,99.3z"/>
			<path class="st22" d="M-124.2,99.3v-8.9h0.4v8.1l5.6-8.1h0.4v8.9h-0.4v-8.1l-5.6,8.1H-124.2z"/>
		</g>
	</g>
</g>
<g>
	<g>
		<g>
			<path class="st2" d="M515.5,137H2c-1.1,0-2-0.9-2-2V2c0-1.1,0.9-2,2-2h593.4c1.1,0,2,0.9,2,2l-80.3,133
				C517.1,135,515.8,137,515.5,137z"/>
		</g>
		<g>
			<g>
				<polygon class="st3" points="380.6,40.4 402,40.7 380.6,41.1 				"/>
			</g>
			<g>
				<rect x="413.4" y="75.4" class="st3" width="5.5" height="0.5"/>
			</g>
			<g>
				
					<linearGradient id="SVGID_18_" gradientUnits="userSpaceOnUse" x1="12850.4453" y1="-1715.8102" x2="14803.2939" y2="-1715.8102" gradientTransform="matrix(1 0 0 -1 0 -1658.11)">
					<stop  offset="0" style="stop-color:#FFFFFF"/>
					<stop  offset="1" style="stop-color:#000000"/>
				</linearGradient>
				<path class="st23" d="M501.9,64.2h-31.6v-13h15l5,4h-16.3v5h22.8L501.9,64.2z M471.3,63.2h27.8l-2.6-2h-23.4v-7h14.5l-2.6-2
					h-13.8V63.2z"/>
			</g>
			<g>
				
					<linearGradient id="SVGID_19_" gradientUnits="userSpaceOnUse" x1="8668.8975" y1="-1721.8597" x2="12154.3008" y2="-1721.8597" gradientTransform="matrix(1 0 0 -1 0 -1658.11)">
					<stop  offset="0" style="stop-color:#FFFFFF"/>
					<stop  offset="1" style="stop-color:#000000"/>
				</linearGradient>
				<polygon class="st24" points="413.2,82.1 372.5,82.1 372.5,81.1 412.2,81.1 412.2,46.4 372.5,46.4 372.5,45.4 413.2,45.4 				
					"/>
			</g>
			<g>
				
					<linearGradient id="SVGID_20_" gradientUnits="userSpaceOnUse" x1="8080.3608" y1="-1721.7599" x2="11090.168" y2="-1721.7599" gradientTransform="matrix(1 0 0 -1 0 -1658.11)">
					<stop  offset="0" style="stop-color:#FFFFFF"/>
					<stop  offset="1" style="stop-color:#000000"/>
				</linearGradient>
				<polygon class="st25" points="410.4,79 372.5,79 372.5,78 409.4,78 409.4,49.3 372.5,49.3 372.5,48.3 410.4,48.3 				"/>
			</g>
			<g>
				<rect x="413.4" y="78.4" class="st3" width="5.5" height="0.5"/>
			</g>
			<g>
				
					<linearGradient id="SVGID_21_" gradientUnits="userSpaceOnUse" x1="26789.3203" y1="-1721.7599" x2="42894.0859" y2="-1721.7599" gradientTransform="matrix(1 0 0 -1 0 -1658.11)">
					<stop  offset="0" style="stop-color:#FFFFFF"/>
					<stop  offset="1" style="stop-color:#000000"/>
				</linearGradient>
				<path class="st26" d="M506.1,82.1h-87.7l-0.1-36.9h64.2l23.5,18.2V82.1z M419.4,81.1h85.7V63.9l-22.9-17.8h-63L419.4,81.1z"/>
			</g>
			<g>
				
					<linearGradient id="SVGID_22_" gradientUnits="userSpaceOnUse" x1="25530.7207" y1="-1721.7599" x2="39569.1133" y2="-1721.7599" gradientTransform="matrix(1 0 0 -1 0 -1658.11)">
					<stop  offset="0" style="stop-color:#FFFFFF"/>
					<stop  offset="1" style="stop-color:#000000"/>
				</linearGradient>
				<path class="st27" d="M503.1,79.1h-81.9l0.1-30.9h60.2l0.1,0.1L503.1,65V79.1z M422.2,78.1h79.9V65.4l-20.9-16.3h-59L422.2,78.1
					z"/>
			</g>
			<g>
				
					<linearGradient id="SVGID_23_" gradientUnits="userSpaceOnUse" x1="1631.1123" y1="-1729.3102" x2="1651.9333" y2="-1729.3102" gradientTransform="matrix(1 0 0 -1 0 -1658.11)">
					<stop  offset="0" style="stop-color:#FFFFFF"/>
					<stop  offset="1" style="stop-color:#000000"/>
				</linearGradient>
				<path class="st28" d="M468.5,73.2h-4v-4h4V73.2z M465.5,72.2h2v-2h-2V72.2z"/>
			</g>
			<g>
				
					<linearGradient id="SVGID_24_" gradientUnits="userSpaceOnUse" x1="12452.9199" y1="-1729.3102" x2="14259.0195" y2="-1729.3102" gradientTransform="matrix(1 0 0 -1 0 -1658.11)">
					<stop  offset="0" style="stop-color:#FFFFFF"/>
					<stop  offset="1" style="stop-color:#000000"/>
				</linearGradient>
				<path class="st29" d="M500.2,73.2h-29.9v-4h29.9V73.2z M471.3,72.2h27.9v-2h-27.9V72.2z"/>
			</g>
			<g>
				
					<linearGradient id="SVGID_25_" gradientUnits="userSpaceOnUse" x1="4456.2993" y1="-1715.8102" x2="4753.4048" y2="-1715.8102" gradientTransform="matrix(1 0 0 -1 0 -1658.11)">
					<stop  offset="0" style="stop-color:#FFFFFF"/>
					<stop  offset="1" style="stop-color:#000000"/>
				</linearGradient>
				<path class="st30" d="M451.2,64.2h-12.6v-13h12.6V64.2z M439.6,63.2h10.6v-11h-10.6V63.2z"/>
			</g>
			<g>
				
					<linearGradient id="SVGID_26_" gradientUnits="userSpaceOnUse" x1="2475.738" y1="-1715.8102" x2="2552.2209" y2="-1715.8102" gradientTransform="matrix(1 0 0 -1 0 -1658.11)">
					<stop  offset="0" style="stop-color:#FFFFFF"/>
					<stop  offset="1" style="stop-color:#000000"/>
				</linearGradient>
				<path class="st31" d="M448.2,61.2h-6.8v-7h6.8V61.2z M442.4,60.2h4.8v-5h-4.8V60.2z"/>
			</g>
			<g>
				
					<linearGradient id="SVGID_27_" gradientUnits="userSpaceOnUse" x1="4826.4707" y1="-1715.8102" x2="5123.5532" y2="-1715.8102" gradientTransform="matrix(1 0 0 -1 0 -1658.11)">
					<stop  offset="0" style="stop-color:#FFFFFF"/>
					<stop  offset="1" style="stop-color:#000000"/>
				</linearGradient>
				<path class="st32" d="M465.6,64.2H453v-13h12.6V64.2z M454,63.2h10.6v-11H454V63.2z"/>
			</g>
			<g>
				
					<linearGradient id="SVGID_28_" gradientUnits="userSpaceOnUse" x1="2667.4031" y1="-1715.8102" x2="2743.8813" y2="-1715.8102" gradientTransform="matrix(1 0 0 -1 0 -1658.11)">
					<stop  offset="0" style="stop-color:#FFFFFF"/>
					<stop  offset="1" style="stop-color:#000000"/>
				</linearGradient>
				<path class="st33" d="M462.8,61.2h-6.7v-7h6.7V61.2z M457.1,60.2h4.7v-5h-4.7V60.2z"/>
			</g>
			<g>
				<polygon class="st3" points="380.6,42.7 402,43 380.6,43.2 				"/>
			</g>
			<g>
				<polygon class="st3" points="427,42.7 448.4,43 427,43.2 				"/>
			</g>
			<g>
				<polygon class="st3" points="427,40.4 448.4,40.7 427,41.1 				"/>
			</g>
			<g>
				
					<linearGradient id="SVGID_29_" gradientUnits="userSpaceOnUse" x1="2571.1404" y1="-1742.2599" x2="2781.3135" y2="-1742.2599" gradientTransform="matrix(1 0 0 -1 0 -1658.11)">
					<stop  offset="0" style="stop-color:#FFFFFF"/>
					<stop  offset="1" style="stop-color:#000000"/>
				</linearGradient>
				<path class="st34" d="M387.1,87c-1.5,0-2.9-0.6-3.8-1.6c-1-0.8-1.6-2.1-1.6-3.6v-0.5h10.7v0.5c0,1.4-0.6,2.8-1.6,3.7
					C389.9,86.4,388.5,87,387.1,87z M382.7,82.3c0.1,1,0.6,1.9,1.3,2.4c0.7,0.8,1.9,1.3,3.1,1.3c1.1,0,2.3-0.5,3.1-1.3
					c0.7-0.6,1.1-1.5,1.2-2.5H382.7z"/>
			</g>
			<g>
				
					<linearGradient id="SVGID_30_" gradientUnits="userSpaceOnUse" x1="2839.207" y1="-1742.3097" x2="3049.3887" y2="-1742.3097" gradientTransform="matrix(1 0 0 -1 0 -1658.11)">
					<stop  offset="0" style="stop-color:#FFFFFF"/>
					<stop  offset="1" style="stop-color:#000000"/>
				</linearGradient>
				<path class="st35" d="M399.3,87.1c-0.7,0-1.4-0.1-2.1-0.4c-0.8-0.3-1.4-0.6-1.8-1.1c-0.5-0.5-0.8-1-1.2-1.6l-0.1-0.1v-0.1
					c0-0.3,0-0.6-0.1-0.9c-0.1-0.3-0.1-0.7-0.1-1v-0.5h10.7v0.5c0,0.7-0.2,1.3-0.4,2c-0.2,0.7-0.7,1.4-1.3,1.8
					C402.1,86.5,400.7,87.1,399.3,87.1z M395.2,83.6c0.3,0.5,0.5,0.8,1,1.3c0.3,0.4,0.8,0.7,1.4,0.9c0.6,0.3,1.1,0.4,1.7,0.4
					c1.1,0,2.3-0.5,3.1-1.3c0.5-0.4,0.8-0.9,1-1.4c0.1-0.4,0.3-0.8,0.3-1.2H395c0,0.1,0,0.3,0.1,0.4C395.1,83,395.2,83.3,395.2,83.6
					z"/>
			</g>
			<g>
				
					<linearGradient id="SVGID_31_" gradientUnits="userSpaceOnUse" x1="3492.3135" y1="-1742.3073" x2="3702.5132" y2="-1742.3073" gradientTransform="matrix(1 0 0 -1 0 -1658.11)">
					<stop  offset="0" style="stop-color:#FFFFFF"/>
					<stop  offset="1" style="stop-color:#000000"/>
				</linearGradient>
				<path class="st36" d="M429.3,87.1c-0.8,0-1.4-0.1-2.1-0.4c-0.8-0.3-1.4-0.6-1.8-1.1c-0.5-0.5-0.8-1-1.2-1.6l-0.1-0.1l0-0.1
					c0.1-0.4,0-0.7,0-1.1c0-0.3-0.1-0.5-0.1-0.8v-0.5h10.7v0.5c0,0.7-0.2,1.3-0.4,1.9c-0.2,0.7-0.7,1.4-1.3,1.8
					c-0.5,0.4-1.1,0.9-1.7,1.1C430.7,86.9,430,87,429.3,87.1C429.4,87.1,429.3,87.1,429.3,87.1z M425.2,83.6
					c0.2,0.5,0.5,0.8,0.9,1.2c0.3,0.4,0.8,0.7,1.4,0.9c0.6,0.3,1.1,0.4,1.7,0.4c0.6-0.1,1.2-0.2,1.7-0.4c0.5-0.2,1-0.5,1.4-0.9
					c0.4-0.3,0.8-0.9,1-1.4c0.1-0.4,0.3-0.8,0.3-1.2h-8.7c0,0.1,0,0.1,0,0.2C425.2,82.8,425.2,83.2,425.2,83.6z"/>
			</g>
			<g>
				
					<linearGradient id="SVGID_32_" gradientUnits="userSpaceOnUse" x1="3762.2471" y1="-1742.2618" x2="3972.4207" y2="-1742.2618" gradientTransform="matrix(1 0 0 -1 0 -1658.11)">
					<stop  offset="0" style="stop-color:#FFFFFF"/>
					<stop  offset="1" style="stop-color:#000000"/>
				</linearGradient>
				<path class="st37" d="M441.7,87c-1.3,0-2.5-0.5-3.5-1.4c-1-1-1.6-2.3-1.6-3.8v-0.5h10.7v0.5c0,1.4-0.6,2.8-1.7,3.7
					c-0.9,0.9-2.3,1.5-3.7,1.5C441.8,87,441.8,87,441.7,87z M437.6,82.3c0.1,1,0.5,1.9,1.3,2.6c0.8,0.8,1.9,1.2,3,1.2
					c1.1,0,2.3-0.5,3.1-1.3c0.7-0.6,1.2-1.5,1.3-2.5H437.6z"/>
			</g>
			<g>
				
					<linearGradient id="SVGID_33_" gradientUnits="userSpaceOnUse" x1="4569.3911" y1="-1742.3073" x2="4779.562" y2="-1742.3073" gradientTransform="matrix(1 0 0 -1 0 -1658.11)">
					<stop  offset="0" style="stop-color:#FFFFFF"/>
					<stop  offset="1" style="stop-color:#000000"/>
				</linearGradient>
				<path class="st38" d="M479.1,87.1c-1.5,0-2.8-0.5-3.8-1.5c-0.5-0.5-1-1-1.2-1.8c-0.1-0.4-0.2-1.2-0.2-1.9v-0.5h10.7v0.5
					c0,0.7-0.2,1.3-0.4,2c-0.3,0.8-0.8,1.3-1.2,1.8c-0.6,0.5-1.1,0.9-1.8,1.1C480.5,86.9,479.8,87,479.1,87.1
					C479.2,87.1,479.2,87.1,479.1,87.1z M474.9,82.3c0,0.4,0.1,0.8,0.2,1.2c0.2,0.5,0.5,0.9,1,1.4c0.8,0.8,1.9,1.3,3.1,1.3
					c0.6-0.1,1.2-0.2,1.7-0.4c0.5-0.2,1-0.5,1.4-0.9c0.5-0.5,0.8-0.9,1-1.4c0.1-0.4,0.3-0.8,0.3-1.2H474.9z"/>
			</g>
			<g>
				
					<linearGradient id="SVGID_34_" gradientUnits="userSpaceOnUse" x1="4825.6836" y1="-1742.3073" x2="5035.8745" y2="-1742.3073" gradientTransform="matrix(1 0 0 -1 0 -1658.11)">
					<stop  offset="0" style="stop-color:#FFFFFF"/>
					<stop  offset="1" style="stop-color:#000000"/>
				</linearGradient>
				<path class="st39" d="M491,87.1c-1.4,0-2.8-0.6-3.8-1.5c-0.5-0.5-0.9-1-1.2-1.6l0-0.1c-0.1-0.6-0.2-1.3-0.2-2v-0.5h10.7v0.5
					c0,0.7-0.2,1.3-0.4,2c-0.3,0.8-0.8,1.3-1.2,1.8c-0.5,0.5-1.1,0.9-1.8,1.1C492.3,86.9,491.6,87,491,87.1
					C491,87.1,491,87.1,491,87.1z M486.9,83.5c0.3,0.5,0.5,0.9,1,1.3c0.8,0.8,1.9,1.3,3.1,1.3c0.6-0.1,1.2-0.2,1.7-0.4
					c0.5-0.2,1-0.5,1.4-0.9c0.5-0.5,0.8-1,1-1.4c0.1-0.4,0.3-0.8,0.3-1.2h-8.7C486.7,82.7,486.8,83.2,486.9,83.5z"/>
			</g>
			<g>
				<polygon class="st3" points="289.7,98.2 288.5,97 288.5,93.6 287.7,93.6 285.4,97.4 284.3,97.4 284.3,96.7 286.5,93 284.3,89.3 
					284.3,88.5 285.4,88.5 287.7,92.2 288.5,92.2 288.5,88.5 289.9,88.5 289.9,92.3 290.7,92.3 293,88.6 294.1,88.6 294.1,89.3 
					291.9,93 294.1,96.7 294.1,97.4 292.9,97.4 290.5,93.7 289.7,93.7 				"/>
			</g>
			<g>
				<polygon class="st3" points="300.6,97.5 294.8,97.3 294.8,88.5 300.6,88.5 300.6,89.9 296.2,89.9 296.2,92.3 300.1,92.3 
					300.1,93.7 296.2,93.7 296.2,96.1 300.6,96.1 				"/>
			</g>
			<g>
				<path class="st3" d="M301.2,97.6h-0.4l-0.3-1.5h0.6c0.9,0,1.1-0.1,1.3-3.2l0-4.2h5.7v8.8h-1.4V90h-2.9v3.1
					C303.8,95.9,303.4,97.6,301.2,97.6z"/>
			</g>
			<g>
				<polygon class="st3" points="315,97.5 309.2,97.3 309.2,88.5 315,88.5 315,89.9 310.6,89.9 310.6,92.3 314.5,92.3 314.5,93.7 
					310.6,93.7 310.6,96.1 315,96.1 				"/>
			</g>
			<g>
				<path class="st3" d="M318.8,97.7c-1,0-1.8-0.3-2.3-0.8c-0.2-0.2-0.6-0.6-0.7-1c-0.2-0.4-0.2-0.9-0.2-1.2v-0.3l1.2-0.6v0.8
					c0,1.1,0.8,1.8,2.1,1.8c1.2,0,1.8-0.5,1.8-1.5c0-0.8-0.6-1.2-1.6-1.2h-1.7v-1.4h1.7c0.9,0,1.4-0.4,1.4-1.1
					c0-0.8-0.7-1.3-1.7-1.3c-0.9-0.1-1.7,0.6-1.8,1.5l0,0.7h-1.3l0-0.4c-0.1-0.8,0.2-1.5,0.7-2.1c0.5-0.6,1.2-1,2-1l0.4,0
					c0.7,0,1.4,0.2,2.1,0.6l0.1,0.1c0.2,0.2,0.5,0.5,0.6,0.9l0,0.1c0.1,0.2,0.2,0.5,0.2,0.9c0.1,0.7-0.2,1.4-0.8,1.9
					c0.2,0.1,0.3,0.3,0.4,0.4c0.4,0.5,0.6,1,0.6,1.5C322,96.5,320.7,97.7,318.8,97.7z"/>
			</g>
			<g>
				<polygon class="st3" points="324.1,97.5 322.7,97.2 322.7,88.5 324.1,88.5 324.1,92.3 328.1,92.3 328.1,88.5 329.5,88.5 
					329.5,97.3 328.1,97.3 328.1,93.6 324.1,93.6 				"/>
			</g>
			<g>
				<path class="st3" d="M334.2,97.4h-0.4c-2.1,0-3.5-1.2-3.5-3.2v-2.6c-0.1-0.8,0.2-1.6,0.8-2.2c0.6-0.6,1.4-1,2.3-1h0.4
					c2.1,0,3.5,1.2,3.5,3.2v2.6c0.1,0.8-0.2,1.6-0.8,2.2C335.9,97,335.1,97.4,334.2,97.4z M333.8,89.5c-1.1,0-2.1,1-2.1,2.1v2.6
					c0,1.2,0.9,2.1,2.1,2.1c1.1,0,2.1-1,2.1-2.1v-2.6C335.9,90.4,335,89.5,333.8,89.5z"/>
			</g>
			<g>
				<path class="st3" d="M346,99h-1.4v-1.6h-5.7V99h-1.3v-3h0.8c0,0,0.1-0.1,0.1-0.1c0.1-0.2,0.3-0.3,0.3-0.5
					c0.6-1.2,0.7-2.4,0.7-3.2v-3.7h5.4V96h1.1V99z M340,96l3.5,0.1v-6.2h-2.7v2.3c0,1-0.1,1.9-0.3,2.7C340.3,95.3,340.2,95.7,340,96
					z"/>
			</g>
			<g>
				<path class="st3" d="M350.2,97.4h-0.4c-2.1,0-3.5-1.2-3.5-3.2v-2.6c-0.1-0.8,0.2-1.6,0.8-2.2c0.6-0.6,1.4-1,2.3-1h0.4
					c2.1,0,3.5,1.2,3.5,3.2v2.6c0.1,0.8-0.2,1.6-0.8,2.2C351.9,97,351.1,97.4,350.2,97.4z M349.8,89.5c-1.1,0-2.1,1-2.1,2.1v2.6
					c0,1.2,0.9,2.1,2.1,2.1c1.1,0,2.1-1,2.1-2.1v-2.6C351.9,90.4,351,89.5,349.8,89.5z"/>
			</g>
			<g>
				<path class="st3" d="M355,97.3c0,0-0.1,0-0.2,0h-0.5v-8.8h3.8c1.5,0,2.8,1.3,2.8,2.8c0,1.6-1.2,2.8-2.8,2.8h-2.4v2.8h-1
					C354.7,97.1,354.9,97.3,355,97.3z M355.7,92.7h2.2c0.8,0.1,1.4-0.6,1.4-1.3l0-0.2c0-0.4-0.1-0.7-0.3-1c-0.1-0.2-0.4-0.4-0.8-0.4
					l-2.6,0V92.7z"/>
			</g>
			<g>
				<path class="st3" d="M365.2,97.4h-0.4c-2.1,0-3.5-1.2-3.5-3.2v-2.6c-0.1-0.8,0.2-1.6,0.8-2.2c0.6-0.6,1.4-1,2.3-1h0.4
					c2.1,0,3.5,1.2,3.5,3.2v2.6c0.1,0.8-0.2,1.6-0.8,2.2C366.9,97,366.1,97.4,365.2,97.4z M364.7,89.5c-1.2,0-2.1,0.9-2.1,2.1v2.6
					c0,1.2,0.9,2.1,2.1,2.1s2.1-0.9,2.1-2.1v-2.6C366.8,90.4,365.9,89.5,364.7,89.5z"/>
			</g>
			<g>
				<polygon class="st3" points="374,97.3 372.8,97.3 372.8,93.6 372,93.6 369.7,97.3 368.6,97.3 368.6,96.7 368.7,96.5 370.8,92.9 
					368.6,89.2 368.6,88.4 369.7,88.4 372,92.1 372.8,92.1 372.8,88.4 374.2,88.4 374.2,92.2 375,92.2 377.3,88.5 378.8,88.5 
					376.2,92.8 378.4,96.5 378.4,97.2 377.2,97.2 374.8,93.5 374,93.5 				"/>
			</g>
			<g>
				<polygon class="st3" points="380.5,97.5 379,97.2 379,88.5 380.5,88.5 380.5,92.3 384.4,92.3 384.4,88.5 385.8,88.5 385.8,97.3 
					384.4,97.3 384.4,93.6 380.5,93.6 				"/>
			</g>
			<g>
				<path class="st3" d="M386.9,97.3v-8.8h1.4v3.2h2.3c0.7,0.1,1.4,0.4,1.9,1c0.5,0.6,0.7,1.3,0.7,2c-0.1,1.4-1.2,2.4-2.5,2.5
					L386.9,97.3z M388.3,96.1h2.2c0.7,0,1.4-0.7,1.4-1.4s-0.7-1.4-1.4-1.4h-2.2V96.1z M395.6,97.3h-1.4v-8.8h1.4V97.3z"/>
			</g>
			<g>
				<polygon class="st3" points="402.6,97.5 396.8,97.3 396.8,88.5 402.6,88.5 402.6,89.9 398.2,89.9 398.2,92.3 402.1,92.3 
					402.1,93.7 398.2,93.7 398.2,96.1 402.6,96.1 				"/>
			</g>
			<g>
				<polygon class="st3" points="407.9,97.4 406.5,97.4 406.5,88.5 412.3,88.5 412.3,89.9 407.9,89.9 				"/>
			</g>
			<g>
				<path class="st3" d="M414.4,98.1l-0.8-0.8c0,0-0.1,0-0.1,0l-0.5,0l0-8.8h3.8c1.5,0,2.8,1.3,2.8,2.8c0,1.6-1.2,2.8-2.8,2.8h-2.4
					V98.1z M414.3,92.7h2.2c0.8,0.1,1.4-0.6,1.4-1.3l0-0.2c0-0.4-0.1-0.7-0.3-1c-0.1-0.2-0.4-0.4-0.8-0.4l-2.6,0V92.7z"/>
			</g>
			<g>
				<polygon class="st3" points="422.5,97.5 421.1,97 422.2,94.8 419.2,89.2 419.2,88.6 419.7,88.5 420.4,88.5 423,93.3 425.2,88.5 
					426.4,88.5 426.3,89.4 				"/>
			</g>
			<g>
				<path class="st3" d="M429.5,97.6c-1,0-1.8-0.3-2.3-0.8c-0.2-0.2-0.6-0.6-0.7-1c-0.2-0.4-0.2-0.9-0.2-1.2V94h1.2v0.5
					c0,1,0.8,1.8,1.8,1.8h0.2c1.2,0,1.8-0.5,1.8-1.5c0-0.8-0.6-1.2-1.6-1.2h-1.7v-1.4h1.7c0.9,0,1.4-0.4,1.4-1.1
					c0-0.8-0.7-1.3-1.7-1.3c-0.3,0-0.5,0-0.7,0.1c-0.2,0.1-0.4,0.1-0.6,0.4c-0.2,0.2-0.3,0.4-0.4,0.6l-0.1,0.1
					c-0.1,0.1-0.1,0.3,0,0.5l0.2,0.6h-1.5l0-0.4c-0.1-0.8,0.2-1.5,0.7-2.1c0.5-0.6,1.2-1,2-1l0.4,0c0.7,0,1.4,0.2,2.1,0.6l0.1,0.1
					c0.6,0.6,0.8,1.2,0.8,1.8c0,0.5-0.2,1.1-0.5,1.5c-0.1,0.1-0.3,0.3-0.4,0.4c0.2,0.1,0.3,0.3,0.5,0.5c0.3,0.3,0.6,1,0.6,1.5
					C432.6,96.5,431.3,97.6,429.5,97.6z"/>
			</g>
			<g>
				<path class="st3" d="M436.6,97.5c-2.1,0-3.5-1.2-3.5-3.2v-2.7c-0.1-0.8,0.2-1.6,0.8-2.2c0.6-0.6,1.4-1,2.3-1h0.4
					c2.1,0,3.5,1.2,3.5,3.2v2.6c0.1,0.8-0.2,1.6-0.8,2.3c-0.6,0.6-1.4,1-2.2,1L436.6,97.5z M436.1,89.6c-0.4,0-0.8,0.1-1.1,0.4
					c-0.4,0.3-0.7,0.9-0.8,1.4l0,2.9c0,1.2,0.9,2.1,2.1,2.1s2.1-0.9,2.1-2.1l0.2-2.6c0-0.5-0.1-0.9-0.4-1.3
					c-0.3-0.4-0.9-0.6-1.4-0.7l-0.5,0C436.3,89.6,436.2,89.6,436.1,89.6z"/>
			</g>
			<g>
				<polygon class="st3" points="447.7,97.3 446.3,97.3 446.3,89.8 442.5,89.8 442.5,97.3 441.1,97.3 441.1,88.5 447.7,88.5 				"/>
			</g>
			<g>
				<polygon class="st3" points="454.8,97.5 449,97.3 449,88.5 454.8,88.5 454.8,89.9 450.4,89.9 450.4,92.3 454.3,92.3 454.3,93.7 
					450.4,93.7 450.4,96.1 454.8,96.1 				"/>
			</g>
			<g>
				<path class="st3" d="M456.3,97.3c0,0-0.1,0-0.2,0h-0.5v-8.8h3.8c1.5,0,2.8,1.3,2.8,2.8c0,1.6-1.2,2.8-2.8,2.8H457v2.8h-1
					C456,97.1,456.2,97.3,456.3,97.3z M457,92.7h2.2c0.8,0.1,1.4-0.6,1.4-1.3l0-0.2c0-0.4-0.1-0.7-0.3-1c-0.1-0.2-0.4-0.4-0.8-0.4
					l-2.6,0V92.7z"/>
			</g>
			<g>
				<polygon class="st3" points="468.5,97.5 462.7,97.3 462.7,88.5 468.5,88.5 468.5,89.9 464.1,89.9 464.1,92.3 468,92.3 468,93.7 
					464.1,93.7 464.1,96.1 468.5,96.1 				"/>
			</g>
			<g>
				<path class="st3" d="M473.4,97.5l-4.1-0.2v-8.7h3.8c0.6-0.1,1.2,0.1,1.7,0.6c0.4,0.4,0.7,0.9,0.7,1.5v0.5
					c0.1,0.7-0.2,1.3-0.7,1.7c0.7,0.5,1.1,1.3,1,2.1c0.1,1.1-0.7,2.3-2,2.5L473.4,97.5z M470.6,96.1h2.8c0.3,0,0.6,0,0.8-0.2
					c0.2-0.2,0.4-0.5,0.5-0.9l0-0.2c0-0.3-0.1-0.6-0.2-0.9c-0.2-0.3-0.5-0.4-0.8-0.5l-0.1,0h-2.8V96.1z M470.6,92.2h2.5
					c0.6,0,1.1-0.3,1.1-1V91c0-0.3-0.1-0.6-0.2-0.8c-0.2-0.2-0.4-0.3-0.6-0.3h-2.8V92.2z"/>
			</g>
			<g>
				<path class="st3" d="M480.5,97.4h-0.4c-2.1,0-3.5-1.2-3.5-3.2v-2.6c-0.1-0.8,0.2-1.6,0.8-2.2c0.6-0.6,1.4-1,2.3-1h0.4
					c2.1,0,3.5,1.2,3.5,3.2v2.6c0.1,0.8-0.2,1.6-0.8,2.2C482.2,97,481.4,97.4,480.5,97.4z M480,89.5c-1.1,0-2.1,1-2.1,2.1v2.6
					c0,1.2,0.9,2.1,2.1,2.1c1.1,0,2.1-1,2.1-2.1v-2.6C482.1,90.4,481.2,89.5,480,89.5z"/>
			</g>
			<g>
				<path class="st3" d="M487.5,97.5c-1,0-1.8-0.3-2.4-0.8c-0.2-0.2-0.6-0.6-0.7-1.1c-0.2-0.4-0.2-0.9-0.2-1.2v-0.6l1.4,0.3v0.4
					c0,1.1,0.8,1.8,2.1,1.8c1.2,0,1.8-0.5,1.8-1.5c0-0.7-0.6-1.2-1.5-1.2h-1.7v-0.8l-0.2,0l0.2,0v-0.4h1.7c0.9,0,1.4-0.4,1.4-1.1
					c0-0.8-0.7-1.3-1.7-1.3c-0.9-0.1-1.7,0.6-1.8,1.5l0,0.6h-1.5l0-0.4c-0.1-0.8,0.2-1.5,0.7-2.1c0.5-0.6,1.2-1,2.1-1l0.4,0
					c0.7,0,1.4,0.2,2.1,0.6l0.1,0.1c0.2,0.2,0.5,0.5,0.6,0.9l0,0.1c0.1,0.2,0.2,0.5,0.2,0.9c0,0.5-0.2,1-0.5,1.5
					c-0.1,0.1-0.2,0.2-0.3,0.3c0.1,0.1,0.3,0.3,0.4,0.4c0.3,0.3,0.6,1,0.6,1.5C490.7,96.3,489.4,97.5,487.5,97.5z"/>
			</g>
			<g>
				<polygon class="st3" points="497.9,97.2 496.8,97.2 493.9,93.4 492.8,93.4 492.8,97.2 491.9,97.2 491.9,96.8 491.4,96.8 
					491.4,88.5 492.8,88.5 492.8,92.3 493.9,92.3 496.6,88.6 497.7,88.6 497.7,89.4 495.1,92.9 497.9,96.4 				"/>
			</g>
			<g>
				<polygon class="st3" points="498.7,97.7 498.7,97.3 498.3,97.3 498.3,88.5 499.7,88.5 499.7,94.7 503.9,88.5 504.4,88.5 
					504.7,88.1 504.7,88.5 505.1,88.5 505.1,97.3 503.7,97.3 503.7,91.1 499.5,97.3 499,97.3 				"/>
			</g>
			<g id="SvgjsG1499" transform="translate(49.7094920396805,-92.0220863342285)" xmlns:name="main_text" class="st0">
				<g class="st1">
					<path class="st3" d="M194.7,147.8v1.2h-5.2v0.8h3.2v15.9h0.9v-15.9h1.2v15.9h0.9v-15.9h3.2V149h-3.2v-1.2h3.2V147h-9.3v0.9
						L194.7,147.8L194.7,147.8z M206.9,149.6c-0.4-0.4-0.9-0.5-1.5-0.5c-0.5,0-1.1,0.2-1.6,0.5c-0.5,0.5-0.7,1-0.7,1.6v10.3
						c0,0.6,0.2,1.2,0.7,1.6c0.5,0.4,0.9,0.5,1.6,0.5c0.5,0,1.1-0.2,1.5-0.5c0.5-0.5,0.9-1,0.9-1.6v-10.3
						C207.8,150.6,207.5,150.1,206.9,149.6z M206.9,161.6c0,0.4-0.2,0.8-0.5,1s-0.6,0.4-1,0.4s-0.7-0.1-1-0.4
						c-0.3-0.2-0.5-0.6-0.5-1v-10.3c0-0.4,0.2-0.8,0.5-1s0.6-0.4,1-0.4s0.7,0.1,1,0.4c0.3,0.2,0.5,0.6,0.5,1V161.6z M208.3,148
						c-0.8-0.9-1.9-1.2-2.9-1.2c-1.2,0-2.1,0.4-2.8,1.2c-0.9,0.8-1.4,1.9-1.4,3.2v10.3c0,1.2,0.5,2.4,1.4,3.2c0.9,0.7,1.8,1,2.8,1
						c1.1,0,2.2-0.4,2.9-1c0.9-0.8,1.4-1.9,1.4-3.2v-10.3C209.7,150.1,209.2,148.8,208.3,148z M208.9,161.6c0,0.9-0.4,1.9-1.2,2.6
						c-0.6,0.6-1.6,0.9-2.4,0.9c-0.9,0-1.7-0.3-2.3-0.9c-0.7-0.6-1.2-1.6-1.2-2.6v-10.3c0-0.9,0.4-1.9,1.2-2.6
						c0.7-0.6,1.5-0.9,2.3-0.9c0.9,0,1.8,0.4,2.4,0.9c0.7,0.6,1.2,1.6,1.2,2.6V161.6z M218.6,149.6c-0.4-0.4-0.9-0.5-1.5-0.5
						s-1.1,0.2-1.6,0.5c-0.5,0.5-0.7,1-0.7,1.6v10.3c0,0.6,0.2,1.2,0.7,1.6c0.5,0.4,0.9,0.5,1.6,0.5c0.5,0,1.1-0.2,1.5-0.5
						c0.5-0.5,0.9-1,0.9-1.6v-10.3C219.4,150.6,219.1,150.1,218.6,149.6z M218.6,161.6c0,0.4-0.2,0.8-0.5,1s-0.6,0.4-1,0.4
						s-0.7-0.1-1-0.4c-0.3-0.2-0.5-0.6-0.5-1v-10.3c0-0.4,0.2-0.8,0.5-1s0.6-0.4,1-0.4s0.7,0.1,1,0.4c0.3,0.2,0.5,0.6,0.5,1V161.6z
						 M220,148c-0.8-0.9-1.9-1.2-2.9-1.2c-1.2,0-2.1,0.4-2.8,1.2c-0.9,0.8-1.4,1.9-1.4,3.2v10.3c0,1.2,0.5,2.4,1.4,3.2
						c0.9,0.7,1.8,1,2.8,1c1.1,0,2.2-0.4,2.9-1c0.9-0.8,1.4-1.9,1.4-3.2v-10.3C221.4,150.1,220.8,148.8,220,148z M220.6,161.6
						c0,0.9-0.4,1.9-1.2,2.6c-0.6,0.6-1.6,0.9-2.4,0.9c-0.9,0-1.7-0.3-2.3-0.9c-0.7-0.6-1.1-1.6-1.1-2.6v-10.3
						c0-0.9,0.4-1.9,1.1-2.6c0.7-0.6,1.5-0.9,2.3-0.9c0.9,0,1.8,0.4,2.4,0.9c0.7,0.6,1.2,1.6,1.2,2.6V161.6z M233.1,147
						c-2.1,0.4-3.6,2.3-3.6,4.3v3.9v10.6h0.9v-6.6l1.2,0.7v5.9h0.9v-5.4l2.9,1.7v3.7h0.9v-4.3c-1.2-0.7-2.5-1.4-3.7-2.2v-1.5
						c1.2,0.7,2.5,1.4,3.7,2.2v-8.7c0-1.2-1-2.3-2.3-2.3c-1.2,0-2.3,1.1-2.3,2.3v7.5l-1.2-0.7v-6.8c0-1.9,1.6-3.6,3.6-3.6
						c1.9,0,3.6,1.6,3.6,3.6v14.4h0.9v-14.4C238.2,148.6,235.7,146.6,233.1,147z M232.4,151.4c0-0.9,0.6-1.5,1.5-1.5
						s1.5,0.6,1.5,1.5v7.2l-2.9-1.6L232.4,151.4L232.4,151.4z M242.1,165.7c0-5.3,0-10.6,0-15.9h1.3c0,5.3,0,10.6,0,15.9h0.9
						c0-5.3,0-10.6,0-15.9h4.5V149h-4.5v-1.2h4.5V147h-7.5v18.8h0.8V165.7z M243.4,149.1h-1.3v-1.3h1.3V149.1z M254.6,147
						c-2.1,0.4-3.6,2.3-3.6,4.3v3.9v10.6h0.9v-6.6l1.2,0.7v5.9h0.9v-5.4l2.9,1.7v3.7h0.9v-4.3c-1.2-0.7-2.5-1.4-3.7-2.2v-1.5
						c1.2,0.7,2.5,1.4,3.7,2.2v-8.7c0-1.2-1-2.3-2.3-2.3c-1.2,0-2.3,1.1-2.3,2.3v7.5l-1.2-0.7v-6.8c0-1.9,1.6-3.6,3.6-3.6
						c2,0,3.6,1.6,3.6,3.6v14.4h0.9v-14.4C259.8,148.6,257.2,146.6,254.6,147z M253.9,151.4c0-0.9,0.6-1.5,1.5-1.5s1.5,0.6,1.5,1.5
						v7.2L254,157L253.9,151.4L253.9,151.4z M267.2,147.8v1.2H262v0.8h3.2v15.9h0.9v-15.9h1.2v15.9h0.9v-15.9h3.2V149H268v-1.2h3.2
						V147h-9.3v0.9L267.2,147.8L267.2,147.8z M272.8,158.3h4.2v-0.8h-4.2V158.3z M283.6,147.8v1.2h-5.2v0.8h3.2v15.9h0.9v-15.9h1.2
						v15.9h0.9v-15.9h3.2V149h-3.2v-1.2h3.2V147h-9.3v0.9L283.6,147.8L283.6,147.8z M297.7,151.7c-0.4-0.9-0.9-1.8-1.6-2.5
						s-1.6-1.2-2.5-1.7c-1.2-0.5-2.3-0.5-3.6-0.5v18.8h0.9v-5.6c0.4,0,0.9-0.1,1.2-0.2v5.7h0.9v-3.8l0.5-0.2
						c0.9-0.4,1.8-0.9,2.5-1.7c0.7-0.7,1.2-1.6,1.6-2.5s0.6-1.9,0.6-3C298.3,153.6,298.2,152.6,297.7,151.7z M296.9,157.2
						c-0.3,0.9-0.9,1.6-1.5,2.3c-0.7,0.7-1.6,1.3-2.5,1.6v-1.4c0.6-0.2,1.1-0.6,1.6-1.1c1-1,1.6-2.5,1.6-4s-0.6-2.9-1.6-4
						c-0.5-0.5-1-0.9-1.6-1.1c-0.3-0.2-0.5-0.2-0.9-0.3v9.9c-0.4,0.2-0.9,0.2-1.2,0.2v-11.6c0.5,0,0.9,0.1,1.2,0.2
						c1.3,0.3,2.4,0.9,3.3,1.9c0.6,0.6,1.2,1.4,1.5,2.3c0.4,0.9,0.5,1.7,0.5,2.6C297.5,155.5,297.3,156.4,296.9,157.2z M293,150.5
						c0.4,0.2,0.6,0.5,0.9,0.7c0.9,0.9,1.4,2.1,1.4,3.3s-0.5,2.5-1.4,3.3c-0.3,0.3-0.6,0.5-0.9,0.8V150.5z M304.6,147
						c-2.1,0.4-3.6,2.3-3.6,4.3v3.9v10.6h0.9v-6.6l1.2,0.7v5.9h0.9v-5.4l2.9,1.7v3.7h0.9v-4.3c-1.2-0.7-2.5-1.4-3.7-2.2v-1.5
						c1.2,0.7,2.5,1.4,3.7,2.2v-8.7c0-1.2-1-2.3-2.3-2.3c-1.2,0-2.3,1.1-2.3,2.3v7.5l-1.2-0.7v-6.8c0-1.9,1.6-3.6,3.6-3.6
						s3.6,1.6,3.6,3.6v14.4h0.9v-14.4C309.7,148.6,307.2,146.6,304.6,147z M303.9,151.4c0-0.9,0.6-1.5,1.5-1.5s1.5,0.6,1.5,1.5v7.2
						L304,157L303.9,151.4L303.9,151.4z M320.6,157.7h-1.3V147h-0.9v10.8h-2.6V147H315v10.8h-1.2V147h-0.9v18.8h0.9v-5h1.2v5h0.9v-5
						h2.6v5h0.9v-5.9h-5.5v-1.2h6.8v7.1h0.9V147h-0.9L320.6,157.7L320.6,157.7z M332.5,157.7c0-0.6-0.2-1.2-0.5-1.6
						c0,0-0.1-0.2-0.2-0.2c0.4-0.5,0.6-1.1,0.6-1.7v-3.3v-0.1l0,0c0-0.5-0.1-0.9-0.2-1.4c-0.2-0.5-0.5-0.9-0.9-1.3
						c-0.4-0.5-0.9-0.8-1.4-1s-1.2-0.4-1.7-0.4c-0.6,0-1.2,0.2-1.7,0.4s-1,0.5-1.4,1s-0.7,0.9-0.9,1.5c-0.1,0.2-0.2,0.4-0.2,0.6
						c0,0.2-0.1,0.4-0.1,0.6l0,0v0.1c0,0.5,0,1.2,0,1.7h0.8c0-0.5,0-1.2,0-1.7c0-0.4,0.1-0.9,0.2-1.2c0.2-0.4,0.4-0.7,0.6-1
						c0.3-0.4,0.7-0.6,1.2-0.8c0.4-0.2,0.9-0.3,1.4-0.3s0.9,0.1,1.4,0.3s0.9,0.5,1.2,0.8c0.5,0.6,0.9,1.4,0.9,2.3v3.2
						c0,1.3-1.2,2.3-2.4,2.3h-0.1H329h-3.1v0.9h3.1l0,0h0.1c0.1,0,0.2,0.1,0.3,0.2c0.1,0.1,0.2,0.2,0.2,0.2v3.8v0.3
						c0,0.2-0.1,0.4-0.2,0.5c-0.1,0.2-0.2,0.3-0.2,0.4c-0.3,0.3-0.6,0.5-1,0.5s-0.8-0.2-1-0.5s-0.4-0.6-0.4-0.9v-0.3v-2h-0.9v2v0.3
						c0,0.5,0.2,1.1,0.5,1.4c0.5,0.5,1,0.7,1.7,0.7c0.3,0,0.6-0.1,0.9-0.2c0.3-0.2,0.5-0.3,0.7-0.5s0.3-0.4,0.4-0.7
						c0.1-0.2,0.2-0.5,0.2-0.7v-0.3v-3.8c0-0.2-0.1-0.4-0.2-0.5c0.4-0.2,0.7-0.3,1.1-0.6c0.2,0.4,0.3,0.7,0.3,1.2v0.2v3.6v0.4
						c0,0.9-0.3,1.6-0.9,2.2c-0.3,0.4-0.6,0.6-1.2,0.9c-0.4,0.2-0.9,0.3-1.4,0.3s-1-0.1-1.4-0.3c-0.5-0.2-0.9-0.5-1.2-0.9
						c-0.2-0.3-0.5-0.7-0.6-1c-0.2-0.4-0.2-0.8-0.2-1.2v-0.4v-2H324v2v0.4c0,0.2,0,0.5,0.1,0.7c0,0.2,0.1,0.4,0.2,0.5
						c0.2,0.5,0.5,1.1,0.9,1.5c0.4,0.5,0.9,0.8,1.4,1s1.2,0.4,1.7,0.4c0.6,0,1.2-0.1,1.7-0.4c0.5-0.2,1-0.5,1.4-1
						c0.4-0.4,0.6-0.8,0.9-1.3c0.2-0.5,0.2-0.9,0.2-1.5v-0.4L332.5,157.7L332.5,157.7L332.5,157.7z M326.6,149.4
						c-0.3,0.4-0.5,0.9-0.5,1.4l0,0v0.1c0,0.5,0,1.2,0,1.7h0.9c0-0.5,0-1.2,0-1.7c0-0.3,0.2-0.6,0.4-0.9s0.6-0.5,1-0.5
						s0.7,0.2,1,0.5c0.2,0.2,0.2,0.2,0.2,0.4s0.2,0.3,0.2,0.5c0,1,0,2.1,0,3.1c0,0.2-0.2,0.4-0.4,0.4l0,0h-0.1h-3.1v0.9h3.1l0,0
						c0.7,0,1.2-0.4,1.2-1.2V151v-0.2l0,0c0-0.2-0.1-0.5-0.2-0.7s-0.2-0.5-0.4-0.7c-0.2-0.2-0.5-0.4-0.7-0.5
						c-0.3-0.2-0.6-0.2-0.9-0.2C327.6,148.7,327,149.1,326.6,149.4z M340.6,165.7h0.9V147h-0.9v8.2l-2.5,5V147h-0.9v14.8l-1.2,2.3
						V147h-0.9v18.8h0.9l4.6-8.7v2.4l-3.2,6.3h0.9l2.3-4.6L340.6,165.7L340.6,165.7z M343.6,165.7V147h-0.9v18.8h0.9V165.7z
						 M351.1,147.8v1.2h-5.2v0.8h3.2v15.9h0.9v-15.9h1.2v15.9h0.9v-15.9h3.2V149H352v-1.2h3.2V147h-9.3v0.9L351.1,147.8L351.1,147.8
						z"/>
					<path class="st3" d="M328.3,166.5c-0.6,0-1.3-0.2-1.8-0.4c-0.6-0.3-1.1-0.6-1.5-1.1c-0.3-0.3-0.6-0.8-0.9-1.5
						c-0.1-0.1-0.2-0.4-0.2-0.6c-0.1-0.3-0.1-0.6-0.1-0.8v-2.7h1.2v2.7c0,0.4,0,0.7,0.2,1.1c0.1,0.2,0.3,0.5,0.5,0.8l0.1,0.2
						c0.3,0.3,0.6,0.6,1.1,0.8c0.7,0.4,1.9,0.4,2.6,0c0.6-0.3,0.9-0.5,1.1-0.8c0.6-0.6,0.8-1.2,0.8-2v-4.2c0-0.3,0-0.5-0.1-0.8
						c-0.2,0.1-0.4,0.2-0.6,0.3c0,0,0,0,0,0c0,0.1,0.1,0.2,0.1,0.4v4.1c0,0.3-0.1,0.6-0.2,0.8c-0.1,0.3-0.2,0.5-0.5,0.8
						c-0.2,0.2-0.3,0.3-0.5,0.4l-0.3,0.2c-0.3,0.1-0.6,0.2-1,0.2c-0.8,0-1.4-0.2-1.9-0.8c-0.3-0.3-0.6-1-0.6-1.6v-2.6h1.5v2.6
						c0,0.2,0.2,0.5,0.4,0.7c0.1,0.2,0.5,0.4,0.8,0.4c0.3,0,0.5-0.1,0.7-0.4c0-0.1,0.1-0.1,0.1-0.2c0,0,0.1-0.1,0.1-0.2l0.1-0.1
						c0,0,0.1-0.2,0.1-0.3v-4l-0.1-0.1c0,0-0.1-0.1-0.1-0.1l-0.1,0h-3.4v-1.5h3.6c1,0,2.1-0.8,2.1-2V151c0-0.9-0.5-1.7-0.8-2.1
						c-0.3-0.3-0.7-0.6-1.1-0.7c-0.5-0.2-0.9-0.3-1.3-0.3c-0.5,0-0.9,0.1-1.3,0.3c-0.5,0.2-0.9,0.4-1.1,0.7c-0.2,0.3-0.4,0.6-0.6,1
						c-0.1,0.2-0.2,0.7-0.2,1.1v2h-1.4v-2.1c0-0.1,0-0.3,0.1-0.4c0-0.1,0-0.2,0-0.2c0-0.3,0.1-0.5,0.2-0.7c0.2-0.6,0.5-1,0.9-1.6
						c0.4-0.5,0.9-0.8,1.5-1.1c0.5-0.2,1.1-0.4,1.8-0.4c0.6,0,1.3,0.2,1.8,0.4c0.6,0.3,1.1,0.6,1.5,1.1c0.4,0.4,0.7,0.9,0.9,1.4
						l0.1,0.3c0.1,0.4,0.2,0.8,0.2,1.3v3.4c0,0.6-0.2,1.2-0.5,1.7c0,0,0.1,0.1,0.1,0.1c0.3,0.4,0.5,1.1,0.5,1.7v4.3
						c0,0.6,0,1.1-0.2,1.6l-0.2,0.3c-0.2,0.4-0.4,0.8-0.8,1.1c-0.4,0.5-0.9,0.8-1.5,1.1C329.7,166.3,329,166.5,328.3,166.5z
						 M327,165.6c0.4,0.1,0.9,0.3,1.3,0.3c0.6,0,1.2-0.1,1.6-0.4c0.6-0.2,1-0.5,1.3-0.9c0.3-0.3,0.5-0.6,0.7-1l0.1-0.3
						c0.2-0.4,0.2-0.8,0.2-1.4v-4.3c0-0.5-0.2-1.1-0.4-1.4c0,0,0-0.1-0.1-0.1h-0.5l0.4-0.5c0.3-0.4,0.5-1,0.5-1.5v-3.4
						c0-0.4-0.1-0.7-0.2-1.1l0-0.2c-0.2-0.4-0.4-0.7-0.8-1.2c-0.3-0.4-0.8-0.7-1.3-0.9c-0.4-0.2-1.1-0.4-1.6-0.4
						c-0.6,0-1.2,0.2-1.6,0.4c-0.5,0.2-1,0.5-1.3,0.9c-0.4,0.5-0.7,0.9-0.9,1.4c-0.1,0.2-0.2,0.4-0.2,0.5c0,0.1,0,0.3-0.1,0.4
						c0,0.1,0,0.2,0,0.2v1.5h0.2v-1.4c0-0.4,0.1-1,0.2-1.3c0.2-0.4,0.4-0.8,0.6-1c0.4-0.5,0.9-0.7,1.3-0.9c0.4-0.2,0.9-0.3,1.5-0.3
						c0.5,0,0.9,0.1,1.5,0.3c0.5,0.2,0.9,0.5,1.3,0.9c0.5,0.5,1,1.4,1,2.5v3.2c0,1.5-1.4,2.6-2.7,2.6h-3v0.3h2.9
						c0.2,0,0.4,0.2,0.5,0.3l0.3,0.3v4.2c0,0.3-0.1,0.5-0.2,0.7c0,0.1-0.1,0.1-0.1,0.2c0,0,0,0.1-0.1,0.1v0.1l-0.1,0.1
						c-0.3,0.3-0.7,0.6-1.2,0.6c-0.5,0-1-0.2-1.2-0.6c-0.2-0.3-0.4-0.7-0.4-1.1v-2h-0.3v2c0,0.4,0.2,1,0.4,1.2
						c0.4,0.4,0.9,0.6,1.5,0.6c0.2,0,0.5-0.1,0.8-0.2l0.2-0.1c0.2-0.1,0.3-0.2,0.4-0.3c0.2-0.2,0.2-0.3,0.3-0.6
						c0.1-0.2,0.2-0.5,0.2-0.6v-4.1c0-0.1-0.1-0.3-0.1-0.3l-0.3-0.3l0.3-0.2c0.1-0.1,0.2-0.1,0.3-0.1c0.3-0.1,0.5-0.2,0.8-0.4
						l0.3-0.2l0.1,0.3c0.2,0.4,0.3,0.8,0.3,1.3v4.2c0,1-0.3,1.7-1,2.4c-0.3,0.4-0.7,0.6-1.3,1C328.8,165.8,327.8,165.9,327,165.6z
						 M324.3,160v2.1c0,0.2,0,0.4,0.1,0.5c0-0.2,0-0.4,0-0.5L324.3,160L324.3,160z M343.9,166.1h-1.5v-19.4h1.5V166.1z M343,165.5
						h0.3v-18.2H343V165.5z M338.5,166.1h-1.5l3.4-6.6v-1.2l-4.2,7.9h-1.3v-19.4h1.5V163l0.6-1.2v-15h1.5V159l1.9-3.9v-8.4h1.5V166
						h-1.5v-3.6L338.5,166.1z M337.9,165.5h0.3l2.8-5.5v5.4h0.3v-18.1h-0.3l0,8l-3,6.1v-14.1h-0.3l0,14.7l-1.7,3.3v-18h-0.3v18.2
						h0.5l5-9.5l0,3.7L337.9,165.5z M321.9,166.1h-1.5V159h-6.2v0.6h5.5v6.5h-1.5v-5h-2v5h-1.5v-5h-0.6v5h-1.5v-19.4h1.5v10.8h0.6
						v-10.8h1.4v10.8h2v-10.8h1.5v10.7h0.7l0.1-10.7h1.5V166.1z M321,165.5h0.3v-18.2H321l-0.1,10.7H319v-10.7h-0.3v10.8h-3.2v-10.8
						h-0.2v10.8h-1.8v-10.8h-0.3v18.2h0.3v-5h1.8v5h0.3v-5h3.2v5h0.3v-5.3h-5.5v-1.8h7.4V165.5z M308.1,166.1h-1.5v-3.8l-2.3-1.4
						v5.2h-1.5v-6l-0.6-0.4v6.4h-1.5v-14.8c0-2.2,1.6-4.2,3.8-4.6l0,0c1.3-0.2,2.6,0.1,3.7,0.9c1.2,0.9,2,2.2,2.2,3.6l0,14.7h-1.5
						v-14.7c0-1.8-1.5-3.3-3.3-3.3c-1.8,0-3.3,1.5-3.3,3.3v6.6l0.6,0.4v-7c0-1.4,1.2-2.6,2.6-2.6c1.4,0,2.6,1.2,2.6,2.6v9.2
						l-0.4-0.3c-0.9-0.6-1.8-1.1-2.7-1.6c-0.2-0.1-0.4-0.2-0.6-0.3v0.9c0.8,0.6,1.7,1.1,2.6,1.5c0.3,0.2,0.7,0.4,1,0.6l0.1,0.1
						V166.1z M307.2,165.5h0.3v-3.9c-0.3-0.2-0.6-0.3-0.8-0.5c-0.9-0.5-1.9-1.1-2.7-1.7l-0.1-0.1v-2.1l0.4,0.2
						c0.3,0.2,0.6,0.4,1,0.6c0.8,0.4,1.5,0.9,2.3,1.4v-8.2c0-1.1-0.9-2-2-2c-1,0-2,1-2,2v8l-1.8-1v-7c0-2.1,1.8-3.9,3.9-3.9
						c2.1,0,3.9,1.7,3.9,3.9v14.1h0.3v-14.1c-0.2-1.2-0.9-2.4-1.9-3.2c-1-0.7-2.1-1-3.2-0.8c-1.9,0.4-3.4,2.1-3.4,4v14.2h0.3v-6.8
						l1.8,1v5.8h0.3v-5.6l3.5,2V165.5z M291.2,166.1h-1.5v-19.4h0.3c1.3,0,2.5,0,3.7,0.5c0.9,0.5,1.9,1,2.6,1.8
						c0.6,0.6,1.1,1.4,1.7,2.6c0.5,0.8,0.6,1.9,0.5,3c0,1.1-0.2,2.2-0.6,3.1c-0.5,1.1-1,2-1.7,2.6c-0.8,0.9-1.8,1.4-2.6,1.8
						l-0.3,0.1v3.9h-1.5v-5.6c-0.2,0-0.4,0.1-0.6,0.1V166.1z M290.3,165.5h0.3v-5.6h0.3c0.4,0,0.8-0.1,1.1-0.2l0.4-0.1v5.8h0.3v-3.7
						l0.7-0.3c0.7-0.3,1.7-0.8,2.4-1.6c0.6-0.6,1.1-1.4,1.6-2.4c0.4-0.9,0.6-1.8,0.6-2.9c0.1-0.7,0.1-1.7-0.5-2.7l0,0
						c-0.5-1.1-1-1.8-1.5-2.4c-0.7-0.7-1.6-1.2-2.4-1.7c-1-0.4-2-0.5-3.2-0.5V165.5z M258.1,166.1h-1.5v-3.8l-2.3-1.4v5.2h-1.5v-6
						l-0.6-0.4v6.4h-1.5v-14.8c0-2.2,1.6-4.2,3.8-4.6l0,0c1.3-0.2,2.7,0.2,3.8,1c1.1,0.9,1.9,2.2,2,3.5l0,14.7h-1.5v-14.7
						c0-1.8-1.5-3.3-3.3-3.3c-1.8,0-3.3,1.5-3.3,3.3v6.6l0.6,0.4v-7c0-1.4,1.2-2.6,2.6-2.6c1.4,0,2.6,1.2,2.6,2.6v9.2l-0.4-0.3
						c-0.9-0.6-1.8-1.1-2.7-1.6c-0.2-0.1-0.4-0.2-0.6-0.3v0.9c0.8,0.6,1.7,1.1,2.6,1.5c0.3,0.2,0.7,0.4,1,0.6l0.1,0.1V166.1z
						 M257.2,165.5h0.3v-3.9c-0.3-0.2-0.6-0.3-0.8-0.5c-0.9-0.5-1.9-1.1-2.7-1.7l-0.1-0.1v-2.1l0.4,0.2c0.3,0.2,0.6,0.4,1,0.6
						c0.8,0.4,1.5,0.9,2.3,1.4v-8.2c0-1.1-0.9-2-2-2c-1,0-2,1-2,2v8l-1.8-1v-7c0-2.1,1.8-3.9,3.9-3.9c2.1,0,3.9,1.7,3.9,3.9v14.1
						h0.3v-14.1c-0.1-1.2-0.8-2.3-1.8-3.1c-1-0.8-2.2-1.1-3.4-0.9c-1.9,0.4-3.4,2.1-3.4,4v14.2h0.3v-6.8l1.8,1v5.8h0.3v-5.6l3.5,2
						V165.5z M242.4,166.1H241v-19.4h8.1v1.4h-4.5v0.6h4.5v1.4h-4.5V166h-1.5v-15.9h-0.7V166.1z M241.6,165.5h0.2v-16h1.9v15.9h0.3
						v-15.9h4.5v-0.2H244v-1.8h4.5v-0.2h-6.9V165.5z M236.6,166.1h-1.5v-3.8l-2.3-1.4v5.2h-1.5v-6l-0.6-0.4v6.4h-1.5v-14.8
						c0-2.2,1.6-4.2,3.8-4.6l0,0c1.3-0.2,2.6,0.1,3.7,0.9c1.2,0.9,2,2.2,2.2,3.6l0,14.7h-1.5v-14.7c0-1.8-1.5-3.3-3.3-3.3
						s-3.3,1.5-3.3,3.3v6.6l0.6,0.4v-7c0-1.4,1.2-2.6,2.6-2.6c1.4,0,2.6,1.2,2.6,2.6v9.2l-0.4-0.3c-0.9-0.6-1.8-1.1-2.7-1.6
						c-0.2-0.1-0.4-0.2-0.6-0.3v0.9c0.8,0.5,1.7,1.1,2.6,1.5c0.3,0.2,0.7,0.4,1,0.6l0.1,0.1V166.1z M235.7,165.5h0.3v-3.9
						c-0.3-0.2-0.6-0.3-0.8-0.5c-0.9-0.5-1.9-1.1-2.7-1.6l-0.1-0.1v-2.1l0.4,0.2c0.3,0.2,0.6,0.4,1,0.6c0.8,0.4,1.5,0.9,2.3,1.4
						v-8.2c0-1.1-0.9-2-2-2c-1,0-2,1-2,2v8l-1.8-1v-7c0-2.1,1.8-3.9,3.9-3.9s3.9,1.8,3.9,3.9v14.1h0.3v-14.1
						c-0.2-1.2-0.9-2.4-1.9-3.2c-1-0.7-2.1-1-3.2-0.8c-1.9,0.4-3.4,2.1-3.4,4v14.2h0.3v-6.8l1.8,1v5.8h0.3v-5.6l3.5,2V165.5z
						 M352.4,166h-1.5v-15.9h-0.6V166h-1.5v-15.9h-3.2v-1.4h5.2v-0.5h-5.2v-1.5h9.9v1.4h-3.2v0.6h3.3v1.4h-3.2V166z M351.5,165.4
						h0.3v-15.9h3.2v-0.2h-3.3v-1.8h3.2v-0.2h-8.7v0.3h4.9v0.2h0.3v1.5h-5.2v0.2h3.2v15.9h0.3v-15.9h1.8V165.4z M284.9,166h-1.5
						v-15.9h-0.6V166h-1.5v-15.9h-3.2v-1.4h5.2v-0.5h-5.1v-1.5h9.9v1.4h-3.2v0.6h3.2v1.4h-3.2V166z M284,165.4h0.3v-15.9h3.2v-0.2
						h-3.2v-1.8h3.2v-0.2h-8.7v0.3h4.8v0.2h0.3v1.5h-5.2v0.2h3.2v15.9h0.3v-15.9h1.8V165.4z M268.5,166H267v-15.9h-0.6V166h-1.5
						v-15.9h-3.2v-1.4h5.2v-0.5h-5.3v-1.5h9.9v1.4h-3.2v0.6h3.4v1.4h-3.2V166z M267.6,165.4h0.3v-15.9h3.2v-0.2h-3.4v-1.8h3.2v-0.2
						h-8.7v0.3h5v0.2h0.3v1.5h-5.2v0.2h3.2v15.9h0.3v-15.9h1.8V165.4z M217.1,166c-1.1,0-2-0.3-3-1.1c-0.9-0.8-1.5-2.1-1.5-3.4
						v-10.3c0-1.4,0.5-2.5,1.5-3.4c0.7-0.8,1.7-1.3,3-1.3c0.9,0,2.2,0.2,3.1,1.3c0.9,0.9,1.5,2.2,1.5,3.4v10.3
						c0,1.4-0.5,2.5-1.5,3.4C219.4,165.6,218.2,166,217.1,166z M217.1,147.1c-1.1,0-1.9,0.4-2.6,1.1c-0.9,0.8-1.3,1.8-1.3,3v10.3
						c0,1.1,0.5,2.3,1.3,3c0.8,0.6,1.6,0.9,2.6,0.9c1,0,2-0.4,2.7-0.9c0.9-0.8,1.3-1.8,1.3-3v-10.3c0-1-0.5-2.2-1.3-3l0,0
						C219,147.3,217.9,147.1,217.1,147.1z M205.4,166c-1.1,0-2-0.3-3-1.1c-0.9-0.8-1.5-2.1-1.5-3.4v-10.3c0-1.4,0.5-2.5,1.5-3.4
						c0.7-0.8,1.7-1.3,3-1.3c0.9,0,2.1,0.2,3.1,1.3c0.9,0.8,1.5,2.1,1.5,3.4v10.3c0,1.4-0.5,2.5-1.5,3.4
						C207.7,165.6,206.5,166,205.4,166z M205.4,147.1c-1.1,0-1.9,0.4-2.6,1.1c-0.9,0.8-1.3,1.8-1.3,3v10.3c0,1.1,0.5,2.3,1.3,3
						c0.8,0.6,1.6,0.9,2.6,0.9c1,0,2-0.4,2.7-0.9c0.9-0.8,1.3-1.8,1.3-3v-10.3c0-1.1-0.5-2.3-1.3-3l0,0
						C207.3,147.3,206.2,147.1,205.4,147.1z M196,166h-1.5v-15.9h-0.6V166h-1.5v-15.9h-3.2v-1.4h5.2v-0.5h-5.1v-1.5h9.9v1.4H196v0.6
						h3.2v1.4H196V166z M195.1,165.4h0.3v-15.9h3.2v-0.2h-3.2v-1.8h3.2v-0.2h-8.7v0.3h4.8v0.2h0.3v1.5h-5.2v0.2h3.2v15.9h0.3v-15.9
						h1.8V165.4z M217,165.4c-1,0-1.9-0.3-2.5-1c-0.7-0.6-1.2-1.7-1.2-2.8v-10.3c0-1,0.5-2.1,1.2-2.8c0.8-0.6,1.6-1,2.5-1
						c0.9,0,1.9,0.4,2.6,1c0.8,0.7,1.3,1.8,1.3,2.8v10.3c0,1-0.5,2.1-1.3,2.8C218.9,165.1,217.7,165.4,217,165.4z M217,148.1
						c-0.8,0-1.5,0.3-2.1,0.8c-0.6,0.6-1,1.5-1,2.4v10.3c0,0.9,0.4,1.9,1,2.4c0.6,0.6,1.3,0.8,2.1,0.8c0.7,0,1.6-0.3,2.2-0.8
						c0.7-0.6,1.1-1.5,1.1-2.4v-10.3c0-0.9-0.4-1.8-1.1-2.4C218.7,148.5,217.9,148.1,217,148.1z M205.3,165.4c-1,0-1.9-0.3-2.5-1
						c-0.8-0.7-1.3-1.8-1.3-2.8v-10.3c0-1,0.5-2.1,1.3-2.8c0.7-0.6,1.6-1,2.5-1c0.9,0,1.9,0.4,2.6,1c0.8,0.7,1.3,1.8,1.3,2.8v10.3
						c0,1-0.5,2.1-1.3,2.8C207.2,165.1,206,165.4,205.3,165.4z M205.3,148.1c-0.7,0-1.5,0.3-2.1,0.8c-0.7,0.6-1.1,1.5-1.1,2.4v10.3
						c0,0.9,0.4,1.8,1.1,2.4c0.6,0.6,1.3,0.8,2.1,0.8c0.7,0,1.6-0.3,2.2-0.8c0.7-0.6,1.1-1.5,1.1-2.4v-10.3c0-0.9-0.4-1.8-1.1-2.4
						C207,148.5,206.2,148.1,205.3,148.1z M217.1,163.9c-0.7,0-1.2-0.1-1.8-0.6c-0.5-0.4-0.8-1.1-0.8-1.8v-10.3
						c0-0.7,0.2-1.3,0.8-1.8c0.7-0.4,1.2-0.6,1.8-0.6c0.6,0,1.2,0.1,1.7,0.6l0,0l0,0c0,0,0,0,0,0c0.6,0.6,0.9,1.1,1,1.8l0,10.3
						c0,0.7-0.5,1.3-1,1.8C218.3,163.7,217.7,163.9,217.1,163.9z M217.1,149.4c-0.5,0-0.9,0.1-1.5,0.5c-0.4,0.4-0.6,0.8-0.6,1.4
						v10.3c0,0.6,0.2,1.1,0.6,1.4c0.4,0.3,0.7,0.4,1.4,0.4c0.4,0,1-0.2,1.3-0.4c0.5-0.5,0.8-0.9,0.8-1.4v-10.3
						c-0.1-0.5-0.3-0.9-0.8-1.4h0C218.1,149.5,217.7,149.4,217.1,149.4z M205.4,163.9c-0.7,0-1.2-0.1-1.8-0.6
						c-0.5-0.4-0.8-1.1-0.8-1.8v-10.3c0-0.7,0.2-1.3,0.8-1.8c0.6-0.4,1.3-0.6,1.8-0.6c0.5,0,1.2,0.1,1.7,0.6c0.7,0.6,1,1.1,1,1.8
						v10.3c0,0.7-0.5,1.3-1,1.8C206.6,163.7,206,163.9,205.4,163.9z M205.4,149.4c-0.4,0-1,0.2-1.5,0.5c-0.4,0.4-0.6,0.8-0.6,1.4
						v10.3c0,0.6,0.2,1.1,0.6,1.4c0.4,0.3,0.7,0.4,1.4,0.4c0.4,0,1-0.2,1.3-0.4c0.5-0.5,0.8-0.9,0.8-1.4v-10.3
						c0-0.5-0.2-0.9-0.8-1.4l0,0C206.4,149.5,206,149.4,205.4,149.4z M217.1,163.3c-0.5,0-0.9-0.1-1.2-0.5c-0.3-0.2-0.6-0.7-0.6-1.2
						v-10.3c0-0.5,0.2-1,0.6-1.2c0.3-0.2,0.7-0.4,1.2-0.4c0.5,0,0.9,0.1,1.2,0.5c0.3,0.2,0.6,0.7,0.6,1.2v10.3c0,0.5-0.2,1-0.6,1.2
						C217.9,163,217.6,163.3,217.1,163.3z M217.1,150.2c-0.3,0-0.6,0.2-0.8,0.4c-0.2,0.1-0.4,0.5-0.4,0.8v10.3
						c0,0.3,0.2,0.6,0.4,0.8c0.3,0.3,0.5,0.4,0.8,0.4c0.3,0,0.6-0.2,0.8-0.4c0.2-0.1,0.4-0.5,0.4-0.8v-10.3c0-0.3-0.2-0.6-0.4-0.8
						C217.7,150.3,217.5,150.2,217.1,150.2z M205.4,163.3c-0.5,0-0.9-0.1-1.2-0.5c-0.3-0.2-0.6-0.7-0.6-1.2v-10.3
						c0-0.5,0.2-1,0.6-1.2c0.3-0.2,0.7-0.4,1.2-0.4c0.5,0,0.9,0.1,1.2,0.5c0.3,0.2,0.6,0.7,0.6,1.2v10.3c0,0.5-0.2,1-0.6,1.2
						C206.2,163,205.9,163.3,205.4,163.3z M205.4,150.2c-0.3,0-0.6,0.2-0.8,0.4c-0.2,0.1-0.4,0.5-0.4,0.8v10.3
						c0,0.3,0.2,0.6,0.4,0.8c0.3,0.3,0.5,0.4,0.8,0.4c0.3,0,0.6-0.2,0.8-0.4c0.2-0.1,0.4-0.5,0.4-0.8v-10.3c0-0.3-0.2-0.6-0.4-0.8
						C206,150.3,205.8,150.2,205.4,150.2z M292.6,161.5v-2l0.2-0.1c0.5-0.2,0.9-0.5,1.5-1c1-1,1.5-2.4,1.5-3.8
						c0-1.4-0.5-2.7-1.5-3.8c-0.6-0.6-1-0.9-1.5-1l-0.1,0c-0.2-0.1-0.3-0.1-0.5-0.2v9.7l-0.2,0.1c-0.5,0.2-1,0.2-1.3,0.2h-0.3v-12.2
						h0.3c0.4,0,0.9,0.1,1.3,0.2c1.4,0.3,2.5,1,3.4,2c0.5,0.5,1.2,1.4,1.6,2.4c0.4,0.8,0.5,1.6,0.5,2.7c0.2,0.7,0,1.7-0.4,2.6
						c-0.3,0.9-0.9,1.7-1.5,2.4c-0.8,0.8-1.7,1.4-2.6,1.7L292.6,161.5z M293.2,159.9v0.8c0.7-0.3,1.4-0.8,2-1.4
						c0.6-0.7,1.1-1.3,1.4-2.2l0,0c0.4-0.8,0.5-1.6,0.4-2.3c0-1.1-0.1-1.8-0.5-2.6c-0.3-1-1-1.7-1.4-2.2c-0.8-0.9-1.9-1.5-3.2-1.8
						c-0.2-0.1-0.5-0.2-0.9-0.2v11c0.2,0,0.4,0,0.6-0.1v-10.1l0.3,0.1c0.1,0,0.2,0,0.3,0.1c0.2,0.1,0.4,0.1,0.7,0.3
						c0.7,0.2,1.2,0.7,1.7,1.2c1.1,1.2,1.7,2.7,1.7,4.2c0,1.6-0.6,3.1-1.7,4.2C294.3,159.2,293.8,159.6,293.2,159.9z M292.7,159.3
						V150l0.4,0.2c0.3,0.1,0.5,0.3,0.6,0.5c0.1,0.1,0.2,0.2,0.3,0.3c1,1,1.5,2.3,1.5,3.5c0,1.3-0.6,2.7-1.5,3.5
						c-0.1,0.1-0.3,0.3-0.5,0.4c-0.1,0.1-0.3,0.2-0.4,0.4L292.7,159.3z M293.3,151v6.9c0.1-0.1,0.3-0.2,0.4-0.4
						c0.8-0.7,1.3-1.9,1.3-3.1c0-1.1-0.5-2.3-1.3-3.1C293.6,151.3,293.5,151.2,293.3,151C293.3,151.1,293.3,151.1,293.3,151z
						 M307.2,159.1l-3.5-1.9l-0.1-5.8c0-1,0.7-1.8,1.8-1.8s1.8,0.7,1.8,1.8V159.1z M304.3,156.8l2.3,1.3v-6.7c0-0.7-0.5-1.2-1.2-1.2
						c-0.7,0-1.2,0.5-1.2,1.2L304.3,156.8z M257.2,159.1l-3.5-1.9l-0.1-5.8c0-1,0.7-1.8,1.8-1.8c1,0,1.8,0.7,1.8,1.8V159.1z
						 M254.3,156.8l2.3,1.3v-6.7c0-0.7-0.5-1.2-1.2-1.2c-0.7,0-1.2,0.5-1.2,1.2L254.3,156.8z M235.7,159.1l-3.5-1.9l-0.1-5.8
						c0-1,0.7-1.8,1.8-1.8s1.8,0.7,1.8,1.8V159.1z M232.8,156.8l2.3,1.3v-6.7c0-0.7-0.5-1.2-1.2-1.2c-0.7,0-1.2,0.5-1.2,1.2
						L232.8,156.8z M277.3,158.6h-4.8v-1.4h4.8V158.6z M273.1,158h3.6v-0.2h-3.6V158z M329.3,155.6h-3.4v-1.5h3.5
						c0,0,0.1-0.1,0.1-0.1v-3.1c0,0,0-0.1-0.1-0.1c-0.1-0.1-0.1-0.2-0.1-0.4c0,0,0-0.1,0-0.1c0,0,0,0,0,0c0,0-0.1-0.1-0.1-0.1
						c-0.3-0.3-0.5-0.4-0.8-0.4c-0.3,0-0.6,0.2-0.8,0.4c-0.2,0.3-0.4,0.5-0.4,0.7v2h-1.5v-2.1c0-0.5,0.2-1.1,0.6-1.6l0.1-0.1
						c0.5-0.4,1.1-0.8,1.9-0.8c0.3,0,0.7,0,1.1,0.2c0.2,0.1,0.5,0.3,0.7,0.5c0.2,0.2,0.3,0.4,0.4,0.6c0,0.1,0,0.1,0.1,0.1
						c0.1,0.2,0.2,0.6,0.2,0.8v3.3C330.8,155,330.2,155.6,329.3,155.6z M326.5,155h2.8c0.3,0,0.9-0.1,0.9-0.9v-3.3
						c0-0.1-0.1-0.4-0.2-0.6c0-0.1-0.1-0.1-0.1-0.2c-0.1-0.2-0.2-0.3-0.3-0.5c-0.2-0.2-0.4-0.4-0.6-0.4c-0.3-0.2-0.5-0.2-0.8-0.2
						c-0.6,0-1.1,0.3-1.5,0.6c-0.3,0.4-0.4,0.8-0.4,1.2v1.5h0.3v-1.4c0-0.4,0.2-0.7,0.4-1.1c0.3-0.4,0.7-0.6,1.2-0.6
						c0.5,0,0.9,0.3,1.2,0.6c0.2,0.2,0.3,0.3,0.3,0.6c0,0,0,0.1,0.1,0.1c0.1,0.1,0.1,0.2,0.1,0.4v3.1c0,0.4-0.3,0.7-0.7,0.7h-2.9
						V155z M243.7,149.4h-1.9v-1.9h1.9V149.4z M242.4,148.8h0.7v-0.7h-0.7V148.8z"/>
				</g>
			</g>
		</g>
	</g>
	<g class="st40">
		<path class="st3" d="M144.3,74V57.9h-5.5v-3.5h15v3.5h-5.5V74H144.3z"/>
		<path class="st3" d="M156.1,61.1c0-4.4,3-7.1,7.8-7.1s7.8,2.6,7.8,7.1v6.3c0,4.4-3,7.1-7.8,7.1s-7.8-2.6-7.8-7.1V61.1z
			 M167.8,60.9c0-1.8-1.3-3.2-3.8-3.2s-3.8,1.4-3.8,3.2v6.7c0,1.8,1.3,3.2,3.8,3.2s3.8-1.4,3.8-3.2V60.9z"/>
		<path class="st3" d="M175.5,61.1c0-4.4,3-7.1,7.8-7.1s7.8,2.6,7.8,7.1v6.3c0,4.4-3,7.1-7.8,7.1s-7.8-2.6-7.8-7.1V61.1z
			 M187.2,60.9c0-1.8-1.3-3.2-3.8-3.2c-2.5,0-3.8,1.4-3.8,3.2v6.7c0,1.8,1.3,3.2,3.8,3.2c2.5,0,3.8-1.4,3.8-3.2V60.9z"/>
		<path class="st3" d="M200.1,74v-1.3l6.8-18.3h3.9l6.8,18.3V74h-3.9l-1.6-4.6h-6.7l-1.6,4.6H200.1z M206.5,66.1h4.3l-2.1-6.4
			L206.5,66.1z"/>
		<path class="st3" d="M220.5,74V54.4h12.3v3.5h-8.3V74H220.5z"/>
		<path class="st3" d="M231.8,74v-1.3l6.8-18.3h3.9l6.8,18.3V74h-3.9l-1.6-4.6h-6.7l-1.6,4.6H231.8z M238.2,66.1h4.3l-2.1-6.4
			L238.2,66.1z"/>
		<path class="st3" d="M254.5,74V57.9h-5.5v-3.5h15v3.5h-5.5V74H254.5z"/>
		<path class="st3" d="M264.7,66.9v-3.3h9.2v3.3H264.7z"/>
		<path class="st3" d="M280.1,74V57.9h-5.5v-3.5h15v3.5h-5.5V74H280.1z"/>
		<path class="st3" d="M292.5,74V54.4h8.7c3.5,0,5.6,2.4,5.6,6.2c0,3.8-2.1,6.1-5.6,6.1h-4.8V74H292.5z M296.5,63.3h4.1
			c1.3,0,2.3-0.9,2.3-2.7c0-1.8-1-2.7-2.3-2.7h-4.1V63.3z"/>
		<path class="st3" d="M307.2,74v-1.3l6.8-18.3h3.9l6.8,18.3V74h-3.9l-1.6-4.6h-6.7l-1.6,4.6H307.2z M313.7,66.1h4.3l-2.1-6.4
			L313.7,66.1z"/>
		<path class="st3" d="M327.6,74V54.4h4v8.1h7.2v-8.1h4V74h-4v-8.1h-7.2V74H327.6z"/>
		<path class="st3" d="M348.7,72.7c-1.5-1.1-2.2-2.9-2.2-5.1h4c0,2.2,1.6,3.2,3.8,3.2c2,0,3.2-0.9,3.2-2.5c0-1.6-1-2.4-3.1-2.4h-2.5
			v-3.3h2.5c1.7,0,2.7-0.9,2.7-2.3c0-1.5-1.1-2.6-2.9-2.6c-1.8,0-3.2,1-3.2,3.2h-4c0-2.3,0.7-4,2-5.1c1.3-1.1,3-1.7,5.1-1.7
			c4.4,0,6.9,2.3,6.9,5.8c0,1.8-0.8,3.2-2.4,4.3c1.9,0.9,2.8,2.3,2.8,4.2c0,3.7-2.7,6.1-7.2,6.1C352.1,74.4,350.2,73.8,348.7,72.7z"
			/>
		<path class="st3" d="M365.3,74V54.4h4v12.5l7.6-12.5h3.6V74h-4V61.5L368.9,74H365.3z"/>
		<path class="st3" d="M389,74V57.9h-5.5v-3.5h15v3.5h-5.5V74H389z"/>
	</g>
</g>
</svg>
