<svg id="Layer_7" data-name="Layer 7" xmlns="http://www.w3.org/2000/svg" viewBox="0 0 1820 1053.39"><title>1</title><rect x="7.5" y="481.23" width="1785" height="563.61" rx="59.49" style="fill:#fdfefe;stroke:#be202c;stroke-miterlimit:10;stroke-width:10px"/><path d="M491,665.34c13.22-8.61,30.16-14.64,51.13-14.64,33.61,0,56.88,17.51,56.88,47.35,0,23.81-17.24,41.89-39.93,47.05v.57c27.29,2.87,47.11,20.66,47.11,48.49,0,40.17-34.76,56.24-70.09,56.24-17.52,0-35.9-3.73-50.55-12.63l6.6-19.51c10.34,6,27.58,11.77,43.38,11.77C564.2,830,580,814.53,580,793.3c0-29-27.86-37.3-52.57-37.3H515.94V737.07h11.49c25.57,0,45.39-15.78,45.39-35.58,0-19.51-13.79-30.41-34.76-30.41-14.65,0-29.87,6-40.21,12.62Z" style="fill:#be202c"/><path d="M715.86,847.24l-2-17.5H713c-7.76,10.9-22.69,20.66-42.51,20.66-28.15,0-42.51-19.8-42.51-39.88,0-33.57,29.87-51.93,83.58-51.65V756c0-11.47-3.16-32.13-31.59-32.13-12.93,0-26.43,4-36.2,10.33L638,717.56c11.49-7.46,28.15-12.34,45.67-12.34,42.51,0,52.85,29,52.85,56.81V814c0,12,.58,23.81,2.3,33.28Zm-3.73-70.87c-27.58-.57-58.89,4.31-58.89,31.28,0,16.35,10.92,24.1,23.84,24.1,18.1,0,29.59-11.48,33.61-23.24a26.36,26.36,0,0,0,1.44-8Z" style="fill:#be202c"/><path d="M880.73,847.24h-25V789H837.07c-10.63,0-17.81,2.87-23.26,7.74-10.34,8.33-14.08,25.54-19.54,39a85.12,85.12,0,0,1-5.74,11.47h-27a90.59,90.59,0,0,0,8.62-15.78c6-13.48,9.47-31.56,21.83-41.89a33.11,33.11,0,0,1,15.79-8v-.86c-18.09-2-36.76-13.2-36.76-34.43,0-14.35,7.75-24.1,18.38-30.13,11.49-6.6,28.44-9.47,46.53-9.47a388.6,388.6,0,0,1,44.81,2.87ZM855.74,725a139.93,139.93,0,0,0-21-1.44c-17.23,0-37.62,4.88-37.62,24.1,0,17.79,22.11,24.1,37.05,24.1h21.54Z" style="fill:#be202c"/><path d="M921.23,710.1c9.77-1.73,27.86-3.16,44.24-3.16,23.26,0,61.75,3.73,61.75,34.72,0,17.21-13.21,27.83-29,31.27v.58c20.4,2.86,35.33,14.34,35.33,34.42,0,36.44-45.95,41-73.24,41-15.51,0-31.6-1.14-39.07-1.72Zm23.84,120.5a153.46,153.46,0,0,0,20.4,1.15c16.95,0,42.22-4,42.22-24.1s-20.1-24.39-44.23-24.39H945.07Zm.29-64h19c18.67,0,37.91-5.45,37.91-21.81,0-13.77-12.06-20.37-37.34-20.37a179.94,179.94,0,0,0-19.53,1.15Z" style="fill:#be202c"/><path d="M1090.42,708.37v60.26h6l52.28-60.26h30.73l-60.61,62.84c22.41,2.3,35.91,17.21,46.83,42.18,3.73,9.18,8.61,22.66,14.93,33.85h-26.43c-3.73-6-8.61-16.93-12.92-28.4-9.48-22.38-22.41-32.71-46-32.71h-4.88v61.11h-25V708.37Z" style="fill:#be202c"/><path d="M1282.86,847.24l-2-17.5H1280c-7.75,10.9-22.69,20.66-42.51,20.66-28.15,0-42.51-19.8-42.51-39.88,0-33.57,29.87-51.93,83.59-51.65V756c0-11.47-3.16-32.13-31.6-32.13-12.93,0-26.43,4-36.19,10.33L1205,717.56c11.49-7.46,28.15-12.34,45.67-12.34,42.52,0,52.86,29,52.86,56.81V814c0,12,.57,23.81,2.29,33.28Zm-3.73-70.87c-27.58-.57-58.88,4.31-58.88,31.28,0,16.35,10.91,24.1,23.84,24.1,18.09,0,29.58-11.48,33.6-23.24a26.06,26.06,0,0,0,1.44-8Z" style="fill:#be202c"/><path d="M1071.44,810.12l65.75,170.64a1.61,1.61,0,0,0,2.72.46l32.2-38a1.59,1.59,0,0,1,2.35-.1l97.93,97.18a1.6,1.6,0,0,0,2.26,0l30.72-30.68a1.6,1.6,0,0,0,0-2.27l-96.11-96a1.6,1.6,0,0,1,.18-2.42l40-29.74a1.6,1.6,0,0,0-.38-2.78l-175.57-68.39A1.6,1.6,0,0,0,1071.44,810.12Z" style="fill:#fff;stroke:#424146;stroke-miterlimit:10;stroke-width:10px"/></svg>