<svg xmlns="http://www.w3.org/2000/svg" viewBox="0 0 1820 1053.39"><title>2</title><g id="Layer_2" data-name="Layer 2"><path d="M528.05,706.06S723.18,718.61,723.18,550.6,738,26.51,458.51,26.51,168,291.94,168,550c0,112,146.08,156.59,206.62,156" style="fill:#fff;stroke:#424146;stroke-miterlimit:10;stroke-width:10px"/><path d="M449.25,689.24c226.45,0,210-355.94,210-355.94s-117.78,14.61-166.17-53V337s-112-8.22-112-56.61v62.09s-93.44-9.13-123.57-53.87C257.52,379.86,250.2,689.24,449.25,689.24Z" style="fill:#fff;stroke:#424146;stroke-miterlimit:10;stroke-width:10px"/><path d="M9.17,1053.39H891.79S966.05,861,549.7,739.3c-19.48-21.91-30.35-50.15-30.09-63.73-11.6,4.44-75.83,28.19-138.52,0,0,0-5.24,51.58-28.15,64C295.26,771,3.08,820.87,9.17,1053.39Z" style="fill:#fff;stroke:#424146;stroke-miterlimit:10;stroke-width:10px"/><path d="M517.44,1053.39V881.74c54.17,0,115-90.09,119.3-99.83s-13.54-18.63-87-42.61c-114.44,114.44-196.76.31-196.76.31s-84.63,32.56-80.37,42.3,65.13,99.83,119.3,99.83v171.65Z" style="fill:#fff;stroke:#424146;stroke-miterlimit:10;stroke-width:10px"/><circle cx="449.26" cy="849.86" r="17.04" style="fill:#424146"/><circle cx="449.26" cy="918.03" r="17.04" style="fill:#424146"/><circle cx="449.17" cy="992" r="17.49" style="fill:#424146"/><path d="M642.23,581.9c-13.05,24-33.08,48.24-69.6,48.24H537.16c-5.68-8-17.75-13.52-31.72-13.52H458.53s-35.17,10.67-35.17,23.83,35.17,23.83,35.17,23.83h46.91c14,0,26.05-5.52,31.72-13.52h35.47c82-6.06,116.51-104,105.83-151.36-9.2,3.32-15.52,3.18-20.18-1.83C658.28,497.57,656.89,554.87,642.23,581.9Z" style="fill:#be222c"/><path d="M681.08,329c-6.19-.52-11.93,7.73-13,18.3L654.8,480.91c-1,10.07,2.6,20.18,10.32,20.61,26,1.73,51.36-31.58,57.24-76.51,6.38-48.61-11.68-93-41.28-96Z" style="fill:#fdfefe;stroke:#be202c;stroke-miterlimit:10;stroke-width:12.727496628632517px"/><path d="M506.65,570.08S504.09,600.4,455,600.4s-51.22-30.32-51.22-30.32" style="fill:#fff;stroke:#424146;stroke-miterlimit:10;stroke-width:10px"/><circle cx="353.17" cy="413.01" r="16.85" style="fill:#424146"/><circle cx="555.4" cy="413.01" r="16.85" style="fill:#424146"/></g></svg>