<svg xmlns="http://www.w3.org/2000/svg" viewBox="0 0 1820 1053.39"><title>3</title><g id="Layer_3" data-name="Layer 3"><path d="M198.1,875.22s255.47,197.27,413.34-17.39C611.44,857.83,535.16,680.78,198.1,875.22Z" style="fill:#fff"/><rect x="137.5" y="26.51" width="592.1" height="554.62" rx="10.48" style="fill:#fff;stroke:#424146;stroke-miterlimit:10;stroke-width:10px"/><path d="M264.38,224.73S382.6,417.36,287.45,434.11s-28.84-153.55,49-156.34,43.25,124.63,20.18,136.29,39.41-81.92,60.56,0,23.07,25.16,23.07-32.53c13.45-33,26.91,40,40.37,36.29s16.82-46.53,26.91-48.39,29.32,54.9,36.05,51.18" style="fill:none;stroke:#be222c;stroke-miterlimit:10;stroke-width:15px"/><path d="M389.17,242.37c2.71-.79,5.42-1.38,8.13-2s5.42-1.09,8.13-1.5c1.36-.2,2.71-.63,4.07-1a9,9,0,0,1,4.06,0,16.25,16.25,0,0,1,4.07,1.47,15.08,15.08,0,0,1,4.06,3,.72.72,0,0,1,0,1,14.93,14.93,0,0,1-4.06,3,16.61,16.61,0,0,1-4.07,1.46,9,9,0,0,1-4.06-.05c-1.36-.32-2.71-.75-4.07-.95q-4.06-.6-8.13-1.5c-2.71-.61-5.42-1.21-8.13-2a.52.52,0,0,1-.35-.64A.53.53,0,0,1,389.17,242.37Z" style="fill:#424146"/><path d="M501,282.73l-86.25-39.24a1,1,0,0,1,0-1.81L501,205.05" style="fill:none;stroke:#424146;stroke-miterlimit:10;stroke-width:10px"/><rect x="499.84" y="205.05" width="357.6" height="77.68" rx="1.1" style="fill:#fff;stroke:#424146;stroke-miterlimit:10;stroke-width:10px"/><path d="M856.8,205c21.05,0,38.12,17.41,38.12,38.88s-17.07,38.89-38.12,38.89Z" style="fill:none;stroke:#424146;stroke-miterlimit:10;stroke-width:10px"/><path d="M547,821.23l67.21,61.27c39.65,45.37,12.81,76-18.19,70.87-30.32-5-128.48-95.54-128.48-95.54" style="fill:#fff;stroke:#424146;stroke-linecap:round;stroke-miterlimit:10;stroke-width:10px"/><path d="M198.1,875.22c-40.58,1.48-146.59-181-146.59-181s168.65-176.4,176.34-172.68,58.13,9.16,107.66-6.51c53.66-11.17,94.19,13.95,92.27,24.19S255.73,663.73,318.2,712.7s102.85-74.8,134.57-74.8S693.55,855.19,701.4,869.62c12.58,23.1-16,64-42,48.21-29.61-18.05-105.22-89.72-112-96.14" style="fill:#fff;stroke:#424146;stroke-linecap:round;stroke-miterlimit:10;stroke-width:10px"/><path d="M467.51,857.83l63.91,56.89c39.65,45.37,12.81,76-18.19,70.87-30.32-5-114.59-76-114.59-76" style="fill:#fff;stroke:#424146;stroke-linecap:round;stroke-miterlimit:10;stroke-width:10px"/><path d="M219.38,852.06l-27.74,30.19a23.43,23.43,0,0,0,2,33.72l4.37,3.76a25.32,25.32,0,0,0,34.83-2l27.74-30.18a23.43,23.43,0,0,0-2-33.72l-4.37-3.77A25.32,25.32,0,0,0,219.38,852.06Z" style="fill:#fff;stroke:#424146;stroke-miterlimit:10;stroke-width:10px"/><path d="M415.14,958.42l-34.29,37.31a31.16,31.16,0,0,0,2.71,44.86l5.57,4.8a33.69,33.69,0,0,0,46.34-2.61l34.28-37.31c12-13.06,16.48-35.53,3-47.15L465,951C451.47,939.33,427.13,945.37,415.14,958.42Z" style="fill:#fff;stroke:#424146;stroke-miterlimit:10;stroke-width:10px"/><path d="M276.48,871.31l-41.35,45a37.14,37.14,0,0,0,3.22,53.46l1.92,1.65c16.07,13.84,40.92,12.43,55.21-3.13l41.36-45a37.14,37.14,0,0,0-3.23-53.46l-1.91-1.64C315.63,854.34,290.78,855.75,276.48,871.31Z" style="fill:#fff;stroke:#424146;stroke-miterlimit:10;stroke-width:10px"/><path d="M341.61,918.1,292.11,972a38.36,38.36,0,0,0,3.33,55.21h0c16.6,14.29,42.26,12.84,57-3.23L402,970.08a38.36,38.36,0,0,0-3.33-55.21h0C382,900.58,356.38,902,341.61,918.1Z" style="fill:#fff;stroke:#424146;stroke-miterlimit:10;stroke-width:10px"/><path d="M694.6,861s43.57-25.45,72.48-67.71c53.17-77.72,71.13-85.9,71.13-85.9L646.27,521.58s-35.86,14.42-73.41,1.86c-86.57-30.71-145.08,15.82-145.08,15.82S252.84,676.13,318.2,712.7c0,0,29,41.79,92.7-35.89,27.78-32.25,31.16-42.8,41.87-38.91S580.93,728.17,694.6,861Z" style="fill:#fff;stroke:#424146;stroke-miterlimit:10;stroke-width:10px"/><line x1="240.44" y1="124.22" x2="389.17" y2="124.22" style="fill:none;stroke:#424146;stroke-linecap:round;stroke-linejoin:round;stroke-width:10px"/><line x1="433.55" y1="124.22" x2="646.27" y2="124.22" style="fill:none;stroke:#424146;stroke-linecap:round;stroke-linejoin:round;stroke-width:10px"/><line x1="240.44" y1="168.89" x2="427.78" y2="168.89" style="fill:none;stroke:#424146;stroke-linecap:round;stroke-linejoin:round;stroke-width:10px"/><line x1="513.62" y1="168.89" x2="633" y2="168.89" style="fill:none;stroke:#424146;stroke-linecap:round;stroke-linejoin:round;stroke-width:10px"/><path d="M41.38,354.08l186.47,167.5S41.82,707.41,35.91,707.41,7.08,679.49,7.08,679.49" style="fill:#fff;stroke:#424146;stroke-linecap:round;stroke-miterlimit:10;stroke-width:10px"/><path d="M832.75,354.08,646.27,521.58s186,185.83,191.94,185.83,28.84-27.92,28.84-27.92" style="fill:#fff;stroke:#424146;stroke-linecap:round;stroke-miterlimit:10;stroke-width:10px"/><ellipse cx="39.14" cy="639.45" rx="20.51" ry="19.85" style="fill:#be202c"/><ellipse cx="829.24" cy="639.45" rx="20.51" ry="19.85" style="fill:#be202c"/></g></svg>