<svg xmlns="http://www.w3.org/2000/svg" viewBox="0 0 1820 1053.39"><title>4</title><g id="Layer_6" data-name="Layer 6"><line x1="1510.18" y1="972.32" x2="1200.7" y2="972.32" style="fill:#fff;stroke:#424146;stroke-miterlimit:10;stroke-width:10px"/><path d="M1511.77,994.54s-38.84-11.07-40.2-23.35" style="fill:#fff;stroke:#424146;stroke-miterlimit:10;stroke-width:10px"/><ellipse cx="1637.15" cy="994.54" rx="53.34" ry="58.85" style="fill:#fff;stroke:#424146;stroke-miterlimit:10;stroke-width:10px"/><ellipse cx="1638.74" cy="994.54" rx="12.95" ry="14.29" style="fill:#fff;stroke:#424146;stroke-miterlimit:10;stroke-width:10px"/><ellipse cx="1510.18" cy="994.54" rx="53.34" ry="58.85" style="fill:#fff;stroke:#424146;stroke-miterlimit:10;stroke-width:10px"/><ellipse cx="1511.77" cy="994.54" rx="12.95" ry="14.29" style="fill:#fff;stroke:#424146;stroke-miterlimit:10;stroke-width:10px"/><ellipse cx="1178.35" cy="994.54" rx="53.34" ry="58.85" style="fill:#fff;stroke:#424146;stroke-miterlimit:10;stroke-width:10px"/><ellipse cx="1179.94" cy="994.54" rx="12.95" ry="14.29" style="fill:#fff;stroke:#424146;stroke-miterlimit:10;stroke-width:10px"/><ellipse cx="1044.79" cy="994.54" rx="53.34" ry="58.85" style="fill:#fff;stroke:#424146;stroke-miterlimit:10;stroke-width:10px"/><ellipse cx="1046.38" cy="994.54" rx="12.95" ry="14.29" style="fill:#fff;stroke:#424146;stroke-miterlimit:10;stroke-width:10px"/><path d="M1649.87,938.33h40.62s19.23,21.58,34.56,13.69c18.4,3.38-7.15,38.34,20.45,51.88s42.93,4.92,42.93,4.92,68.37-501.66-138.56-501.66H915.08c-8.79,0-15.9,7.85-15.9,17.54V920.79c0,9.69,7.11,17.54,15.9,17.54h734.79" style="fill:#fff;stroke:#424146;stroke-miterlimit:10;stroke-width:10px"/><path d="M1797.51,770.09s-80.62,8.28-88.13,0-25.52-203-18.89-213.57S1775.25,546.06,1797.51,770.09Z" style="fill:#fff;stroke:#424146;stroke-miterlimit:10;stroke-width:10px"/><line x1="1797.51" y1="1053.39" x2="899.18" y2="1053.39" style="fill:#fff;stroke:#424146;stroke-linecap:round;stroke-miterlimit:10;stroke-width:10px"/><polyline points="1797.51 902.42 1689.05 902.42 1689.05 938.33" style="fill:#fff;stroke:#424146;stroke-miterlimit:10;stroke-width:10px"/><ellipse cx="734.73" cy="999.42" rx="53.34" ry="52.82" style="fill:#fff;stroke:#424146;stroke-miterlimit:10;stroke-width:10px"/><ellipse cx="736.32" cy="999.42" rx="12.95" ry="12.82" style="fill:#fff;stroke:#424146;stroke-miterlimit:10;stroke-width:10px"/><ellipse cx="607.76" cy="999.42" rx="53.34" ry="52.82" style="fill:#fff;stroke:#424146;stroke-miterlimit:10;stroke-width:10px"/><ellipse cx="609.35" cy="999.42" rx="12.95" ry="12.82" style="fill:#fff;stroke:#424146;stroke-miterlimit:10;stroke-width:10px"/><ellipse cx="275.92" cy="999.42" rx="53.34" ry="52.82" style="fill:#fff;stroke:#424146;stroke-miterlimit:10;stroke-width:10px"/><ellipse cx="277.51" cy="999.42" rx="12.95" ry="12.82" style="fill:#fff;stroke:#424146;stroke-miterlimit:10;stroke-width:10px"/><ellipse cx="142.36" cy="999.42" rx="53.34" ry="52.82" style="fill:#fff;stroke:#424146;stroke-miterlimit:10;stroke-width:10px"/><ellipse cx="143.95" cy="999.42" rx="12.95" ry="12.82" style="fill:#fff;stroke:#424146;stroke-miterlimit:10;stroke-width:10px"/><line x1="895.09" y1="1052.24" x2="-3.25" y2="1052.24" style="fill:#fff;stroke:#424146;stroke-miterlimit:10;stroke-width:10px"/><rect x="12.99" y="887.96" width="848.37" height="58.65" transform="translate(874.35 1834.56) rotate(-180)" style="fill:#fff;stroke:#424146;stroke-miterlimit:10;stroke-width:10px"/><ellipse cx="734.73" cy="999.42" rx="53.34" ry="52.82" style="fill:#fff;stroke:#424146;stroke-linecap:round;stroke-miterlimit:10;stroke-width:10px"/><ellipse cx="736.32" cy="999.42" rx="12.95" ry="12.82" style="fill:#fff;stroke:#424146;stroke-linecap:round;stroke-miterlimit:10;stroke-width:10px"/><ellipse cx="607.76" cy="999.42" rx="53.34" ry="52.82" style="fill:#fff;stroke:#424146;stroke-linecap:round;stroke-miterlimit:10;stroke-width:10px"/><ellipse cx="609.35" cy="999.42" rx="12.95" ry="12.82" style="fill:#fff;stroke:#424146;stroke-linecap:round;stroke-miterlimit:10;stroke-width:10px"/><ellipse cx="275.92" cy="999.42" rx="53.34" ry="52.82" style="fill:#fff;stroke:#424146;stroke-linecap:round;stroke-miterlimit:10;stroke-width:10px"/><ellipse cx="277.51" cy="999.42" rx="12.95" ry="12.82" style="fill:#fff;stroke:#424146;stroke-linecap:round;stroke-miterlimit:10;stroke-width:10px"/><ellipse cx="142.36" cy="999.42" rx="53.34" ry="52.82" style="fill:#fff;stroke:#424146;stroke-linecap:round;stroke-miterlimit:10;stroke-width:10px"/><ellipse cx="143.95" cy="999.42" rx="12.95" ry="12.82" style="fill:#fff;stroke:#424146;stroke-linecap:round;stroke-miterlimit:10;stroke-width:10px"/><line x1="895.09" y1="1052.24" x2="-3.25" y2="1052.24" style="fill:#fff;stroke:#424146;stroke-linecap:round;stroke-miterlimit:10;stroke-width:10px"/><rect x="12.99" y="887.96" width="848.37" height="58.65" transform="translate(874.35 1834.56) rotate(-180)" style="fill:#fff;stroke:#424146;stroke-linecap:round;stroke-miterlimit:10;stroke-width:10px"/><polygon points="497.69 161.08 444.77 161.08 403.35 161.08 316.92 65.71 316.92 26.51 580.53 26.51 580.53 62.06 497.69 161.08" style="fill:#fff;stroke:#424146;stroke-miterlimit:10;stroke-width:10px"/><path d="M390.41,259.15s-9.49,77.12,52.63,77.12,53.5-77.12,53.5-77.12-7.62-44.75-47.82-44.75V161.08" style="fill:none;stroke:#be202c;stroke-miterlimit:10;stroke-width:10px"/><line x1="528.75" y1="318.49" x2="695.58" y2="451.79" style="fill:#fff;stroke:#424146;stroke-miterlimit:10;stroke-width:10px"/><line x1="356.18" y1="324.84" x2="192.81" y2="451.79" style="fill:#fff;stroke:#424146;stroke-miterlimit:10;stroke-width:10px"/><rect x="101.92" y="475.91" width="688" height="332.6" rx="14.1" transform="translate(891.84 1284.42) rotate(-180)" style="fill:#fff;stroke:#be222c;stroke-miterlimit:10;stroke-width:15px"/><line x1="643.23" y1="584.45" x2="643.23" y2="699.97" style="fill:#fff;stroke:#424146;stroke-miterlimit:10;stroke-width:10px"/><line x1="453.8" y1="584.45" x2="453.8" y2="699.97" style="fill:#fff;stroke:#424146;stroke-miterlimit:10;stroke-width:10px"/><line x1="248.61" y1="584.45" x2="248.61" y2="699.97" style="fill:#fff;stroke:#424146;stroke-miterlimit:10;stroke-width:10px"/><rect x="1537.66" y="556.52" width="101.08" height="270.68" rx="16.7" transform="translate(3176.41 1383.72) rotate(-180)" style="fill:#fff;stroke:#424146;stroke-miterlimit:10;stroke-width:10px"/><line x1="1348.23" y1="603.14" x2="899.18" y2="603.14" style="fill:#fff;stroke:#424146;stroke-linecap:round;stroke-miterlimit:10;stroke-width:10px"/><line x1="1348.23" y1="718.34" x2="899.18" y2="718.34" style="fill:#fff;stroke:#424146;stroke-linecap:round;stroke-miterlimit:10;stroke-width:10px"/><line x1="1638.74" y1="884.35" x2="1537.66" y2="884.35" style="fill:#fff;stroke:#424146;stroke-linecap:round;stroke-miterlimit:10;stroke-width:10px"/><path d="M1443,507.16V470.3c0-9.69-7.12-17.54-15.9-17.54h-172c-8.78,0-15.9,7.85-15.9,17.54v36.86" style="fill:#fff;stroke:#424146;stroke-miterlimit:10;stroke-width:10px"/></g></svg>