<svg xmlns="http://www.w3.org/2000/svg" viewBox="0 0 1820 1053.39"><title>5</title><g id="Layer_9" data-name="Layer 9"><path d="M886.33,1053.39S154.91,26.51,886.33,26.51,886.33,1053.39,886.33,1053.39Z" style="fill:#fdfefe;stroke:#be202c;stroke-miterlimit:10;stroke-width:10px"/><circle cx="886.33" cy="303.32" r="175" style="fill:#fdfefe;stroke:#be202c;stroke-miterlimit:10;stroke-width:15px"/><line x1="1647.16" y1="1016.85" x2="1493.26" y2="1016.85" style="fill:#fff;stroke:#424146;stroke-miterlimit:10;stroke-width:13.767808267072468px"/><path d="M1648,1026.87s-19.32-5-20-10.52" style="fill:#fff;stroke:#424146;stroke-miterlimit:10;stroke-width:6.883904133536234px"/><circle cx="1710.3" cy="1026.87" r="26.52" style="fill:#fff;stroke:#424146;stroke-miterlimit:10;stroke-width:6.883904133536234px"/><circle cx="1711.09" cy="1026.87" r="6.44" style="fill:#fff;stroke:#424146;stroke-miterlimit:10;stroke-width:6.883904133536234px"/><circle cx="1647.16" cy="1026.87" r="26.52" style="fill:#fff;stroke:#424146;stroke-miterlimit:10;stroke-width:6.883904133536234px"/><circle cx="1647.95" cy="1026.87" r="6.44" style="fill:#fff;stroke:#424146;stroke-miterlimit:10;stroke-width:6.883904133536234px"/><circle cx="1482.14" cy="1026.87" r="26.52" style="fill:#fff;stroke:#424146;stroke-miterlimit:10;stroke-width:6.883904133536234px"/><circle cx="1482.93" cy="1026.87" r="6.44" style="fill:#fff;stroke:#424146;stroke-miterlimit:10;stroke-width:6.883904133536234px"/><circle cx="1415.73" cy="1026.87" r="26.52" style="fill:#fff;stroke:#424146;stroke-miterlimit:10;stroke-width:6.883904133536234px"/><circle cx="1416.52" cy="1026.87" r="6.44" style="fill:#fff;stroke:#424146;stroke-miterlimit:10;stroke-width:6.883904133536234px"/><path d="M1716.62,1001.54h20.2s9.57,9.72,17.19,6.17c9.15,1.52-3.56,17.28,10.17,23.38s21.35,2.22,21.35,2.22,34-226.09-68.91-226.09h-365.4a7.91,7.91,0,0,0-7.91,7.9V993.63a7.91,7.91,0,0,0,7.91,7.91h365.4" style="fill:#fff;stroke:#424146;stroke-miterlimit:10;stroke-width:10px"/><path d="M1790,925.71s-40.09,3.74-43.82,0-12.69-91.5-9.4-96.24S1779,824.75,1790,925.71Z" style="fill:#fff;stroke:#424146;stroke-miterlimit:10;stroke-width:10px"/><line x1="1790.04" y1="1053.39" x2="1343.31" y2="1053.39" style="fill:#fff;stroke:#424146;stroke-linecap:round;stroke-miterlimit:10;stroke-width:6.883904133536234px"/><polyline points="1790.04 985.35 1736.11 985.35 1736.11 1001.54" style="fill:#fff;stroke:#424146;stroke-miterlimit:10;stroke-width:13.767808267072468px"/><ellipse cx="1261.54" cy="1029.07" rx="26.52" ry="23.8" style="fill:#fff;stroke:#424146;stroke-miterlimit:10;stroke-width:6.883904133536234px"/><ellipse cx="1262.33" cy="1029.07" rx="6.44" ry="5.78" style="fill:#fff;stroke:#424146;stroke-miterlimit:10;stroke-width:6.883904133536234px"/><ellipse cx="1198.4" cy="1029.07" rx="26.52" ry="23.8" style="fill:#fff;stroke:#424146;stroke-miterlimit:10;stroke-width:6.883904133536234px"/><ellipse cx="1199.19" cy="1029.07" rx="6.44" ry="5.78" style="fill:#fff;stroke:#424146;stroke-miterlimit:10;stroke-width:6.883904133536234px"/><ellipse cx="1033.38" cy="1029.07" rx="26.52" ry="23.8" style="fill:#fff;stroke:#424146;stroke-miterlimit:10;stroke-width:6.883904133536234px"/><ellipse cx="1034.17" cy="1029.07" rx="6.44" ry="5.78" style="fill:#fff;stroke:#424146;stroke-miterlimit:10;stroke-width:6.883904133536234px"/><ellipse cx="966.96" cy="1029.07" rx="26.52" ry="23.8" style="fill:#fff;stroke:#424146;stroke-miterlimit:10;stroke-width:6.883904133536234px"/><ellipse cx="967.75" cy="1029.07" rx="6.44" ry="5.78" style="fill:#fff;stroke:#424146;stroke-miterlimit:10;stroke-width:6.883904133536234px"/><line x1="1341.28" y1="1052.87" x2="894.55" y2="1052.87" style="fill:#fff;stroke:#424146;stroke-miterlimit:10;stroke-width:6.883904133536234px"/><rect x="902.63" y="978.83" width="421.88" height="26.43" transform="translate(2227.13 1984.1) rotate(-180)" style="fill:#fff;stroke:#424146;stroke-miterlimit:10;stroke-width:6.883904133536234px"/><rect x="946.85" y="834.51" width="342.13" height="149.9" rx="6.67" transform="translate(2235.83 1818.91) rotate(-180)" style="fill:#fff;stroke:#424146;stroke-miterlimit:10;stroke-width:10px"/><line x1="1216.04" y1="883.42" x2="1216.04" y2="935.49" style="fill:#fff;stroke:#424146;stroke-miterlimit:10;stroke-width:10px"/><line x1="1121.84" y1="883.42" x2="1121.84" y2="935.49" style="fill:#fff;stroke:#424146;stroke-miterlimit:10;stroke-width:10px"/><line x1="1019.8" y1="883.42" x2="1019.8" y2="935.49" style="fill:#fff;stroke:#424146;stroke-miterlimit:10;stroke-width:10px"/><ellipse cx="1261.54" cy="1029.07" rx="26.52" ry="23.8" style="fill:#fff;stroke:#424146;stroke-linecap:round;stroke-miterlimit:10;stroke-width:6.883904133536234px"/><ellipse cx="1262.33" cy="1029.07" rx="6.44" ry="5.78" style="fill:#fff;stroke:#424146;stroke-linecap:round;stroke-miterlimit:10;stroke-width:6.883904133536234px"/><ellipse cx="1198.4" cy="1029.07" rx="26.52" ry="23.8" style="fill:#fff;stroke:#424146;stroke-linecap:round;stroke-miterlimit:10;stroke-width:6.883904133536234px"/><ellipse cx="1199.19" cy="1029.07" rx="6.44" ry="5.78" style="fill:#fff;stroke:#424146;stroke-linecap:round;stroke-miterlimit:10;stroke-width:6.883904133536234px"/><ellipse cx="1033.38" cy="1029.07" rx="26.52" ry="23.8" style="fill:#fff;stroke:#424146;stroke-linecap:round;stroke-miterlimit:10;stroke-width:6.883904133536234px"/><ellipse cx="1034.17" cy="1029.07" rx="6.44" ry="5.78" style="fill:#fff;stroke:#424146;stroke-linecap:round;stroke-miterlimit:10;stroke-width:6.883904133536234px"/><ellipse cx="966.96" cy="1029.07" rx="26.52" ry="23.8" style="fill:#fff;stroke:#424146;stroke-linecap:round;stroke-miterlimit:10;stroke-width:6.883904133536234px"/><ellipse cx="967.75" cy="1029.07" rx="6.44" ry="5.78" style="fill:#fff;stroke:#424146;stroke-linecap:round;stroke-miterlimit:10;stroke-width:6.883904133536234px"/><line x1="1341.28" y1="1052.87" x2="894.55" y2="1052.87" style="fill:#fff;stroke:#424146;stroke-linecap:round;stroke-miterlimit:10;stroke-width:6.883904133536234px"/><rect x="902.63" y="978.83" width="421.88" height="26.43" transform="translate(2227.13 1984.1) rotate(-180)" style="fill:#fff;stroke:#424146;stroke-linecap:round;stroke-miterlimit:10;stroke-width:6.883904133536234px"/><ellipse cx="814.81" cy="1029.07" rx="26.52" ry="23.8" style="fill:#fff;stroke:#424146;stroke-miterlimit:10;stroke-width:6.883904133536234px"/><ellipse cx="815.6" cy="1029.07" rx="6.44" ry="5.78" style="fill:#fff;stroke:#424146;stroke-miterlimit:10;stroke-width:6.883904133536234px"/><ellipse cx="751.67" cy="1029.07" rx="26.52" ry="23.8" style="fill:#fff;stroke:#424146;stroke-miterlimit:10;stroke-width:6.883904133536234px"/><ellipse cx="752.46" cy="1029.07" rx="6.44" ry="5.78" style="fill:#fff;stroke:#424146;stroke-miterlimit:10;stroke-width:6.883904133536234px"/><ellipse cx="586.65" cy="1029.07" rx="26.52" ry="23.8" style="fill:#fff;stroke:#424146;stroke-miterlimit:10;stroke-width:6.883904133536234px"/><ellipse cx="587.44" cy="1029.07" rx="6.44" ry="5.78" style="fill:#fff;stroke:#424146;stroke-miterlimit:10;stroke-width:6.883904133536234px"/><ellipse cx="520.23" cy="1029.07" rx="26.52" ry="23.8" style="fill:#fff;stroke:#424146;stroke-miterlimit:10;stroke-width:6.883904133536234px"/><ellipse cx="521.02" cy="1029.07" rx="6.44" ry="5.78" style="fill:#fff;stroke:#424146;stroke-miterlimit:10;stroke-width:6.883904133536234px"/><line x1="894.55" y1="1052.87" x2="447.82" y2="1052.87" style="fill:#fff;stroke:#424146;stroke-miterlimit:10;stroke-width:6.883904133536234px"/><rect x="455.9" y="978.83" width="421.88" height="26.43" transform="translate(1333.68 1984.1) rotate(-180)" style="fill:#fff;stroke:#424146;stroke-miterlimit:10;stroke-width:6.883904133536234px"/><rect x="500.12" y="834.51" width="342.13" height="149.9" rx="6.67" transform="translate(1342.37 1818.91) rotate(-180)" style="fill:#fff;stroke:#424146;stroke-miterlimit:10;stroke-width:10px"/><line x1="769.31" y1="883.42" x2="769.31" y2="935.49" style="fill:#fff;stroke:#424146;stroke-miterlimit:10;stroke-width:10px"/><line x1="675.11" y1="883.42" x2="675.11" y2="935.49" style="fill:#fff;stroke:#424146;stroke-miterlimit:10;stroke-width:10px"/><line x1="573.07" y1="883.42" x2="573.07" y2="935.49" style="fill:#fff;stroke:#424146;stroke-miterlimit:10;stroke-width:10px"/><ellipse cx="814.81" cy="1029.07" rx="26.52" ry="23.8" style="fill:#fff;stroke:#424146;stroke-linecap:round;stroke-miterlimit:10;stroke-width:6.883904133536234px"/><ellipse cx="815.6" cy="1029.07" rx="6.44" ry="5.78" style="fill:#fff;stroke:#424146;stroke-linecap:round;stroke-miterlimit:10;stroke-width:6.883904133536234px"/><ellipse cx="751.67" cy="1029.07" rx="26.52" ry="23.8" style="fill:#fff;stroke:#424146;stroke-linecap:round;stroke-miterlimit:10;stroke-width:6.883904133536234px"/><ellipse cx="752.46" cy="1029.07" rx="6.44" ry="5.78" style="fill:#fff;stroke:#424146;stroke-linecap:round;stroke-miterlimit:10;stroke-width:6.883904133536234px"/><ellipse cx="586.65" cy="1029.07" rx="26.52" ry="23.8" style="fill:#fff;stroke:#424146;stroke-linecap:round;stroke-miterlimit:10;stroke-width:6.883904133536234px"/><ellipse cx="587.44" cy="1029.07" rx="6.44" ry="5.78" style="fill:#fff;stroke:#424146;stroke-linecap:round;stroke-miterlimit:10;stroke-width:6.883904133536234px"/><ellipse cx="520.23" cy="1029.07" rx="26.52" ry="23.8" style="fill:#fff;stroke:#424146;stroke-linecap:round;stroke-miterlimit:10;stroke-width:6.883904133536234px"/><ellipse cx="521.02" cy="1029.07" rx="6.44" ry="5.78" style="fill:#fff;stroke:#424146;stroke-linecap:round;stroke-miterlimit:10;stroke-width:6.883904133536234px"/><line x1="894.55" y1="1052.87" x2="447.82" y2="1052.87" style="fill:#fff;stroke:#424146;stroke-linecap:round;stroke-miterlimit:10;stroke-width:6.883904133536234px"/><rect x="455.9" y="978.83" width="421.88" height="26.43" transform="translate(1333.68 1984.1) rotate(-180)" style="fill:#fff;stroke:#424146;stroke-linecap:round;stroke-miterlimit:10;stroke-width:6.883904133536234px"/><ellipse cx="368.08" cy="1029.07" rx="26.52" ry="23.8" style="fill:#fff;stroke:#424146;stroke-miterlimit:10;stroke-width:6.883904133536234px"/><ellipse cx="368.87" cy="1029.07" rx="6.44" ry="5.78" style="fill:#fff;stroke:#424146;stroke-miterlimit:10;stroke-width:6.883904133536234px"/><ellipse cx="304.94" cy="1029.07" rx="26.52" ry="23.8" style="fill:#fff;stroke:#424146;stroke-miterlimit:10;stroke-width:6.883904133536234px"/><ellipse cx="305.73" cy="1029.07" rx="6.44" ry="5.78" style="fill:#fff;stroke:#424146;stroke-miterlimit:10;stroke-width:6.883904133536234px"/><ellipse cx="139.92" cy="1029.07" rx="26.52" ry="23.8" style="fill:#fff;stroke:#424146;stroke-miterlimit:10;stroke-width:6.883904133536234px"/><ellipse cx="140.71" cy="1029.07" rx="6.44" ry="5.78" style="fill:#fff;stroke:#424146;stroke-miterlimit:10;stroke-width:6.883904133536234px"/><ellipse cx="73.5" cy="1029.07" rx="26.52" ry="23.8" style="fill:#fff;stroke:#424146;stroke-miterlimit:10;stroke-width:6.883904133536234px"/><ellipse cx="74.3" cy="1029.07" rx="6.44" ry="5.78" style="fill:#fff;stroke:#424146;stroke-miterlimit:10;stroke-width:6.883904133536234px"/><line x1="447.82" y1="1052.87" x2="1.09" y2="1052.87" style="fill:#fff;stroke:#424146;stroke-miterlimit:10;stroke-width:6.883904133536234px"/><rect x="9.17" y="978.83" width="421.88" height="26.43" transform="translate(440.22 1984.1) rotate(-180)" style="fill:#fff;stroke:#424146;stroke-miterlimit:10;stroke-width:6.883904133536234px"/><rect x="53.39" y="834.51" width="342.13" height="149.9" rx="6.67" transform="translate(448.91 1818.91) rotate(-180)" style="fill:#fff;stroke:#424146;stroke-miterlimit:10;stroke-width:10px"/><line x1="322.58" y1="883.42" x2="322.58" y2="935.49" style="fill:#fff;stroke:#424146;stroke-miterlimit:10;stroke-width:10px"/><line x1="228.38" y1="883.42" x2="228.38" y2="935.49" style="fill:#fff;stroke:#424146;stroke-miterlimit:10;stroke-width:10px"/><line x1="126.34" y1="883.42" x2="126.34" y2="935.49" style="fill:#fff;stroke:#424146;stroke-miterlimit:10;stroke-width:10px"/><ellipse cx="368.08" cy="1029.07" rx="26.52" ry="23.8" style="fill:#fff;stroke:#424146;stroke-linecap:round;stroke-miterlimit:10;stroke-width:6.883904133536234px"/><ellipse cx="368.87" cy="1029.07" rx="6.44" ry="5.78" style="fill:#fff;stroke:#424146;stroke-linecap:round;stroke-miterlimit:10;stroke-width:6.883904133536234px"/><ellipse cx="304.94" cy="1029.07" rx="26.52" ry="23.8" style="fill:#fff;stroke:#424146;stroke-linecap:round;stroke-miterlimit:10;stroke-width:6.883904133536234px"/><ellipse cx="305.73" cy="1029.07" rx="6.44" ry="5.78" style="fill:#fff;stroke:#424146;stroke-linecap:round;stroke-miterlimit:10;stroke-width:6.883904133536234px"/><ellipse cx="139.92" cy="1029.07" rx="26.52" ry="23.8" style="fill:#fff;stroke:#424146;stroke-linecap:round;stroke-miterlimit:10;stroke-width:6.883904133536234px"/><ellipse cx="140.71" cy="1029.07" rx="6.44" ry="5.78" style="fill:#fff;stroke:#424146;stroke-linecap:round;stroke-miterlimit:10;stroke-width:6.883904133536234px"/><ellipse cx="73.5" cy="1029.07" rx="26.52" ry="23.8" style="fill:#fff;stroke:#424146;stroke-linecap:round;stroke-miterlimit:10;stroke-width:6.883904133536234px"/><ellipse cx="74.3" cy="1029.07" rx="6.44" ry="5.78" style="fill:#fff;stroke:#424146;stroke-linecap:round;stroke-miterlimit:10;stroke-width:6.883904133536234px"/><line x1="447.82" y1="1052.87" x2="1.09" y2="1052.87" style="fill:#fff;stroke:#424146;stroke-linecap:round;stroke-miterlimit:10;stroke-width:6.883904133536234px"/><rect x="9.17" y="978.83" width="421.88" height="26.43" transform="translate(440.22 1984.1) rotate(-180)" style="fill:#fff;stroke:#424146;stroke-linecap:round;stroke-miterlimit:10;stroke-width:6.883904133536234px"/><rect x="1660.82" y="829.47" width="50.26" height="121.99" rx="7.91" transform="translate(3371.91 1780.92) rotate(-180)" style="fill:#fff;stroke:#424146;stroke-miterlimit:10;stroke-width:10px"/><line x1="1566.62" y1="850.47" x2="1343.31" y2="850.47" style="fill:#fff;stroke:#424146;stroke-linecap:round;stroke-miterlimit:10;stroke-width:10px"/><line x1="1566.62" y1="902.39" x2="1343.31" y2="902.39" style="fill:#fff;stroke:#424146;stroke-linecap:round;stroke-miterlimit:10;stroke-width:10px"/><line x1="1711.09" y1="977.21" x2="1660.82" y2="977.21" style="fill:#fff;stroke:#424146;stroke-linecap:round;stroke-miterlimit:10;stroke-width:10px"/><path d="M1618,808.44V791.83a7.9,7.9,0,0,0-7.9-7.9h-85.51a7.91,7.91,0,0,0-7.91,7.9v16.61" style="fill:#fff;stroke:#424146;stroke-miterlimit:10;stroke-width:10px"/></g></svg>