<svg xmlns="http://www.w3.org/2000/svg" viewBox="0 0 1820 1053.39"><title>6</title><g id="Layer_9" data-name="Layer 9"><circle cx="894.91" cy="536.53" r="513.44" style="fill:#fdfefe;stroke:#be202c;stroke-miterlimit:10;stroke-width:10px"/><polyline points="615.83 595.69 770.57 738.24 1173.98 334.83" style="fill:none;stroke:#be202c;stroke-miterlimit:10;stroke-width:15px"/><line x1="1646.07" y1="1016.85" x2="1492.17" y2="1016.85" style="fill:#fff;stroke:#424146;stroke-miterlimit:10;stroke-width:13.767808267072468px"/><path d="M1646.86,1026.87s-19.32-5-20-10.52" style="fill:#fff;stroke:#424146;stroke-miterlimit:10;stroke-width:6.883904133536234px"/><circle cx="1709.21" cy="1026.87" r="26.52" style="fill:#fff;stroke:#424146;stroke-miterlimit:10;stroke-width:6.883904133536234px"/><circle cx="1710" cy="1026.87" r="6.44" style="fill:#fff;stroke:#424146;stroke-miterlimit:10;stroke-width:6.883904133536234px"/><circle cx="1646.07" cy="1026.87" r="26.52" style="fill:#fff;stroke:#424146;stroke-miterlimit:10;stroke-width:6.883904133536234px"/><circle cx="1646.86" cy="1026.87" r="6.44" style="fill:#fff;stroke:#424146;stroke-miterlimit:10;stroke-width:6.883904133536234px"/><circle cx="1481.05" cy="1026.87" r="26.52" style="fill:#fff;stroke:#424146;stroke-miterlimit:10;stroke-width:6.883904133536234px"/><circle cx="1481.84" cy="1026.87" r="6.44" style="fill:#fff;stroke:#424146;stroke-miterlimit:10;stroke-width:6.883904133536234px"/><circle cx="1414.63" cy="1026.87" r="26.52" style="fill:#fff;stroke:#424146;stroke-miterlimit:10;stroke-width:6.883904133536234px"/><circle cx="1415.42" cy="1026.87" r="6.44" style="fill:#fff;stroke:#424146;stroke-miterlimit:10;stroke-width:6.883904133536234px"/><path d="M1715.53,1001.54h20.2s9.56,9.72,17.19,6.17c9.15,1.52-3.56,17.28,10.16,23.38s21.35,2.22,21.35,2.22,34-226.09-68.9-226.09h-365.4a7.91,7.91,0,0,0-7.91,7.9V993.63a7.91,7.91,0,0,0,7.91,7.91h365.4" style="fill:#fff;stroke:#424146;stroke-miterlimit:10;stroke-width:10px"/><path d="M1789,925.71s-40.09,3.74-43.83,0-12.68-91.5-9.39-96.24S1777.88,824.75,1789,925.71Z" style="fill:#fff;stroke:#424146;stroke-miterlimit:10;stroke-width:10px"/><line x1="1788.95" y1="1053.39" x2="1342.22" y2="1053.39" style="fill:#fff;stroke:#424146;stroke-linecap:round;stroke-miterlimit:10;stroke-width:6.883904133536234px"/><polyline points="1788.95 985.35 1735.02 985.35 1735.02 1001.54" style="fill:#fff;stroke:#424146;stroke-miterlimit:10;stroke-width:13.767808267072468px"/><ellipse cx="1260.44" cy="1029.07" rx="26.52" ry="23.8" style="fill:#fff;stroke:#424146;stroke-miterlimit:10;stroke-width:6.883904133536234px"/><ellipse cx="1261.23" cy="1029.07" rx="6.44" ry="5.78" style="fill:#fff;stroke:#424146;stroke-miterlimit:10;stroke-width:6.883904133536234px"/><ellipse cx="1197.3" cy="1029.07" rx="26.52" ry="23.8" style="fill:#fff;stroke:#424146;stroke-miterlimit:10;stroke-width:6.883904133536234px"/><ellipse cx="1198.09" cy="1029.07" rx="6.44" ry="5.78" style="fill:#fff;stroke:#424146;stroke-miterlimit:10;stroke-width:6.883904133536234px"/><ellipse cx="1032.29" cy="1029.07" rx="26.52" ry="23.8" style="fill:#fff;stroke:#424146;stroke-miterlimit:10;stroke-width:6.883904133536234px"/><ellipse cx="1033.08" cy="1029.07" rx="6.44" ry="5.78" style="fill:#fff;stroke:#424146;stroke-miterlimit:10;stroke-width:6.883904133536234px"/><ellipse cx="965.87" cy="1029.07" rx="26.52" ry="23.8" style="fill:#fff;stroke:#424146;stroke-miterlimit:10;stroke-width:6.883904133536234px"/><ellipse cx="966.66" cy="1029.07" rx="6.44" ry="5.78" style="fill:#fff;stroke:#424146;stroke-miterlimit:10;stroke-width:6.883904133536234px"/><line x1="1340.19" y1="1052.87" x2="893.46" y2="1052.87" style="fill:#fff;stroke:#424146;stroke-miterlimit:10;stroke-width:6.883904133536234px"/><rect x="901.54" y="978.83" width="421.88" height="26.43" transform="translate(2224.95 1984.1) rotate(-180)" style="fill:#fff;stroke:#424146;stroke-miterlimit:10;stroke-width:6.883904133536234px"/><rect x="945.76" y="834.51" width="342.13" height="149.9" rx="6.67" transform="translate(2233.65 1818.91) rotate(-180)" style="fill:#fff;stroke:#424146;stroke-miterlimit:10;stroke-width:10px"/><line x1="1214.94" y1="883.42" x2="1214.94" y2="935.49" style="fill:#fff;stroke:#424146;stroke-miterlimit:10;stroke-width:10px"/><line x1="1120.75" y1="883.42" x2="1120.75" y2="935.49" style="fill:#fff;stroke:#424146;stroke-miterlimit:10;stroke-width:10px"/><line x1="1018.7" y1="883.42" x2="1018.7" y2="935.49" style="fill:#fff;stroke:#424146;stroke-miterlimit:10;stroke-width:10px"/><ellipse cx="1260.44" cy="1029.07" rx="26.52" ry="23.8" style="fill:#fff;stroke:#424146;stroke-linecap:round;stroke-miterlimit:10;stroke-width:6.883904133536234px"/><ellipse cx="1261.23" cy="1029.07" rx="6.44" ry="5.78" style="fill:#fff;stroke:#424146;stroke-linecap:round;stroke-miterlimit:10;stroke-width:6.883904133536234px"/><ellipse cx="1197.3" cy="1029.07" rx="26.52" ry="23.8" style="fill:#fff;stroke:#424146;stroke-linecap:round;stroke-miterlimit:10;stroke-width:6.883904133536234px"/><ellipse cx="1198.09" cy="1029.07" rx="6.44" ry="5.78" style="fill:#fff;stroke:#424146;stroke-linecap:round;stroke-miterlimit:10;stroke-width:6.883904133536234px"/><ellipse cx="1032.29" cy="1029.07" rx="26.52" ry="23.8" style="fill:#fff;stroke:#424146;stroke-linecap:round;stroke-miterlimit:10;stroke-width:6.883904133536234px"/><ellipse cx="1033.08" cy="1029.07" rx="6.44" ry="5.78" style="fill:#fff;stroke:#424146;stroke-linecap:round;stroke-miterlimit:10;stroke-width:6.883904133536234px"/><ellipse cx="965.87" cy="1029.07" rx="26.52" ry="23.8" style="fill:#fff;stroke:#424146;stroke-linecap:round;stroke-miterlimit:10;stroke-width:6.883904133536234px"/><ellipse cx="966.66" cy="1029.07" rx="6.44" ry="5.78" style="fill:#fff;stroke:#424146;stroke-linecap:round;stroke-miterlimit:10;stroke-width:6.883904133536234px"/><line x1="1340.19" y1="1052.87" x2="893.46" y2="1052.87" style="fill:#fff;stroke:#424146;stroke-linecap:round;stroke-miterlimit:10;stroke-width:6.883904133536234px"/><rect x="901.54" y="978.83" width="421.88" height="26.43" transform="translate(2224.95 1984.1) rotate(-180)" style="fill:#fff;stroke:#424146;stroke-linecap:round;stroke-miterlimit:10;stroke-width:6.883904133536234px"/><ellipse cx="813.71" cy="1029.07" rx="26.52" ry="23.8" style="fill:#fff;stroke:#424146;stroke-miterlimit:10;stroke-width:6.883904133536234px"/><ellipse cx="814.5" cy="1029.07" rx="6.44" ry="5.78" style="fill:#fff;stroke:#424146;stroke-miterlimit:10;stroke-width:6.883904133536234px"/><ellipse cx="750.57" cy="1029.07" rx="26.52" ry="23.8" style="fill:#fff;stroke:#424146;stroke-miterlimit:10;stroke-width:6.883904133536234px"/><ellipse cx="751.36" cy="1029.07" rx="6.44" ry="5.78" style="fill:#fff;stroke:#424146;stroke-miterlimit:10;stroke-width:6.883904133536234px"/><ellipse cx="585.56" cy="1029.07" rx="26.52" ry="23.8" style="fill:#fff;stroke:#424146;stroke-miterlimit:10;stroke-width:6.883904133536234px"/><ellipse cx="586.35" cy="1029.07" rx="6.44" ry="5.78" style="fill:#fff;stroke:#424146;stroke-miterlimit:10;stroke-width:6.883904133536234px"/><ellipse cx="519.14" cy="1029.07" rx="26.52" ry="23.8" style="fill:#fff;stroke:#424146;stroke-miterlimit:10;stroke-width:6.883904133536234px"/><ellipse cx="519.93" cy="1029.07" rx="6.44" ry="5.78" style="fill:#fff;stroke:#424146;stroke-miterlimit:10;stroke-width:6.883904133536234px"/><line x1="893.46" y1="1052.87" x2="446.73" y2="1052.87" style="fill:#fff;stroke:#424146;stroke-miterlimit:10;stroke-width:6.883904133536234px"/><rect x="454.81" y="978.83" width="421.88" height="26.43" transform="translate(1331.49 1984.1) rotate(-180)" style="fill:#fff;stroke:#424146;stroke-miterlimit:10;stroke-width:6.883904133536234px"/><rect x="499.03" y="834.51" width="342.13" height="149.9" rx="6.67" transform="translate(1340.19 1818.91) rotate(-180)" style="fill:#fff;stroke:#424146;stroke-miterlimit:10;stroke-width:10px"/><line x1="768.21" y1="883.42" x2="768.21" y2="935.49" style="fill:#fff;stroke:#424146;stroke-miterlimit:10;stroke-width:10px"/><line x1="674.02" y1="883.42" x2="674.02" y2="935.49" style="fill:#fff;stroke:#424146;stroke-miterlimit:10;stroke-width:10px"/><line x1="571.97" y1="883.42" x2="571.97" y2="935.49" style="fill:#fff;stroke:#424146;stroke-miterlimit:10;stroke-width:10px"/><ellipse cx="813.71" cy="1029.07" rx="26.52" ry="23.8" style="fill:#fff;stroke:#424146;stroke-linecap:round;stroke-miterlimit:10;stroke-width:6.883904133536234px"/><ellipse cx="814.5" cy="1029.07" rx="6.44" ry="5.78" style="fill:#fff;stroke:#424146;stroke-linecap:round;stroke-miterlimit:10;stroke-width:6.883904133536234px"/><ellipse cx="750.57" cy="1029.07" rx="26.52" ry="23.8" style="fill:#fff;stroke:#424146;stroke-linecap:round;stroke-miterlimit:10;stroke-width:6.883904133536234px"/><ellipse cx="751.36" cy="1029.07" rx="6.44" ry="5.78" style="fill:#fff;stroke:#424146;stroke-linecap:round;stroke-miterlimit:10;stroke-width:6.883904133536234px"/><ellipse cx="585.56" cy="1029.07" rx="26.52" ry="23.8" style="fill:#fff;stroke:#424146;stroke-linecap:round;stroke-miterlimit:10;stroke-width:6.883904133536234px"/><ellipse cx="586.35" cy="1029.07" rx="6.44" ry="5.78" style="fill:#fff;stroke:#424146;stroke-linecap:round;stroke-miterlimit:10;stroke-width:6.883904133536234px"/><ellipse cx="519.14" cy="1029.07" rx="26.52" ry="23.8" style="fill:#fff;stroke:#424146;stroke-linecap:round;stroke-miterlimit:10;stroke-width:6.883904133536234px"/><ellipse cx="519.93" cy="1029.07" rx="6.44" ry="5.78" style="fill:#fff;stroke:#424146;stroke-linecap:round;stroke-miterlimit:10;stroke-width:6.883904133536234px"/><line x1="893.46" y1="1052.87" x2="446.73" y2="1052.87" style="fill:#fff;stroke:#424146;stroke-linecap:round;stroke-miterlimit:10;stroke-width:6.883904133536234px"/><rect x="454.81" y="978.83" width="421.88" height="26.43" transform="translate(1331.49 1984.1) rotate(-180)" style="fill:#fff;stroke:#424146;stroke-linecap:round;stroke-miterlimit:10;stroke-width:6.883904133536234px"/><ellipse cx="366.98" cy="1029.07" rx="26.52" ry="23.8" style="fill:#fff;stroke:#424146;stroke-miterlimit:10;stroke-width:6.883904133536234px"/><ellipse cx="367.78" cy="1029.07" rx="6.44" ry="5.78" style="fill:#fff;stroke:#424146;stroke-miterlimit:10;stroke-width:6.883904133536234px"/><ellipse cx="303.84" cy="1029.07" rx="26.52" ry="23.8" style="fill:#fff;stroke:#424146;stroke-miterlimit:10;stroke-width:6.883904133536234px"/><ellipse cx="304.63" cy="1029.07" rx="6.44" ry="5.78" style="fill:#fff;stroke:#424146;stroke-miterlimit:10;stroke-width:6.883904133536234px"/><ellipse cx="138.83" cy="1029.07" rx="26.52" ry="23.8" style="fill:#fff;stroke:#424146;stroke-miterlimit:10;stroke-width:6.883904133536234px"/><ellipse cx="139.62" cy="1029.07" rx="6.44" ry="5.78" style="fill:#fff;stroke:#424146;stroke-miterlimit:10;stroke-width:6.883904133536234px"/><ellipse cx="72.41" cy="1029.07" rx="26.52" ry="23.8" style="fill:#fff;stroke:#424146;stroke-miterlimit:10;stroke-width:6.883904133536234px"/><ellipse cx="73.2" cy="1029.07" rx="6.44" ry="5.78" style="fill:#fff;stroke:#424146;stroke-miterlimit:10;stroke-width:6.883904133536234px"/><line x1="446.73" y1="1052.87" y2="1052.87" style="fill:#fff;stroke:#424146;stroke-miterlimit:10;stroke-width:6.883904133536234px"/><rect x="8.08" y="978.83" width="421.88" height="26.43" transform="translate(438.03 1984.1) rotate(-180)" style="fill:#fff;stroke:#424146;stroke-miterlimit:10;stroke-width:6.883904133536234px"/><rect x="52.3" y="834.51" width="342.13" height="149.9" rx="6.67" transform="translate(446.73 1818.91) rotate(-180)" style="fill:#fff;stroke:#424146;stroke-miterlimit:10;stroke-width:10px"/><line x1="321.48" y1="883.42" x2="321.48" y2="935.49" style="fill:#fff;stroke:#424146;stroke-miterlimit:10;stroke-width:10px"/><line x1="227.29" y1="883.42" x2="227.29" y2="935.49" style="fill:#fff;stroke:#424146;stroke-miterlimit:10;stroke-width:10px"/><line x1="125.25" y1="883.42" x2="125.25" y2="935.49" style="fill:#fff;stroke:#424146;stroke-miterlimit:10;stroke-width:10px"/><ellipse cx="366.98" cy="1029.07" rx="26.52" ry="23.8" style="fill:#fff;stroke:#424146;stroke-linecap:round;stroke-miterlimit:10;stroke-width:6.883904133536234px"/><ellipse cx="367.78" cy="1029.07" rx="6.44" ry="5.78" style="fill:#fff;stroke:#424146;stroke-linecap:round;stroke-miterlimit:10;stroke-width:6.883904133536234px"/><ellipse cx="303.84" cy="1029.07" rx="26.52" ry="23.8" style="fill:#fff;stroke:#424146;stroke-linecap:round;stroke-miterlimit:10;stroke-width:6.883904133536234px"/><ellipse cx="304.63" cy="1029.07" rx="6.44" ry="5.78" style="fill:#fff;stroke:#424146;stroke-linecap:round;stroke-miterlimit:10;stroke-width:6.883904133536234px"/><ellipse cx="138.83" cy="1029.07" rx="26.52" ry="23.8" style="fill:#fff;stroke:#424146;stroke-linecap:round;stroke-miterlimit:10;stroke-width:6.883904133536234px"/><ellipse cx="139.62" cy="1029.07" rx="6.44" ry="5.78" style="fill:#fff;stroke:#424146;stroke-linecap:round;stroke-miterlimit:10;stroke-width:6.883904133536234px"/><ellipse cx="72.41" cy="1029.07" rx="26.52" ry="23.8" style="fill:#fff;stroke:#424146;stroke-linecap:round;stroke-miterlimit:10;stroke-width:6.883904133536234px"/><ellipse cx="73.2" cy="1029.07" rx="6.44" ry="5.78" style="fill:#fff;stroke:#424146;stroke-linecap:round;stroke-miterlimit:10;stroke-width:6.883904133536234px"/><line x1="446.73" y1="1052.87" y2="1052.87" style="fill:#fff;stroke:#424146;stroke-linecap:round;stroke-miterlimit:10;stroke-width:6.883904133536234px"/><rect x="8.08" y="978.83" width="421.88" height="26.43" transform="translate(438.03 1984.1) rotate(-180)" style="fill:#fff;stroke:#424146;stroke-linecap:round;stroke-miterlimit:10;stroke-width:6.883904133536234px"/><rect x="1659.73" y="829.47" width="50.26" height="121.99" rx="7.91" transform="translate(3369.73 1780.92) rotate(-180)" style="fill:#fff;stroke:#424146;stroke-miterlimit:10;stroke-width:10px"/><line x1="1565.53" y1="850.47" x2="1342.22" y2="850.47" style="fill:#fff;stroke:#424146;stroke-linecap:round;stroke-miterlimit:10;stroke-width:10px"/><line x1="1565.53" y1="902.39" x2="1342.22" y2="902.39" style="fill:#fff;stroke:#424146;stroke-linecap:round;stroke-miterlimit:10;stroke-width:10px"/><line x1="1710" y1="977.21" x2="1659.73" y2="977.21" style="fill:#fff;stroke:#424146;stroke-linecap:round;stroke-miterlimit:10;stroke-width:10px"/><path d="M1612.63,808.44V791.83a7.91,7.91,0,0,0-7.91-7.9h-85.5a7.91,7.91,0,0,0-7.91,7.9v16.61" style="fill:#fff;stroke:#424146;stroke-miterlimit:10;stroke-width:10px"/></g></svg>